<svg xmlns="http://www.w3.org/2000/svg">
<defs>
<font horiz-adv-x="0" id="ywftsvg"><font-face ascent="1638" bbox="-975 -774 3299 2460" cap-height="1868" descent="-410" font-family="" font-stretch="normal" font-weight="200" panose-1="2 2 10 3 6 3 3 6 4 3" underline-position="0" underline-thickness="0" unicode-range="U+0020-25CA" units-per-em="2048" x-height="1550"/><missing-glyph d="M748 668l-7 -11q-115 -4 -213 42t-98 141q0 57 46 95t102 38q63 0 107 -41t44 -101q0 -41 -25.5 -68.5t-74.5 -27.5q-47 0 -74 28t-29 62q-2 39 18.5 59.5t47.5 20.5q49 0 49 -35v-4q0 -23 -16 -22q4 0 4 8q0 16 -16.5 16t-16.5 -24q0 -27 31 -27q16 0 30.5 13.5 t12.5 35.5q-2 29 -25.5 47.5t-56.5 18.5q-35 0 -59.5 -23.5t-24.5 -66.5q0 -86 73 -131t171 -43zM625 844zM621 311q109 -25 108 -65q0 -39 -18 -39q-76 0 -129 69q2 -2 14 -5t20 -7q10 -14 37 -28.5t44.5 -16.5t21.5 4q0 8 -28.5 25.5t-78 34t-96.5 16.5q-96 0 -145 -53 t-49 -123q0 -55 33.5 -90t82.5 -35q41 0 65.5 19.5t22.5 60.5q-4 47 -53 47q-33 0 -33 -27q0 -25 25 -24q8 0 8 8q0 14 -12 14q4 8 12 8q27 0 27 -30q0 -37 -51 -37q-39 0 -65 25.5t-26 68.5q0 41 28 74t77 33q47 0 85 -30t40 -85q4 -72 -45 -111t-121 -39q-74 0 -131.5 39 t-57.5 111q0 92 85 144t202 52h37q-8 18 -8 46q0 47 23.5 114.5t42 109.5t12.5 42t-26.5 -38t-48.5 -108.5t-40 -140.5q-2 0 -12.5 1t-16.5 1q-41 0 -57 -8q20 57 51 129t49.5 113t16.5 41q-4 0 -25.5 -32t-58.5 -101.5t-70 -151.5q-63 -16 -115.5 -52t-74.5 -69l-4 8 q158 172 249 377q-66 -117 -176 -243t-172 -126q-55 0 -55 103q0 92 39 186q45 104 113.5 185t119.5 81q57 0 92 -21.5t37 -53.5q4 -53 -65 -88l-62 14q66 84 66 117q0 10 -10 10q-53 0 -146.5 -179t-93.5 -263q0 -31 21 -31q41 0 135 105.5t153 215.5q16 33 45 33 q12 0 19.5 -7t3.5 -15.5t-18.5 -41t-20.5 -51.5q68 106 82 107q20 0 27.5 -3t3.5 -11l-21 -54q43 72 66 72q16 0 48 -11.5t25 -27.5q-89 -225 -79 -291zM948 735q0 -29 -35.5 -54.5t-74.5 -33.5q-39 -72 -69 -155.5t-30 -126.5q0 -27 15 -27q27 0 56.5 28.5t41.5 59.5h35 q-16 -37 -65.5 -75t-92.5 -38q-35 0 -55.5 23.5t-14.5 64.5q23 119 92.5 240t145.5 121q20 0 35.5 -9.5t15.5 -17.5zM932 743q-35 0 -80 -75q68 14 86 57q8 18 -6 18z" horiz-adv
<glyph d="M748 668l-7 -11q-115 -4 -213 42t-98 141q0 57 46 95t102 38q63 0 107 -41t44 -101q0 -41 -25.5 -68.5t-74.5 -27.5q-47 0 -74 28t-29 62q-2 39 18.5 59.5t47.5 20.5q49 0 49 -35v-4q0 -23 -16 -22q4 0 4 8q0 16 -16.5 16t-16.5 -24q0 -27 31 -27q16 0 30.5 13.5 t12.5 35.5q-2 29 -25.5 47.5t-56.5 18.5q-35 0 -59.5 -23.5t-24.5 -66.5q0 -86 73 -131t171 -43zM625 844zM621 311q109 -25 108 -65q0 -39 -18 -39q-76 0 -129 69q2 -2 14 -5t20 -7q10 -14 37 -28.5t44.5 -16.5t21.5 4q0 8 -28.5 25.5t-78 34t-96.5 16.5q-96 0 -145 -53 t-49 -123q0 -55 33.5 -90t82.5 -35q41 0 65.5 19.5t22.5 60.5q-4 47 -53 47q-33 0 -33 -27q0 -25 25 -24q8 0 8 8q0 14 -12 14q4 8 12 8q27 0 27 -30q0 -37 -51 -37q-39 0 -65 25.5t-26 68.5q0 41 28 74t77 33q47 0 85 -30t40 -85q4 -72 -45 -111t-121 -39q-74 0 -131.5 39 t-57.5 111q0 92 85 144t202 52h37q-8 18 -8 46q0 47 23.5 114.5t42 109.5t12.5 42t-26.5 -38t-48.5 -108.5t-40 -140.5q-2 0 -12.5 1t-16.5 1q-41 0 -57 -8q20 57 51 129t49.5 113t16.5 41q-4 0 -25.5 -32t-58.5 -101.5t-70 -151.5q-63 -16 -115.5 -52t-74.5 -69l-4 8 q158 172 249 377q-66 -117 -176 -243t-172 -126q-55 0 -55 103q0 92 39 186q45 104 113.5 185t119.5 81q57 0 92 -21.5t37 -53.5q4 -53 -65 -88l-62 14q66 84 66 117q0 10 -10 10q-53 0 -146.5 -179t-93.5 -263q0 -31 21 -31q41 0 135 105.5t153 215.5q16 33 45 33 q12 0 19.5 -7t3.5 -15.5t-18.5 -41t-20.5 -51.5q68 106 82 107q20 0 27.5 -3t3.5 -11l-21 -54q43 72 66 72q16 0 48 -11.5t25 -27.5q-89 -225 -79 -291zM948 735q0 -29 -35.5 -54.5t-74.5 -33.5q-39 -72 -69 -155.5t-30 -126.5q0 -27 15 -27q27 0 56.5 28.5t41.5 59.5h35 q-16 -37 -65.5 -75t-92.5 -38q-35 0 -55.5 23.5t-14.5 64.5q23 119 92.5 240t145.5 121q20 0 35.5 -9.5t15.5 -17.5zM932 743q-35 0 -80 -75q68 14 86 57q8 18 -6 18z" glyph-name=".notdef" horiz-adv-x="989"/><glyph glyph-name="glyph1"/><glyph glyph-name="glyph2" horiz-adv-x="681"/><glyph glyph-name="space" horiz-adv-x="512" unicode=" "/><glyph d="M289 377h-90q0 551 -36 930t-36 467q0 66 35 102.5t84 36.5q47 0 81.5 -37t34.5 -102q0 -121 -18 -277t-36.5 -432t-18.5 -688zM246 -31q-57 0 -98.5 41t-41.5 96q0 57 41 97.5t99 40.5q55 0 95 -40t40 -98q0 -55 -40 -96t-95 -41z" glyph-name="exclam" horiz-adv-x="475" unicode="!"/><glyph d="M139 1329l-39 33q86 96 107.5 172t-4.5 201v75h221q0 -305 -285 -481zM403 1329l-38 33q88 94 109.5 171t-7.5 202v75h223q0 -305 -287 -481z" glyph-name="quotedbl" horiz-adv-x="788" unicode="&quot;"/><glyph d="M1313 920l-23 -82h-323l-62 -207h328l-23 -84h-329l-164 -547h-92l163 547h-229l-164 -547h-92l164 547h-367l23 84h369l61 207h-373l23 82h375l151 505h92l-151 -505h229l152 505h92l-152 -505h322zM584 631h229l61 207h-229z" glyph-name="numbersign" horiz-adv-x="1413" unicode="#"/><glyph d="M1249 489q8 -221 -140 -363t-376 -155v-139h-88v139q-164 12 -315.5 90t-231.5 209l41 262h68q47 -182 164.5 -299.5t273.5 -142.5v807q-266 201 -354 289q-162 166 -162 309q0 193 145.5 299.5t358.5 106.5h12v153h88v-160q150 -14 280 -71.5t208 -147.5l-41 -239h-70 q-35 131 -140.5 221t-236.5 123v-639q111 -82 186.5 -145.5t157.5 -149.5t125 -175.5t47 -181.5zM309 1569q0 -74 83 -155t253 -208v590q-16 2 -47 2q-125 0 -207 -59t-82 -170zM733 831v-747q174 4 261 95t87 194q0 113 -90 220t-258 238z" glyph-name="dollar" horiz-adv-x="1349" unicode="$"/><glyph d="M328 938q-115 0 -170.5 93t-55.5 226.5t55.5 224.5t170.5 91q113 0 168 -91t55 -224.5t-55 -226.5t-168 -93zM252 0h-47l702 1550h47zM327.5 967q71.5 0 109.5 75.5t38 214.5q0 287 -147.5 287t-147.5 -287q0 -139 38 -214.5t109.5 -75.5zM825 -31q-115 0 -170 93.5 t-55 226.5t55.5 224t169.5 91q113 0 168.5 -91t55.5 -224t-55.5 -226.5t-168.5 -93.5zM825.5 -2q71.5 0 109.5 76t38 215q0 287 -147.5 286.5t-147.5 -286.5q0 -139 38 -215t109.5 -76z" glyph-name="percent" horiz-adv-x="1150" unicode="%"/><glyph d="M1262 338l241 -338h-268l-123 170q-238 -215 -532 -215q-174 0 -301 170t-127 385q0 154 82.5 292t259.5 218l-27 37q-125 172 -125 401q0 195 124 319t337 124q145 0 254.5 -105.5t109.5 -286.5q0 -135 -102 -263t-297 -212l385 -542q86 172 166 430h82l51 -246 q-79 -191 -190 -338zM778 1823q-109 0 -166 -89t-57 -221q0 -174 76 -286l80 -113q147 88 222 211t75 229q0 123 -56.5 196t-173.5 73zM702 72q170 0 328 211l-465 639q-176 -164 -176 -414q0 -176 90 -306t223 -130z" glyph-name="ampersand" horiz-adv-x="1554" unicode="&amp;"/><glyph d="M139 1386l-39 33q86 96 107.5 172t-4.5 201v76h221q0 -306 -285 -482z" glyph-name="quotesingle" horiz-adv-x="524" unicode="'"/><glyph d="M715 -250v-88q-201 0 -341.5 153.5t-207 419t-66.5 619.5q0 338 66.5 599t204 415.5t327.5 154.5v-90q-166 0 -264 -271t-98 -808q0 -543 102.5 -823.5t276.5 -280.5z" glyph-name="parenleft" horiz-adv-x="815" unicode="("/><glyph d="M100 -338v88q174 0 276.5 280.5t102.5 823.5q0 537 -98 808t-264 271v90q190 0 327.5 -154.5t204 -415.5t66.5 -599q0 -354 -66.5 -619.5t-207 -419t-341.5 -153.5z" glyph-name="parenright" horiz-adv-x="815" unicode=")"/><glyph d="M416 989.5q0 63.5 41 146.5t41 146q-61 0 -146.5 -41t-150.5 -41q-61 0 -88 53.5t-1.5 106.5t89.5 53q66 0 149.5 -42t147.5 -42q0 63 -41 146.5t-41 147t53 89t106.5 0t53.5 -89t-41 -146.5t-41 -147q61 0 144 42t149 42q63 0 87.5 -53t-1 -106.5t-86.5 -53.5 q-66 0 -149 41t-144 41q0 -63 41 -146t41 -146.5t-53.5 -89.5t-106.5 0t-53 89.5z" glyph-name="asterisk" horiz-adv-x="1038" unicode="*"/><glyph d="M520 836h350v-91h-350v-348h-90v348h-311v91h311v313h90v-313z" glyph-name="plus" horiz-adv-x="968" unicode="+"/><glyph d="M139 -440l-39 32q86 96 107.5 172t-4.5 201v76h221q0 -305 -285 -481z" glyph-name="comma" horiz-adv-x="524" unicode=","/><glyph d="M551 715h-451v90h451v-90z" glyph-name="hyphen" horiz-adv-x="651" unicode="-"/><glyph d="M223 -31q-57 0 -97 41t-40 96q0 57 40 97.5t97 40.5q55 0 96 -40t41 -98q0 -55 -41 -96t-96 -41z" glyph-name="period" horiz-adv-x="446" unicode="."/><glyph d="M190 -203h-90l531 2423h90z" glyph-name="slash" horiz-adv-x="819" unicode="/"/><glyph d="M791 -31q-145 0 -264 55.5t-197 148.5t-130.5 221t-76 266.5t-23.5 289.5q0 193 39 362t118 309t216 222t318 82q182 0 319 -82t216 -222t118 -309t39 -362q0 -190 -39 -360t-118 -312.5t-216 -225.5t-319 -83zM790.5 59q219.5 0 338 231.5t118.5 659.5q0 885 -456 885 q-455 0 -455 -885q0 -428 117.5 -659.5t337 -231.5z" glyph-name="zero" horiz-adv-x="1583" unicode="0"/><glyph d="M487 0h-235v1604l-102 -88l-50 81l342 271h45v-1868z" glyph-name="one" horiz-adv-x="587" unicode="1"/><glyph d="M1284 0l-1184 -2v244q0 92 57.5 195.5t149.5 199.5t204 195.5t222.5 196.5t202.5 188.5t149.5 185.5t57.5 174q0 109 -81 164t-210 55q-174 0 -362.5 -98.5t-282.5 -259.5h-62v268q291 197 629 197q236 0 392.5 -113t156.5 -332q0 -141 -115.5 -304t-280.5 -304 t-330 -271t-280.5 -247t-115.5 -193v-41h506q420 0 561 232h61z" glyph-name="two" horiz-adv-x="1429" unicode="2"/><glyph d="M659 -37q-322 0 -559 238l41 252h70q68 -197 197 -296.5t276 -99.5q166 0 291 114t125 294q0 182 -116 349t-343 282l453 581h-580q-111 0 -178.5 -25.5t-120.5 -111.5h-57v336h1046v-199l-309 -399q166 -104 291 -278.5t125 -348.5q0 -324 -190 -506t-462 -182z" glyph-name="three" horiz-adv-x="1411" unicode="3"/><glyph d="M1122 0h-235v659h-787v70l787 1165h235v-1144h271v-91h-271v-659zM887 1774l-686 -1024h686v1024z" glyph-name="four" horiz-adv-x="1492" unicode="4"/><glyph d="M682 -27q-156 0 -307.5 76t-274.5 227l90 209h62q68 -203 183.5 -308t242.5 -105q164 0 281.5 159.5t117.5 434.5q0 219 -134 378.5t-363 159.5q-143 0 -312 -71l-63 55l151 680h858v-336h-57q-53 86 -120.5 111.5t-178.5 25.5h-461l-96 -403l105 41q141 53 280 53 q279 0 453 -191.5t174 -490.5q0 -319 -184.5 -512t-446.5 -193z" glyph-name="five" horiz-adv-x="1413" unicode="5"/><glyph d="M805 -31q-328 0 -516.5 266.5t-188.5 704.5q0 455 228.5 706.5t570.5 251.5q217 0 432 -104l-41 -248h-61q-68 113 -175.5 177.5t-224.5 64.5q-92 0 -175 -40t-152.5 -122t-114.5 -221t-51 -320q84 143 216 216t284 73q117 0 227.5 -44t198.5 -126t141 -209t53 -280 q0 -182 -56.5 -327.5t-150.5 -235t-207.5 -136.5t-236.5 -47zM807 20q170 0 291 168t121 500q0 256 -135.5 401.5t-317.5 145.5q-145 0 -265 -96.5t-163 -276.5q14 -383 153.5 -612.5t315.5 -229.5z" glyph-name="six" horiz-adv-x="1556" unicode="6"/><glyph d="M481 0h-233v383q0 158 27.5 300t70.5 248.5t105.5 203t120 160t127 122t113.5 87t92 58t52 31.5v76h-520q-205 0 -278 -137h-58v336h969v-275q-55 -29 -120.5 -81t-151.5 -160.5t-154 -242.5t-117 -341t-51 -442z" glyph-name="seven" horiz-adv-x="1089" unicode="7"/><glyph d="M752 -31q-651 0 -652 545q0 213 146.5 345t341.5 161q-174 0 -277.5 104.5t-103.5 319.5q0 219 130 350t415 131q287 0 427 -133t140 -348q0 -213 -111.5 -318.5t-292.5 -105.5q193 -29 329 -160t136 -346q0 -287 -162.5 -416t-465.5 -129zM752 1061q90 0 157.5 39 t103.5 101.5t53 131t17 137.5q0 41 -4 77t-23.5 92.5t-52 96.5t-98 69.5t-153.5 29.5q-72 0 -127.5 -16.5t-89 -37t-58 -60.5t-35 -64.5t-16.5 -72.5t-6 -60.5v-53.5q0 -96 28.5 -184t107.5 -156.5t196 -68.5zM752 59q104 0 183 39t118 90.5t62.5 120t28.5 110.5t5 77 q0 76 -6 133t-29.5 125.5t-64.5 112.5t-117 74t-180 30q-113 0 -193 -31t-123 -74t-66.5 -112.5t-29.5 -125t-6 -132.5q0 -35 5 -77t30.5 -109.5t66.5 -120t123 -91.5t193 -39z" glyph-name="eight" horiz-adv-x="1480" unicode="8"/><glyph d="M750 1901q330 0 518 -266.5t188 -704.5q0 -455 -228.5 -707t-570.5 -252q-211 0 -432 105l41 248h62q66 -113 173 -177.5t226 -64.5q92 0 175 40t152.5 122t114.5 221t52 319q-84 -143 -216.5 -215.5t-283.5 -72.5q-117 0 -227.5 44t-198.5 126t-141.5 208.5t-53.5 280.5 q0 182 56.5 327.5t149.5 234.5t207 136.5t237 47.5zM748 1849q-168 0 -289 -169t-121 -498q0 -256 135 -401.5t318 -145.5q145 0 265 96t163 277q-14 383 -154.5 612t-316.5 229z" glyph-name="nine" horiz-adv-x="1556" unicode="9"/><glyph d="M223 709q-57 0 -97 41t-40 96q0 57 40 97t97 40q55 0 96 -40t41 -97q0 -55 -41 -96t-96 -41zM223 -31q-57 0 -97 41t-40 96q0 57 40 97.5t97 40.5q55 0 96 -40t41 -98q0 -55 -41 -96t-96 -41z" glyph-name="colon" horiz-adv-x="446" unicode=":"/><glyph d="M272 709q-57 0 -98 41t-41 96q0 57 41 97t98 40q55 0 95.5 -40t40.5 -97q0 -55 -40.5 -96t-95.5 -41zM92 -440l-37 32q86 94 107.5 171t-6.5 202v76h223q0 -305 -287 -481z" glyph-name="semicolon" horiz-adv-x="540" unicode=";"/><glyph d="M100 774l676 576v-107l-557 -475l557 -483v-107l-676 586v10z" glyph-name="less" horiz-adv-x="876" unicode="&lt;"/><glyph d="M852 877h-752v90h752v-90zM852 612h-752v90h752v-90z" glyph-name="equal" horiz-adv-x="952" unicode="="/><glyph d="M100 1243v107l676 -576v-10l-676 -586v107l557 483z" glyph-name="greater" horiz-adv-x="876" unicode=">"/><glyph d="M475 461h-96q0 170 37 306t90 225t106.5 169t90 179.5t36.5 213.5q-2 123 -62.5 190.5t-154.5 67.5q-102 0 -175 -93t-81 -265l-61 -2l-105 193q74 127 186.5 191.5t237.5 64.5q180 0 311.5 -101.5t131.5 -281.5q0 -86 -37 -169t-91.5 -146.5t-118 -143.5t-117.5 -158 t-91 -193.5t-37 -246.5zM457 -31q-57 0 -98.5 41t-41.5 96q0 57 41 97.5t99 40.5q55 0 95 -40t40 -98q0 -55 -40 -96t-95 -41z" glyph-name="question" horiz-adv-x="1067" unicode="?"/><glyph d="M854 -45q-219 0 -393 123t-267.5 327.5t-93.5 446.5q0 444 239 752.5t587 308.5q293 0 486.5 -212t193.5 -548q0 -274 -149.5 -502.5t-342.5 -228.5q-86 0 -130 44t-44 122q0 43 12 88h-10q-106 -195 -233 -195q-90 0 -135.5 72t-45.5 188q0 137 52.5 282.5t149.5 250 t208 104.5q55 0 91 -42t46 -103h4l43 129h133l-176 -649q-27 -98 -26 -156q0 -76 41 -76q45 0 110.5 87t119.5 251t54 338q0 317 -115.5 492.5t-336.5 175.5q-170 0 -307.5 -137.5t-210 -359.5t-72.5 -476q0 -346 152.5 -563t379.5 -217q217 0 424 204l47 -96 q-194 -225 -485 -225zM750 588q59 0 135 95t112 232l56 213q-25 119 -103 119q-94 0 -183 -152.5t-89 -375.5q0 -131 72 -131z" glyph-name="at" horiz-adv-x="1705" unicode="@"/><glyph d="M821 1868l553 -1868h-215v82q0 152 -59 354l-86 299h-518l-213 -735h-220l553 1868h205zM756 1634l-228 -788h455z" glyph-name="A" horiz-adv-x="1433" unicode="A"/><glyph d="M748 0h-650v1868h602q147 0 248 -67.5t141.5 -167t40.5 -220.5q0 -152 -65.5 -282t-165.5 -162v-15q162 -20 245 -140t83 -306q0 -195 -125 -351.5t-354 -156.5zM334 1757v-749h311q135 0 208 104.5t73 267.5q0 176 -89 276.5t-272 100.5h-231zM334 897v-786h239 q205 0 311.5 108.5t106.5 288.5t-94 284.5t-252 104.5h-311z" glyph-name="B" horiz-adv-x="1282" unicode="B"/><glyph d="M821 -25q-109 0 -211 38t-195 118t-164 194.5t-112 279.5t-41 362q0 444 208 683.5t544 239.5q188 0 337.5 -105.5t192.5 -295.5l-98 -193h-70q-12 238 -122.5 372t-262.5 134q-197 0 -345 -218t-148 -617q0 -422 153.5 -658.5t366.5 -236.5q121 0 232.5 132t148.5 367 h70l90 -194q-84 -176 -245 -289t-329 -113z" glyph-name="C" horiz-adv-x="1437" unicode="C"/><glyph d="M731 1868q281 0 436.5 -225.5t155.5 -673.5q0 -201 -38 -366t-102.5 -275.5t-151.5 -185t-181 -108.5t-195 -34h-557v1868h633zM334 104h65q135 0 234.5 19.5t189.5 76t145.5 150.5t87 249t31.5 370q0 428 -129 611t-430 183h-194v-1659z" glyph-name="D" horiz-adv-x="1366" unicode="D"/><glyph d="M1028 279h70l-56 -279h-944v1868h903l56 -279h-70q-74 109 -228.5 139.5t-424.5 28.5v-708h28q346 0 510 69h25l-2 -262h-23q-190 82 -510 82h-28v-827q295 -2 456.5 27.5t237.5 140.5z" glyph-name="E" horiz-adv-x="1159" unicode="E"/><glyph d="M1001 1868l56 -279h-70q-74 109 -228.5 139.5t-424.5 28.5v-708h28q346 0 510 69h25l-2 -262h-23q-190 82 -510 82h-28v-938h-236v1868h903z" glyph-name="F" horiz-adv-x="1099" unicode="F"/><glyph d="M766 -23q-125 0 -239.5 52.5t-213 157t-157 287.5t-58.5 421q0 459 220.5 731t531.5 272q106 0 202.5 -27.5t198 -108.5t164.5 -208l-41 -268h-71q-90 252 -216 376t-264 124q-199 0 -344 -229.5t-145 -589.5q0 -453 137 -666t338 -213t306.5 203t105.5 553l-283 47v72 h477l2 -963h-69l-56 328q-155 -351 -526 -351z" glyph-name="G" horiz-adv-x="1513" unicode="G"/><glyph d="M942 946v922h236v-1868h-236v836h-608v-836h-236v1868h236v-922h608z" glyph-name="H" horiz-adv-x="1273" unicode="H"/><glyph d="M375 0h-236v1868h236v-1868z" glyph-name="I" horiz-adv-x="512" unicode="I"/><glyph d="M588 -23q-141 0 -285.5 60.5t-265.5 171.5l41 260h67q80 -186 207 -300t248 -114q115 0 186.5 112t71.5 337v1364h236v-1297q0 -295 -143.5 -444.5t-362.5 -149.5z" glyph-name="J" horiz-adv-x="1230" unicode="J"/><glyph d="M334 0h-236v1868h236v-1110l416 577q92 127 146 240t67.5 161t27.5 132h264l-479 -656q23 -156 143.5 -387t247.5 -461.5t158 -363.5h-235q-31 102 -131.5 292.5t-198.5 388.5t-129 333l-297 -408v-606z" glyph-name="K" horiz-adv-x="1331" unicode="K"/><glyph d="M995 279h70l-55 -279h-912v1868h236v-1757q276 -2 431.5 28.5t229.5 139.5z" glyph-name="L" horiz-adv-x="1120" unicode="L"/><glyph d="M944 207l473 1661h264v-1868h-225v1616l-461 -1616h-209l-489 1507v-852q0 -225 13.5 -359t56.5 -235v-63l-263 2v61q82 195 82 594v1194l-6 19h223z" glyph-name="M" horiz-adv-x="1818" unicode="M"/><glyph d="M367 23v-25l-263 2v23q82 195 82 632v1213h238l754 -1630v972q0 444 -82 633v23l247 2v-25q-27 -68 -40 -180.5t-14 -191t-1 -261.5v-1210h-235l-756 1616v-961q0 -468 70 -632z" glyph-name="N" horiz-adv-x="1439" unicode="N"/><glyph d="M782 -31q-213 0 -371.5 134.5t-235.5 351.5t-77 481q0 172 46 341t129 309t216.5 227.5t293 87.5t293.5 -87.5t217 -227.5t129 -309t46 -341q0 -264 -76.5 -481t-235.5 -351.5t-374 -134.5zM782 80q131 0 224.5 76.5t140.5 209t66.5 270.5t19.5 300q0 156 -19.5 293 t-66.5 270t-140.5 212t-224.5 79q-449 0 -448 -854q0 -158 22.5 -299t70.5 -271t139 -208t216 -78z" glyph-name="O" horiz-adv-x="1564" unicode="O"/><glyph d="M764 1868q213 0 336 -153.5t123 -371.5q0 -250 -155 -391t-372 -141h-301v-811h-235v1868h604zM395 922h269q164 0 243.5 124.5t79.5 296.5q0 166 -80 290t-243 124h-269v-835z" glyph-name="P" horiz-adv-x="1257" unicode="P"/><glyph d="M885 -23q57 -98 189 -135t331 -37v-227q-236 0 -396.5 112.5t-220.5 278.5h-6q-213 0 -371.5 134.5t-235.5 351.5t-77 481q0 172 46 341t129 309t216.5 227.5t293 87.5t293.5 -87.5t217 -227.5t129 -309t46 -341q0 -244 -65.5 -446.5t-199.5 -342t-318 -170.5zM334 936 q0 -158 22.5 -299t70.5 -271t139 -208t216 -78q131 0 224.5 76.5t140.5 209t66.5 270.5t19.5 300q0 156 -19.5 293t-66.5 270t-140.5 212t-224.5 79q-448 0 -448 -854z" glyph-name="Q" horiz-adv-x="1564" unicode="Q"/><glyph d="M879 868q90 -23 140 -94.5t67.5 -170.5t28.5 -202.5t39 -216t81 -184.5h-227q-57 74 -82 188.5t-32 217t-25.5 197.5t-84 151.5t-186.5 56.5h-264v-811h-236v1868h611q213 0 332.5 -153.5t119.5 -371.5q0 -174 -75.5 -295t-206.5 -180zM334 1757v-835h268 q164 0 244 124.5t80 296.5q0 166 -80 290t-244 124h-268z" glyph-name="R" horiz-adv-x="1277" unicode="R"/><glyph d="M694 -31q-172 0 -340 80t-256 221l41 262h68q53 -205 194.5 -326.5t319.5 -121.5q180 0 270 91t90 198q0 92 -70.5 192.5t-176 183t-229.5 179t-229.5 180.5t-176 187.5t-70.5 199.5q0 193 145.5 299.5t358.5 106.5q174 0 335.5 -59.5t252.5 -166.5l-41 -239h-70 q-45 166 -196.5 264t-315.5 98q-125 0 -207 -59.5t-82 -169.5q0 -61 68.5 -139t171 -152t223.5 -167t225.5 -184t176 -207t75.5 -231q8 -229 -152.5 -374.5t-402.5 -145.5z" glyph-name="S" horiz-adv-x="1314" unicode="S"/><glyph d="M893 0h-236v1757q-225 -2 -363 -35.5t-204 -132.5h-70l56 279h1397l55 -279h-70q-66 98 -203 132t-362 36v-1757z" glyph-name="T" horiz-adv-x="1548" unicode="T"/><glyph d="M684 -31q-117 0 -218 34t-186 103.5t-133.5 193.5t-48.5 292v1276h236l2 -1354q0 -133 36 -226t95 -135t110.5 -57.5t106.5 -15.5q59 0 110.5 15.5t109 57.5t91 134t33.5 227v1354h236v-1276q0 -168 -47.5 -293t-131.5 -194.5t-183 -102.5t-218 -33z" glyph-name="U" horiz-adv-x="1359" unicode="U"/><glyph d="M731 0h-276l-439 1868h236l403 -1729l213 811l144 918h213l-205 -781z" glyph-name="V" horiz-adv-x="1247" unicode="V"/><glyph d="M1516 950l143 918h213l-205 -781l-289 -1087h-276l-180 766l-203 -766h-279l-438 1868h236l405 -1733l225 858l-204 875h235l404 -1729z" glyph-name="W" horiz-adv-x="1888" unicode="W"/><glyph d="M313 0h-288l598 881l-529 987h236l420 -787q213 342 285.5 499t72.5 288h289l-588 -895l518 -973h-235l-414 774l-127 -194q-74 -111 -157 -292.5t-81 -287.5z" glyph-name="X" horiz-adv-x="1425" unicode="X"/><glyph d="M948 1868h213l-450 -1043v-825h-236v825l-459 1043h236l401 -916l193 428q61 134 102 488z" glyph-name="Y" horiz-adv-x="1114" unicode="Y"/><glyph d="M1266 0h-1229l979 1757h-158q-207 2 -315.5 -4t-227 -45t-172.5 -119h-67l55 279h1192l-977 -1757h326q233 2 372.5 34.5t206.5 133.5h70z" glyph-name="Z" horiz-adv-x="1316" unicode="Z"/><glyph d="M514 -297v-90h-432v2427h432v-90h-238v-2247h238z" glyph-name="bracketleft" horiz-adv-x="614" unicode="["/><glyph d="M190 2220l531 -2423h-90l-531 2423h90z" glyph-name="backslash" horiz-adv-x="819" unicode="\"/><glyph d="M532 -387h-432v90h238v2247h-238v90h432v-2427z" glyph-name="bracketright" horiz-adv-x="632" unicode="]"/><glyph d="M621 1581l380 -879h-98l-323 748l-383 -748h-97l451 879h70z" glyph-name="asciicircum" horiz-adv-x="1101" unicode="^"/><glyph d="M903 -82h-790v90h790v-90z" glyph-name="underscore" horiz-adv-x="956" unicode="_"/><glyph d="M756 1579q162 0 264 -84t102 -246v-1249h-235v311q-70 -176 -186.5 -258t-247.5 -82q-168 0 -280 120t-112 329q0 154 42 264.5t107.5 166.5t157 98t177.5 63.5t182 60.5t160 88v92q0 109 -58.5 168.5t-146.5 59.5q-111 0 -214 -90.5t-140 -247.5h-70l-41 229 q254 207 539 207zM510 109q109 0 214 112.5t163 284.5v545q-72 -47 -173.5 -90t-166 -72t-127 -79t-93 -138t-30.5 -221q0 -162 58.5 -252t154.5 -90z" glyph-name="a" horiz-adv-x="1222" unicode="a"/><glyph d="M647 -37q-59 0 -245.5 27.5t-303.5 9.5v1868h236v-727h6q170 442 432 442q190 0 317.5 -210t127.5 -554q0 -401 -159 -628.5t-411 -227.5zM582 76q186 0 295.5 186.5t109.5 548.5q0 293 -73.5 461t-188.5 168q-106 0 -210.5 -145.5t-180.5 -395.5v-780q14 -4 73.5 -17.5 t98.5 -19.5t76 -6z" glyph-name="b" horiz-adv-x="1310" unicode="b"/><glyph d="M618 -29q-238 0 -407.5 223.5t-169.5 614.5q0 354 176 564t416 210q264 0 416 -256l-91 -178h-67q-10 166 -83 256t-175 90q-141 0 -251 -177t-110 -493q0 -369 106.5 -569.5t256.5 -200.5q111 0 205 101.5t147 289.5h62l41 -225q-220 -250 -472 -250z" glyph-name="c" horiz-adv-x="1155" unicode="c"/><glyph d="M930 1522v346h235v-1868h-233v221q-80 -121 -187.5 -185.5t-220.5 -64.5q-197 0 -332 200t-135 587q0 399 165 621.5t413 222.5q148 0 295 -80zM565 100q96 0 197.5 78t169.5 193l-2 1026q-147 86 -273 86q-180 0 -282.5 -186.5t-102.5 -538.5q0 -344 82 -501t211 -157z " glyph-name="d" horiz-adv-x="1261" unicode="d"/><glyph d="M1128 467h76l41 -234q-55 -109 -194.5 -185.5t-327.5 -76.5q-125 0 -241.5 53.5t-212 154t-153 262t-57.5 362.5q0 352 200 565t480 213q254 0 380 -124t126 -306q0 -190 -123 -339.5t-319.5 -227.5t-427.5 -78h-45q51 -203 166.5 -316.5t248.5 -113.5q123 0 226.5 99 t156.5 292zM766 1483q-178 0 -324.5 -186.5t-146.5 -493.5q0 -102 16 -205q193 2 339.5 52t227 131t119.5 169t39 178q0 174 -76.5 264.5t-193.5 90.5z" glyph-name="e" horiz-adv-x="1300" unicode="e"/><glyph d="M518 0h-235v1440h-185v110h185q-84 133 -84 252q0 139 105.5 225.5t250.5 86.5q139 0 246 -80l-62 -158h-69q-84 115 -183 115q-47 0 -76.5 -33t-29.5 -92q0 -129 133 -316h229v-110h-225v-1440z" glyph-name="f" horiz-adv-x="774" unicode="f"/><glyph d="M733 203q193 -35 310.5 -131.5t117.5 -256t-149.5 -271t-448.5 -111.5q-197 0 -339 76.5t-187 148.5l29 250h59q49 -186 182 -284.5t287 -98.5q141 0 240.5 80t99.5 219q0 143 -114.5 212.5t-313.5 69.5q-100 0 -195 -14v111q39 6 131 14q-403 102 -403 655 q0 344 157.5 521.5t432.5 177.5q139 0 262 -60q86 20 141 105.5t55 171.5h43l84 -178q-59 -141 -249 -142h-2q254 -182 254 -596q0 -299 -134.5 -467.5t-349.5 -201.5zM274 872q0 -301 80 -442t275 -141q352 0 352 583q0 295 -89 450t-263 155q-193 0 -274 -150t-81 -455z " glyph-name="g" horiz-adv-x="1267" unicode="g"/><glyph d="M1180 1188l2 -1188h-236v1114q0 299 -162 297q-131 0 -301 -186q-86 -94 -149 -205v-1020h-236v1868h236v-678q98 164 257 273.5t300 109.5q133 0 211 -93t78 -292z" glyph-name="h" horiz-adv-x="1277" unicode="h"/><glyph d="M254 1743q-57 0 -97 40t-40 95q0 57 40 98t97 41q55 0 96 -41t41 -98q0 -55 -41 -95t-96 -40zM373 0h-236v1550h236v-1550z" glyph-name="i" horiz-adv-x="505" unicode="i"/><glyph d="M260 1743q-57 0 -98 40t-41 95q0 57 41 98t98 41q55 0 95 -41t40 -98q0 -55 -40 -95t-95 -40zM-315 -432l-84 219l77 43q82 -98 169 -141t150.5 -30t105.5 65.5t42 130.5v1697h236v-1544q0 -137 -56.5 -241.5t-151.5 -157.5t-222 -67.5t-266 26.5z" glyph-name="j" horiz-adv-x="520" unicode="j"/><glyph d="M334 2h-236v1868h236v-1055l274 311q285 319 271 424h221l-424 -477q27 -55 136.5 -250.5t188 -385t142.5 -435.5h-236q-51 219 -125.5 393t-152.5 312.5t-105 205.5l-190 -215v-696z" glyph-name="k" horiz-adv-x="1177" unicode="k"/><glyph d="M334 0h-236v1868h236v-1868z" glyph-name="l" horiz-adv-x="430" unicode="l"/><glyph d="M334 0h-236v1538h236v-453q111 242 258 368t291 126q150 0 230.5 -115.5t84.5 -339.5q111 225 253 340t280 115q141 0 230 -114.5t89 -317.5v-1147h-235v1098q0 174 -46.5 259t-123.5 85q-104 0 -232.5 -140.5t-212.5 -347.5l2 -954h-235v1098q0 174 -47.5 257t-126.5 83 q-111 0 -246 -150.5t-213 -374.5v-913z" glyph-name="m" horiz-adv-x="2146" unicode="m"/><glyph d="M1180 1188l2 -1188h-236v1231q0 221 -131 221q-104 0 -246.5 -133t-234.5 -313v-1006h-236v1550h236v-368q94 170 255 280.5t306 110.5q127 0 206 -95t79 -290z" glyph-name="n" horiz-adv-x="1277" unicode="n"/><glyph d="M686 -31q-276 0 -432 196.5t-156 596.5q0 403 157 611t431 208q254 0 422 -212t168 -607q0 -393 -167 -593t-423 -200zM686 80q354 0 354 682q0 346 -89 527t-265 181q-190 0 -271 -175t-81 -533q0 -352 79.5 -517t272.5 -165z" glyph-name="o" horiz-adv-x="1372" unicode="o"/><glyph d="M334 -438h-236v1988h236v-366q57 184 172 292.5t254 108.5q209 0 338 -192.5t129 -511.5q0 -430 -166 -665.5t-395 -235.5q-96 0 -184.5 51t-147.5 149v-618zM606 123q166 0 275.5 186.5t109.5 532.5q0 268 -82 415.5t-202 147.5q-115 0 -212.5 -110.5t-160.5 -346.5 v-635q125 -190 272 -190z" glyph-name="p" horiz-adv-x="1323" unicode="p"/><glyph d="M1229 -449h-240v662q-193 -244 -403 -244q-213 0 -352.5 222.5t-139.5 584.5q0 412 147.5 609.5t370.5 197.5q82 0 177.5 -16.5t157 -31.5t129 -14t116.5 29h37v-1999zM989 328v1081q-326 147 -492.5 -19.5t-166.5 -613.5q0 -319 90 -501.5t243.5 -173t325.5 226.5z" glyph-name="q" horiz-adv-x="1327" unicode="q"/><glyph d="M334 0h-236v1550h236v-448q59 53 138 147t129 151.5t132 103.5t176 46v-223q-272 0 -575 -356v-971z" glyph-name="r" horiz-adv-x="970" unicode="r"/><glyph d="M608 -31q-143 0 -279 70t-223 201l41 229h89q33 -197 151.5 -306.5t253.5 -109.5q117 0 199 77t69 212q-8 86 -68.5 164t-145.5 133t-185 117.5t-186 119t-148.5 136.5t-73.5 168q-4 33 -4 45q0 174 135.5 266t319.5 92q154 0 293 -58.5t196 -156.5l-41 -225h-90 q-37 176 -148.5 268t-238.5 92q-109 0 -184.5 -59.5t-75.5 -153.5q0 -57 57.5 -118.5t143.5 -111.5t188.5 -118t191.5 -135.5t152.5 -165.5t71.5 -207q2 -18 2 -51q-4 -199 -140.5 -306.5t-322.5 -107.5z" glyph-name="s" horiz-adv-x="1132" unicode="s"/><glyph d="M526 -29q-156 0 -261 121t-105 344v1004h-123v110h123q55 35 105 196t50 263h78l2 -459h350v-110h-350v-996q0 -197 48.5 -294t121.5 -97q86 0 169 119t108 297h69l41 -240q-84 -125 -197.5 -191.5t-228.5 -66.5z" glyph-name="t" horiz-adv-x="985" unicode="t"/><glyph d="M541 -35q-207 0 -325 133t-118 387v1067h236v-1120q0 -193 61.5 -281t189.5 -92t326 50v1441h236v-1550h-27q-129 20 -198.5 12t-187 -27.5t-193.5 -19.5z" glyph-name="u" horiz-adv-x="1243" unicode="u"/><glyph d="M895 1550h223l-456 -1550h-170l-455 1550h235l367 -1249l174 571q82 266 82 678z" glyph-name="v" horiz-adv-x="1112" unicode="v"/><glyph d="M1724 1550h218l-459 -1550h-162l-344 1153l-342 -1153h-162l-457 1550h234l364 -1235l232 779q94 324 43 456h209l364 -1231l140 467q43 143 61 210t44 167.5t32 155.5t3.5 118.5t-18.5 112.5z" glyph-name="w" horiz-adv-x="1953" unicode="w"/><glyph d="M784 877l531 -877h-256l-418 674l-80 -115q-70 -98 -135.5 -276.5t-65.5 -282.5h-297l529 754l-486 784h277l352 -582l58 82q213 281 213 512h297l-410 -518z" glyph-name="x" horiz-adv-x="1273" unicode="x"/><glyph d="M842 1550h229l-369 -1341q8 -51 9 -115q0 -250 -142.5 -404.5t-361.5 -154.5q-117 0 -238 47l-78 225l78 41q150 -188 303 -188q104 0 171 94t67 250q0 133 -49 279l-445 1267h236l393 -1118l121 436q49 180 62.5 314.5t13.5 367.5z" glyph-name="y" horiz-adv-x="1093" unicode="y"/><glyph d="M1057 0h-1041l785 1440q-150 0 -235 -3t-189.5 -17.5t-170 -51.5t-106.5 -96h-67l55 278h1006l-783 -1439h174q225 2 357.5 35.5t199.5 132.5h70z" glyph-name="z" horiz-adv-x="1126" unicode="z"/><glyph d="M727 -240v-79q-78 0 -153.5 26.5t-153.5 94t-137.5 168t-96 262t-36.5 362.5q0 215 -68 258q68 43 68 258q0 201 36.5 362.5t96 262t137.5 168t153.5 94t153.5 26.5v-79q-47 0 -75.5 -3.5t-86 -33t-92.5 -84t-63.5 -170t-28.5 -277.5q0 -190 -57.5 -333.5t-112.5 -190.5 q55 -47 112.5 -190.5t57.5 -333.5q0 -162 28.5 -278t63.5 -170t92.5 -83.5t86 -33t75.5 -3.5z" glyph-name="braceleft" horiz-adv-x="825" unicode="{"/><glyph d="M186 -354h-86v2222h86v-2222z" glyph-name="bar" horiz-adv-x="286" unicode="|"/><glyph d="M100 -319v79q47 0 76 3.5t86 33t92 83.5t63.5 170t28.5 278q0 190 57.5 333.5t110.5 190.5q-53 47 -110.5 190.5t-57.5 333.5q0 162 -28.5 277.5t-63.5 170t-92 84t-86 33t-76 3.5v79q76 0 152 -26.5t153.5 -94t137 -168t96.5 -262t37 -362.5q0 -215 67 -258 q-68 -43 -67 -258q0 -201 -37 -362.5t-96.5 -262t-137 -168t-153.5 -94t-152 -26.5z" glyph-name="braceright" horiz-adv-x="843" unicode="}"/><glyph d="M838 473q-47 0 -106.5 26.5t-116 66.5t-111.5 83q-55 45 -84 64.5t-74 47t-68.5 26.5t-51 -13t-40 -56t-16.5 -116h-70q0 311 189 311q92 0 286 -147q174 -133 222 -158q135 -70 164 72q8 45 8 113h69q1 -320 -200 -320z" glyph-name="asciitilde" horiz-adv-x="1138" unicode="~"/><glyph d="M246 1548q55 0 95 -41t40 -96q0 -57 -40 -97t-95 -40q-57 0 -98.5 40t-41.5 97q0 55 41.5 96t98.5 41zM199 1141h90q0 -412 18.5 -688.5t36.5 -432t18 -276.5q0 -66 -34.5 -102.5t-81.5 -36.5q-49 0 -84 36.5t-35 102.5q0 88 36 467t36 930z" glyph-name="exclamdown" horiz-adv-x="475" unicode="¡"/><glyph d="M1051 446h63l41 -225q-219 -250 -473 -250q-61 0 -123 17l-31 -164h-86l35 194q-166 84 -269.5 287t-103.5 504q0 354 176.5 564t415.5 210q25 0 66 -4l33 178h86l-37 -198q168 -55 270 -232l-90 -178h-70q-12 213 -129 303l-247 -1358q57 -39 120 -39q111 0 206.5 102.5 t146.5 288.5zM336 825q0 -465 168 -663l241 1327q-25 6 -49 6q-141 0 -250.5 -177.5t-109.5 -492.5z" glyph-name="cent" horiz-adv-x="1249" unicode="¢"/><glyph d="M1157 287h62l-56 -287h-1063q174 231 174 733v29h-143v88h141q-6 145 -20 276q-6 70 -6 134q0 293 133 465.5t342 172.5q242 0 496 -223l-41 -239h-62q-68 182 -171 283.5t-208 101.5q-119 0 -195.5 -132.5t-76.5 -381.5q0 -90 8 -172q14 -135 21 -285h391v-88h-387 q2 -41 2 -119q0 -362 -78 -524q631 8 737 168z" glyph-name="sterling" horiz-adv-x="1331" unicode="£"/><glyph d="M246 406l-111 -162l-35 41l113 164q-106 152 -107 360q0 205 105 358l-111 164l35 39l109 -160q123 133 276 133q162 0 281 -141l114 168l35 -39l-116 -172q98 -147 98 -350q0 -197 -98 -354l116 -170l-35 -41l-114 168q-121 -141 -281 -142q-155 1 -274 136zM520.5 352 q143.5 0 246.5 134.5t103 322.5t-103 321.5t-246.5 133.5t-247 -133.5t-103.5 -321.5t103.5 -322.5t247 -134.5z" glyph-name="currency" horiz-adv-x="1050" unicode="¤"/><glyph d="M1032 1868h213l-418 -965h222v-90h-254v-176h254v-90h-254v-547h-236v547h-262v90h262v176h-262v90h227l-424 965h236l401 -916l193 428q61 134 102 488z" glyph-name="yen" horiz-adv-x="1345" unicode="¥"/><glyph d="M190 956h-90v912h90v-912zM190 -344h-90v911h90v-911z" glyph-name="brokenbar" horiz-adv-x="288" unicode="¦"/><glyph d="M645 -121q-141 0 -276.5 57.5t-225.5 167.5l41 203h88q33 -166 154 -260t254 -94q111 0 185.5 62.5t74.5 174.5q0 70 -80 138.5t-194.5 129t-229 127t-194.5 159t-80 196.5q0 72 35 143q-96 92 -97 209q0 145 132.5 225t318.5 80q156 0 294 -48t195 -130l-41 -205h-86 q-37 152 -149.5 231t-243.5 79q-106 0 -182 -50.5t-76 -130.5q0 -55 82 -111t197.5 -111.5t231.5 -121t198 -166t82 -219.5q0 -86 -41 -163q86 -96 86 -209q0 -170 -132.5 -266.5t-320.5 -96.5zM909 545q4 78 -64.5 146.5t-159.5 111.5t-217 107.5t-198 117.5 q-14 -63 5.5 -103t79 -73t133 -62.5t192 -95t229.5 -149.5z" glyph-name="section" horiz-adv-x="1198" unicode="§"/><glyph d="M833.5 23q-317.5 0 -525.5 272t-208 665.5t208 665.5t525.5 272t525.5 -272t208 -665.5t-208 -665.5t-525.5 -272zM823 141q301 0 471 222.5t170 597t-170 597t-471 222.5q-299 0 -459.5 -220.5t-160.5 -599t160.5 -599t459.5 -220.5zM848 426q-152 0 -259.5 141.5 t-107.5 388.5q0 225 112 358.5t263 133.5q166 0 264 -162l-57 -112h-43q-6 104 -52 160.5t-112 56.5q-90 0 -158.5 -112t-68.5 -310q0 -236 67.5 -362t161.5 -126q70 0 130.5 63.5t92.5 182.5h39l27 -141q-139 -160 -299 -160z" glyph-name="copyright" horiz-adv-x="1667" unicode="©"/><glyph d="M541 1886q113 0 182.5 -46t69.5 -136v-684h-162v172q-47 -96 -127 -142t-170 -46q-115 0 -190.5 65.5t-75.5 179.5q0 100 38.5 166t105.5 96.5t135.5 49t151.5 42t132 54.5v49q0 59 -40 92t-99 33q-76 0 -146 -49t-96 -135h-47l-29 125q177 114 367 114zM375 1079 q74 0 144.5 61.5t111.5 153.5v301q-49 -25 -119 -48t-113 -39.5t-86 -44t-63.5 -75t-20.5 -120.5q0 -90 40 -139.5t106 -49.5z" glyph-name="ordfeminine" horiz-adv-x="972" unicode="ª"/><glyph d="M590 246l-66 -41l-450 514l450 518l66 -41l-420 -477zM1028 246l-65 -41l-451 514l451 518l65 -41l-420 -477z" glyph-name="guillemotleft" horiz-adv-x="1128" unicode="«"/><glyph d="M627 514h-518v90h518v-90z" glyph-name="uni00AD" horiz-adv-x="698" unicode="­"/><glyph d="M559 1855q199 0 329 -168.5t130 -416.5q0 -244 -130 -414t-329 -170t-329 170t-130 414q0 248 130 416.5t329 168.5zM559 762q168 0 283.5 149.5t113.5 358.5q0 211 -114.5 359.5t-282.5 148.5t-282.5 -148.5t-114.5 -359.5q0 -209 114.5 -358.5t282.5 -149.5zM633 1270 q49 -12 65.5 -67.5t25.5 -130.5t36 -111h-82q-25 31 -34 85t-10 97t-24.5 74.5t-77.5 31.5h-94v-288h-84v665h217q76 0 119 -55t43 -133q0 -123 -100 -168zM438 1585v-297h97q57 0 85.5 44t28.5 106q0 59 -28.5 103t-85.5 44h-97z" glyph-name="registered" horiz-adv-x="1118" unicode="®"/><glyph d="M354.5 1249q-102.5 0 -178.5 86t-76 240q0 152 76 236.5t178.5 84.5t178 -85t75.5 -236q0 -154 -75.5 -240t-178 -86zM352 1331q78 0 134.5 63.5t56.5 180.5q0 115 -55.5 177.5t-133.5 62.5t-134 -62.5t-56 -177.5q0 -117 56 -180.5t132 -63.5z" glyph-name="degree" horiz-adv-x="708" unicode="°"/><glyph d="M520 1149v-313h350v-91h-350v-348h-90v348h-311v91h311v313h90zM852 70h-752v90h752v-90z" glyph-name="plusminus" horiz-adv-x="968" unicode="±"/><glyph d="M692 950h-592v121q0 76 82 172t179.5 173t179.5 167t82 156q0 53 -41 81.5t-105 28.5q-88 0 -182 -50t-141 -130h-31v135q143 96 315 97q117 0 196 -55.5t79 -166.5q0 -86 -88 -190.5t-193.5 -183t-193.5 -159.5t-88 -126v-21h253q209 0 281 115h31z" glyph-name="uni00B2" horiz-adv-x="813" unicode="²"/><glyph d="M381 911q-162 0 -281 119l21 125h35q33 -98 97 -147.5t138 -49.5q84 0 146.5 56.5t62.5 146.5t-58.5 175t-170.5 143l227 290h-291q-53 0 -88 -13t-61 -56h-29v168h522v-99l-153 -200q84 -53 146.5 -139.5t62.5 -174.5q0 -162 -95.5 -253t-230.5 -91z" glyph-name="uni00B3" horiz-adv-x="804" unicode="³"/><glyph d="M641 0h-92v1221q-211 0 -330 135t-119 317q0 178 111 308t309 130h467v-40h-133v-2071h-92v2071h-121v-2071z" glyph-name="paragraph" horiz-adv-x="1087" unicode="¶"/><glyph d="M223 752q-57 0 -97 41t-40 96q0 57 40 97t97 40q55 0 96 -40t41 -97q0 -55 -41 -96t-96 -41z" glyph-name="periodcentered" horiz-adv-x="446" unicode="·"/><glyph d="M293 934h-117v803l-51 -45l-25 41l170 135h23v-934z" glyph-name="uni00B9" horiz-adv-x="393" unicode="¹"/><glyph d="M481 975q-182 0 -285.5 110.5t-103.5 335.5q0 229 104.5 346t284.5 117q168 0 278.5 -118.5t110.5 -344.5q0 -221 -109.5 -333.5t-279.5 -112.5zM481 1036q233 0 234 385q0 401 -234 402q-127 0 -180 -99.5t-53 -302.5q0 -199 53 -292t180 -93z" glyph-name="ordmasculine" horiz-adv-x="921" unicode="º"/><glyph d="M600 719l-450 -514l-68 41l420 473l-420 477l68 41zM1038 719l-450 -514l-68 41l420 473l-420 477l68 41z" glyph-name="guillemotright" horiz-adv-x="1136" unicode="»"/><glyph d="M293 934h-117v803l-51 -45l-25 41l170 135h23v-934zM311 0h-47l703 1550h47zM1028 39q-162 0 -280 119l20 125h35q33 -98 97.5 -147.5t137.5 -49.5q84 0 146.5 56.5t62.5 146.5t-58.5 175t-170.5 142l227 291h-291q-53 0 -88 -13.5t-61 -56.5h-29v168h522v-98l-153 -201 q84 -53 146.5 -139t62.5 -174q0 -162 -95.5 -253t-230.5 -91z" glyph-name="onequarter" horiz-adv-x="1452" unicode="¼"/><glyph d="M293 1868v-934h-117v803l-51 -45l-25 41l170 135h23zM1204 211h31l-23 -164h-591v121q0 63 54 137t131 141.5t152.5 133t130 133t54.5 123.5q0 53 -41 81.5t-105 28.5q-88 0 -182 -50t-141 -130h-17l-346 -766h-47l379 836v65q12 8 41 25l283 624h47l-271 -596 q104 43 215 43q117 0 196 -55t79 -166q0 -86 -88 -190.5t-193.5 -183t-193.5 -159.5t-88 -126v-21h254q208 0 280 115z" glyph-name="onehalf" horiz-adv-x="1333" unicode="½"/><glyph d="M367 963q-154 0 -267 112l21 119h33q33 -92 93 -139t130 -47q80 0 138 53t58 139t-54 165t-163 134l215 275h-274q-53 0 -86 -12.5t-57 -53.5h-27v160h498v-94l-148 -189q80 -51 138.5 -133t58.5 -164q0 -154 -90 -239.5t-217 -85.5zM494 0h-48l703 1550h47zM1276 -23 h-119v330h-393v35l393 584h119v-574h135v-45h-135v-330zM1157 864l-342 -512h342v512z" glyph-name="threequarters" horiz-adv-x="1511" unicode="¾"/><glyph d="M610 1659q57 0 98.5 -41t41.5 -96q0 -57 -41 -97.5t-99 -40.5q-55 0 -95 40t-40 98q0 55 40 96t95 41zM590 1169h98q0 -170 -38 -307t-91 -225t-106.5 -169t-90 -180.5t-36.5 -213.5q2 -123 63.5 -190.5t155.5 -67.5q102 0 174 93t80 265l61 4l107 -194 q-74 -127 -186.5 -191.5t-239.5 -64.5q-180 0 -310.5 101t-130.5 282q0 86 36 168.5t91.5 146t118 143.5t117.5 159t91 194.5t36 246.5z" glyph-name="questiondown" horiz-adv-x="1067" unicode="¿"/><glyph d="M719 2437l225 -442h-67l-388 403v39h230zM821 1868l553 -1868h-215v82q0 152 -59 354l-86 299h-518l-213 -735h-220l553 1868h205zM756 1634l-228 -788h455z" glyph-name="Agrave" horiz-adv-x="1433" unicode="À"/><glyph d="M944 2454v-39l-385 -404h-70l226 443h229zM821 1868l553 -1868h-215v82q0 152 -59 354l-86 299h-518l-213 -735h-220l553 1868h205zM756 1634l-228 -788h455z" glyph-name="Aacute" horiz-adv-x="1433" unicode="Á"/><glyph d="M963 1927l-246 361l-250 -361h-72l230 514h180l231 -514h-73zM821 1868l553 -1868h-215v82q0 152 -59 354l-86 299h-518l-213 -735h-220l553 1868h205zM756 1634l-228 -788h455z" glyph-name="Acircumflex" horiz-adv-x="1433" unicode="Â"/><glyph d="M477 2226q-43 0 -61.5 -49t-9.5 -119h-72q0 82 19.5 138.5t51 80t56 31.5t49.5 8q84 0 255 -98t220 -98q63 0 39 161h74q0 -158 -38 -214t-110 -56q-68 0 -243 107.5t-230 107.5zM821 1868l553 -1868h-215v82q0 152 -59 354l-86 299h-518l-213 -735h-220l553 1868h205z M756 1634l-228 -788h455z" glyph-name="Atilde" horiz-adv-x="1433" unicode="Ã"/><glyph d="M569 2087q-45 0 -78.5 33.5t-33.5 79.5q0 47 32.5 80.5t79.5 33.5t80 -33.5t33 -80.5q0 -45 -34 -79t-79 -34zM862 2087q-47 0 -80.5 33.5t-33.5 79.5q0 47 33.5 80.5t80.5 33.5t80 -33.5t33 -80.5q0 -45 -34 -79t-79 -34zM821 1868l553 -1868h-215v82q0 152 -59 354 l-86 299h-518l-213 -735h-220l553 1868h205zM756 1634l-228 -788h455z" glyph-name="Adieresis" horiz-adv-x="1433" unicode="Ä"/><glyph d="M719 1929q-82 0 -135.5 65.5t-53.5 162t52.5 161t136.5 64.5q82 0 133 -64.5t51 -161t-51 -162t-133 -65.5zM719 2310q-41 0 -54.5 -36t-13.5 -117q0 -45 1 -68t7.5 -46.5t20.5 -32.5t39 -9q31 0 46 20.5t17 47t2 88.5q0 84 -12 118.5t-53 34.5zM821 1868l553 -1868h-215 v82q0 152 -59 354l-86 299h-518l-213 -735h-220l553 1868h205zM756 1634l-228 -788h455z" glyph-name="Aring" horiz-adv-x="1433" unicode="Å"/><glyph d="M1765 279h70l-55 -279h-946v807h-240l-283 -807h-219l660 1868h987l55 -279h-70q-74 109 -229.5 139.5t-425.5 28.5v-708h31q346 0 510 69h24l-2 -262h-22q-190 82 -510 82h-31v-827q147 0 232 3t188.5 17t169 51.5t106.5 96.5zM834 1493l-207 -590h207v590z" glyph-name="AE" horiz-adv-x="1906" unicode="Æ"/><glyph d="M1305 571l90 -194q-82 -174 -239 -285.5t-322 -116.5l-46 -135q227 -33 283 -178q45 -111 -33 -211q-84 -109 -233 -94q-74 8 -150 49l21 55q129 -51 205 25q61 63 30 149q-39 111 -204 132l57 210q-129 12 -246 80t-212 186.5t-151.5 306t-56.5 417.5q0 444 208 683.5 t544 239.5q188 0 337.5 -105.5t192.5 -295.5l-98 -193h-70q-12 238 -122.5 372t-262.5 134q-197 0 -345 -218t-148 -617q0 -422 153.5 -658.5t366.5 -236.5q121 0 232.5 132t148.5 367h70z" glyph-name="Ccedilla" horiz-adv-x="1437" unicode="Ç"/><glyph d="M582 2437l225 -442h-68l-387 403v39h230zM1028 279h70l-56 -279h-944v1868h903l56 -279h-70q-74 109 -228.5 139.5t-424.5 28.5v-708h28q346 0 510 69h25l-2 -262h-23q-190 82 -510 82h-28v-827q295 -2 456.5 27.5t237.5 140.5z" glyph-name="Egrave" horiz-adv-x="1159" unicode="È"/><glyph d="M807 2454v-39l-385 -404h-70l226 443h229zM1028 279h70l-56 -279h-944v1868h903l56 -279h-70q-74 109 -228.5 139.5t-424.5 28.5v-708h28q346 0 510 69h25l-2 -262h-23q-190 82 -510 82h-28v-827q295 -2 456.5 27.5t237.5 140.5z" glyph-name="Eacute" horiz-adv-x="1159" unicode="É"/><glyph d="M827 1927l-245 361l-250 -361h-72l229 514h181l231 -514h-74zM1028 279h70l-56 -279h-944v1868h903l56 -279h-70q-74 109 -228.5 139.5t-424.5 28.5v-708h28q346 0 510 69h25l-2 -262h-23q-190 82 -510 82h-28v-827q295 -2 456.5 27.5t237.5 140.5z" glyph-name="Ecircumflex" horiz-adv-x="1159" unicode="Ê"/><glyph d="M434 2087q-45 0 -78.5 33.5t-33.5 79.5q0 47 32.5 80.5t79.5 33.5t80 -33.5t33 -80.5q0 -45 -34 -79t-79 -34zM727 2087q-47 0 -81 33.5t-34 79.5q0 47 34 80.5t81 33.5t80 -33.5t33 -80.5q0 -45 -34 -79t-79 -34zM1028 279h70l-56 -279h-944v1868h903l56 -279h-70 q-74 109 -228.5 139.5t-424.5 28.5v-708h28q346 0 510 69h25l-2 -262h-23q-190 82 -510 82h-28v-827q295 -2 456.5 27.5t237.5 140.5z" glyph-name="Edieresis" horiz-adv-x="1159" unicode="Ë"/><glyph d="M481 1995h-67l-387 403v39h229zM375 0h-236v1868h236v-1868z" glyph-name="Igrave" horiz-adv-x="512" unicode="Ì"/><glyph d="M481 2415l-385 -404h-69l225 443h229v-39zM375 0h-236v1868h236v-1868z" glyph-name="Iacute" horiz-adv-x="512" unicode="Í"/><glyph d="M6 1927h-72l230 514h180l231 -514h-73l-246 361zM375 0h-236v1868h236v-1868z" glyph-name="Icircumflex" horiz-adv-x="512" unicode="Î"/><glyph d="M108.5 2087q-45.5 0 -79 33.5t-33.5 79.5q0 47 32.5 80.5t80 33.5t80 -33.5t32.5 -80.5q0 -45 -33.5 -79t-79 -34zM401 2087q-47 0 -80.5 33.5t-33.5 79.5q0 47 33.5 80.5t81 33.5t80 -33.5t32.5 -80.5q0 -45 -34 -79t-79 -34zM375 0h-236v1868h236v-1868z" glyph-name="Idieresis" horiz-adv-x="512" unicode="Ï"/><glyph d="M731 1868q281 0 436.5 -225.5t155.5 -673.5q0 -201 -38 -366t-102.5 -275.5t-151.5 -185t-181 -108.5t-195 -34h-557v889h-116v90h116v889h633zM334 104h65q135 0 234.5 19.5t189.5 76t145.5 150.5t87 249t31.5 370q0 428 -129 611t-430 183h-194v-784h123v-90h-123v-785 z" glyph-name="Eth" horiz-adv-x="1366" unicode="Ð"/><glyph d="M954 2011q-68 0 -242.5 107.5t-230.5 107.5q-43 0 -61.5 -49t-9.5 -119h-72q0 82 19.5 138.5t51 80t56 31.5t49.5 8q84 0 255 -98t220 -98q63 0 39 161h74q0 -158 -38 -214t-110 -56zM367 23v-25l-263 2v23q82 195 82 632v1213h238l754 -1630v972q0 444 -82 633v23l247 2 v-25q-27 -68 -40 -180.5t-14 -191t-1 -261.5v-1210h-235l-756 1616v-961q0 -468 70 -632z" glyph-name="Ntilde" horiz-adv-x="1439" unicode="Ñ"/><glyph d="M1010 1995h-68l-387 403v39h229zM782 -31q-213 0 -371.5 134.5t-235.5 351.5t-77 481q0 172 46 341t129 309t216.5 227.5t293 87.5t293.5 -87.5t217 -227.5t129 -309t46 -341q0 -264 -76.5 -481t-235.5 -351.5t-374 -134.5zM782 80q131 0 224.5 76.5t140.5 209 t66.5 270.5t19.5 300q0 156 -19.5 293t-66.5 270t-140.5 212t-224.5 79q-449 0 -448 -854q0 -158 22.5 -299t70.5 -271t139 -208t216 -78z" glyph-name="Ograve" horiz-adv-x="1564" unicode="Ò"/><glyph d="M1010 2415l-385 -404h-70l225 443h230v-39zM782 -31q-213 0 -371.5 134.5t-235.5 351.5t-77 481q0 172 46 341t129 309t216.5 227.5t293 87.5t293.5 -87.5t217 -227.5t129 -309t46 -341q0 -264 -76.5 -481t-235.5 -351.5t-374 -134.5zM782 80q131 0 224.5 76.5t140.5 209 t66.5 270.5t19.5 300q0 156 -19.5 293t-66.5 270t-140.5 212t-224.5 79q-449 0 -448 -854q0 -158 22.5 -299t70.5 -271t139 -208t216 -78z" glyph-name="Oacute" horiz-adv-x="1564" unicode="Ó"/><glyph d="M532 1927h-71l229 514h180l232 -514h-74l-246 361zM782 -31q-213 0 -371.5 134.5t-235.5 351.5t-77 481q0 172 46 341t129 309t216.5 227.5t293 87.5t293.5 -87.5t217 -227.5t129 -309t46 -341q0 -264 -76.5 -481t-235.5 -351.5t-374 -134.5zM782 80q131 0 224.5 76.5 t140.5 209t66.5 270.5t19.5 300q0 156 -19.5 293t-66.5 270t-140.5 212t-224.5 79q-449 0 -448 -854q0 -158 22.5 -299t70.5 -271t139 -208t216 -78z" glyph-name="Ocircumflex" horiz-adv-x="1564" unicode="Ô"/><glyph d="M1016 2011q-68 0 -243 107.5t-230 107.5q-43 0 -61.5 -49t-10.5 -119h-72q0 82 19.5 138.5t51.5 80t56.5 31.5t48.5 8q84 0 255 -98t221 -98q63 0 39 161h73q0 -158 -37.5 -214t-109.5 -56zM782 -31q-213 0 -371.5 134.5t-235.5 351.5t-77 481q0 172 46 341t129 309 t216.5 227.5t293 87.5t293.5 -87.5t217 -227.5t129 -309t46 -341q0 -264 -76.5 -481t-235.5 -351.5t-374 -134.5zM782 80q131 0 224.5 76.5t140.5 209t66.5 270.5t19.5 300q0 156 -19.5 293t-66.5 270t-140.5 212t-224.5 79q-449 0 -448 -854q0 -158 22.5 -299t70.5 -271 t139 -208t216 -78z" glyph-name="Otilde" horiz-adv-x="1564" unicode="Õ"/><glyph d="M635 2087q-45 0 -79 33.5t-34 79.5q0 47 33 80.5t80 33.5t80 -33.5t33 -80.5q0 -45 -34 -79t-79 -34zM928 2087q-47 0 -81 33.5t-34 79.5q0 47 34 80.5t81 33.5t79.5 -33.5t32.5 -80.5q0 -45 -33.5 -79t-78.5 -34zM782 -31q-213 0 -371.5 134.5t-235.5 351.5t-77 481 q0 172 46 341t129 309t216.5 227.5t293 87.5t293.5 -87.5t217 -227.5t129 -309t46 -341q0 -264 -76.5 -481t-235.5 -351.5t-374 -134.5zM782 80q131 0 224.5 76.5t140.5 209t66.5 270.5t19.5 300q0 156 -19.5 293t-66.5 270t-140.5 212t-224.5 79q-449 0 -448 -854 q0 -158 22.5 -299t70.5 -271t139 -208t216 -78z" glyph-name="Odieresis" horiz-adv-x="1564" unicode="Ö"/><glyph d="M471 723l248 -248l-64 -63l-247 247l-246 -245l-64 63l248 246l-221 221l63 62l220 -220l223 222l63 -64z" glyph-name="multiply" horiz-adv-x="819" unicode="×"/><glyph d="M1092 2144l-66 -301q207 -106 324.5 -363t117.5 -544q0 -264 -76.5 -481t-235.5 -351.5t-374 -134.5q-82 0 -161 23l-60 -271h-90l66 302q-209 98 -324 345.5t-115 567.5q0 172 46 341t129 309t216.5 227.5t292.5 87.5q86 0 160 -25l59 268h91zM334 936q0 -248 55 -461 t178 -317l351 1605q-55 27 -136 27q-448 0 -448 -854zM782 80q131 0 224.5 76.5t140.5 209t66.5 270.5t19.5 300q0 596 -236 780l-352 -1607q63 -29 137 -29z" glyph-name="Oslash" horiz-adv-x="1564" unicode="Ø"/><glyph d="M907 1995h-67l-387 403v39h229zM684 -31q-117 0 -218 34t-186 103.5t-133.5 193.5t-48.5 292v1276h236l2 -1354q0 -133 36 -226t95 -135t110.5 -57.5t106.5 -15.5q59 0 110.5 15.5t109 57.5t91 134t33.5 227v1354h236v-1276q0 -168 -47.5 -293t-131.5 -194.5t-183 -102.5 t-218 -33z" glyph-name="Ugrave" horiz-adv-x="1359" unicode="Ù"/><glyph d="M907 2415l-385 -404h-69l225 443h229v-39zM684 -31q-117 0 -218 34t-186 103.5t-133.5 193.5t-48.5 292v1276h236l2 -1354q0 -133 36 -226t95 -135t110.5 -57.5t106.5 -15.5q59 0 110.5 15.5t109 57.5t91 134t33.5 227v1354h236v-1276q0 -168 -47.5 -293t-131.5 -194.5 t-183 -102.5t-218 -33z" glyph-name="Uacute" horiz-adv-x="1359" unicode="Ú"/><glyph d="M430 1927h-72l230 514h180l231 -514h-73l-246 361zM684 -31q-117 0 -218 34t-186 103.5t-133.5 193.5t-48.5 292v1276h236l2 -1354q0 -133 36 -226t95 -135t110.5 -57.5t106.5 -15.5q59 0 110.5 15.5t109 57.5t91 134t33.5 227v1354h236v-1276q0 -168 -47.5 -293 t-131.5 -194.5t-183 -102.5t-218 -33z" glyph-name="Ucircumflex" horiz-adv-x="1359" unicode="Û"/><glyph d="M532.5 2087q-45.5 0 -79 33.5t-33.5 79.5q0 47 32.5 80.5t80 33.5t80 -33.5t32.5 -80.5q0 -45 -33.5 -79t-79 -34zM825 2087q-47 0 -80.5 33.5t-33.5 79.5q0 47 33.5 80.5t80.5 33.5t80 -33.5t33 -80.5q0 -45 -34 -79t-79 -34zM684 -31q-117 0 -218 34t-186 103.5 t-133.5 193.5t-48.5 292v1276h236l2 -1354q0 -133 36 -226t95 -135t110.5 -57.5t106.5 -15.5q59 0 110.5 15.5t109 57.5t91 134t33.5 227v1354h236v-1276q0 -168 -47.5 -293t-131.5 -194.5t-183 -102.5t-218 -33z" glyph-name="Udieresis" horiz-adv-x="1359" unicode="Ü"/><glyph d="M784 2454v-39l-385 -404h-69l225 443h229zM948 1868h213l-450 -1043v-825h-236v825l-459 1043h236l401 -916l193 428q61 134 102 488z" glyph-name="Yacute" horiz-adv-x="1114" unicode="Ý"/><glyph d="M375 1464h254q276 0 416.5 -143t140.5 -391q0 -227 -146.5 -386t-410.5 -159h-254v-385h-236v1868h236v-404zM375 487h198q199 -6 288 120t89 323q0 223 -84 327.5t-293 104.5h-198v-875z" glyph-name="Thorn" horiz-adv-x="1220" unicode="Þ"/><glyph d="M987 -35q-152 0 -262.5 103.5t-112.5 283.5h90q8 -127 94.5 -204.5t194.5 -77.5q102 0 157.5 70.5t55.5 187.5q0 197 -142 430t-392 391l155 254q33 92 33 166q0 102 -59.5 160.5t-145.5 58.5q-125 0 -222 -116t-97 -326v-1346h-236v1243q0 158 52.5 285t135.5 203.5 t181 116.5t197 40q141 0 236 -76.5t95 -216t-102 -317.5q258 -193 389 -409t131 -427q0 -229 -125 -353t-301 -124z" glyph-name="germandbls" horiz-adv-x="1509" unicode="ß"/><glyph d="M651 2120l226 -443h-68l-387 404v39h229zM756 1579q162 0 264 -84t102 -246v-1249h-235v311q-70 -176 -186.5 -258t-247.5 -82q-168 0 -280 120t-112 329q0 154 42 264.5t107.5 166.5t157 98t177.5 63.5t182 60.5t160 88v92q0 109 -58.5 168.5t-146.5 59.5 q-111 0 -214 -90.5t-140 -247.5h-70l-41 229q254 207 539 207zM510 109q109 0 214 112.5t163 284.5v545q-72 -47 -173.5 -90t-166 -72t-127 -79t-93 -138t-30.5 -221q0 -162 58.5 -252t154.5 -90z" glyph-name="agrave" horiz-adv-x="1222" unicode="à"/><glyph d="M877 2136v-39l-385 -403h-70l225 442h230zM756 1579q162 0 264 -84t102 -246v-1249h-235v311q-70 -176 -186.5 -258t-247.5 -82q-168 0 -280 120t-112 329q0 154 42 264.5t107.5 166.5t157 98t177.5 63.5t182 60.5t160 88v92q0 109 -58.5 168.5t-146.5 59.5 q-111 0 -214 -90.5t-140 -247.5h-70l-41 229q254 207 539 207zM510 109q109 0 214 112.5t163 284.5v545q-72 -47 -173.5 -90t-166 -72t-127 -79t-93 -138t-30.5 -221q0 -162 58.5 -252t154.5 -90z" glyph-name="aacute" horiz-adv-x="1222" unicode="á"/><glyph d="M895 1610l-246 360l-250 -360h-71l229 514h180l232 -514h-74zM756 1579q162 0 264 -84t102 -246v-1249h-235v311q-70 -176 -186.5 -258t-247.5 -82q-168 0 -280 120t-112 329q0 154 42 264.5t107.5 166.5t157 98t177.5 63.5t182 60.5t160 88v92q0 109 -58.5 168.5 t-146.5 59.5q-111 0 -214 -90.5t-140 -247.5h-70l-41 229q254 207 539 207zM510 109q109 0 214 112.5t163 284.5v545q-72 -47 -173.5 -90t-166 -72t-127 -79t-93 -138t-30.5 -221q0 -162 58.5 -252t154.5 -90z" glyph-name="acircumflex" horiz-adv-x="1222" unicode="â"/><glyph d="M410 1909q-43 0 -61.5 -49.5t-10.5 -118.5h-72q0 82 19.5 138t51.5 79.5t56.5 32t48.5 8.5q84 0 255 -98.5t221 -98.5q63 0 38 162h74q0 -158 -38 -214t-109 -56q-68 0 -243 107.5t-230 107.5zM756 1579q162 0 264 -84t102 -246v-1249h-235v311q-70 -176 -186.5 -258 t-247.5 -82q-168 0 -280 120t-112 329q0 154 42 264.5t107.5 166.5t157 98t177.5 63.5t182 60.5t160 88v92q0 109 -58.5 168.5t-146.5 59.5q-111 0 -214 -90.5t-140 -247.5h-70l-41 229q254 207 539 207zM510 109q109 0 214 112.5t163 284.5v545q-72 -47 -173.5 -90 t-166 -72t-127 -79t-93 -138t-30.5 -221q0 -162 58.5 -252t154.5 -90z" glyph-name="atilde" horiz-adv-x="1222" unicode="ã"/><glyph d="M502 1769q-45 0 -79 34t-34 79q0 47 33 81t80 34t79.5 -34t32.5 -81q0 -45 -33.5 -79t-78.5 -34zM795 1769q-47 0 -81 34t-34 79q0 47 34 81t81 34t79.5 -34t32.5 -81q0 -45 -33.5 -79t-78.5 -34zM756 1579q162 0 264 -84t102 -246v-1249h-235v311q-70 -176 -186.5 -258 t-247.5 -82q-168 0 -280 120t-112 329q0 154 42 264.5t107.5 166.5t157 98t177.5 63.5t182 60.5t160 88v92q0 109 -58.5 168.5t-146.5 59.5q-111 0 -214 -90.5t-140 -247.5h-70l-41 229q254 207 539 207zM510 109q109 0 214 112.5t163 284.5v545q-72 -47 -173.5 -90 t-166 -72t-127 -79t-93 -138t-30.5 -221q0 -162 58.5 -252t154.5 -90z" glyph-name="adieresis" horiz-adv-x="1222" unicode="ä"/><glyph d="M651 1612q-82 0 -135 65.5t-53 161.5t52 160.5t136 64.5q82 0 133.5 -64.5t51.5 -160.5t-51.5 -161.5t-133.5 -65.5zM651 1993q-41 0 -54 -36t-13 -118q0 -45 1 -67.5t7 -46t20.5 -33t38.5 -9.5q31 0 46.5 20.5t17.5 47.5t2 88q0 84 -12.5 119t-53.5 35zM756 1579 q162 0 264 -84t102 -246v-1249h-235v311q-70 -176 -186.5 -258t-247.5 -82q-168 0 -280 120t-112 329q0 154 42 264.5t107.5 166.5t157 98t177.5 63.5t182 60.5t160 88v92q0 109 -58.5 168.5t-146.5 59.5q-111 0 -214 -90.5t-140 -247.5h-70l-41 229q254 207 539 207z M510 109q109 0 214 112.5t163 284.5v545q-72 -47 -173.5 -90t-166 -72t-127 -79t-93 -138t-30.5 -221q0 -162 58.5 -252t154.5 -90z" glyph-name="aring" horiz-adv-x="1222" unicode="å"/><glyph d="M1985 467h75l41 -234q-55 -109 -194.5 -185.5t-327.5 -76.5q-168 0 -320.5 94.5t-242.5 272.5q-186 -367 -543 -367q-166 0 -277.5 120t-111.5 329q0 158 43 268.5t108.5 166.5t157.5 99t178 63.5t181.5 61.5t156.5 95v79q0 111 -60.5 172.5t-150.5 61.5q-111 0 -215 -89 t-143 -247h-68l-41 221q254 207 539 207q129 0 222 -51t130 -152q195 205 473 205q254 0 380 -124t126 -306q0 -190 -123 -339.5t-319.5 -227.5t-427.5 -78h-45q51 -203 166.5 -316.5t249.5 -113.5q123 0 226.5 99t156.5 292zM1622 1483q-178 0 -324.5 -186.5t-146.5 -493.5 q0 -102 16 -205q193 2 339.5 52t227.5 131t119.5 169t38.5 178q0 174 -76.5 264.5t-193.5 90.5zM532 100q131 0 254 130t123 329v492q-72 -47 -173 -90t-165.5 -72t-127 -80t-93.5 -138t-31 -220q0 -166 58.5 -258.5t154.5 -92.5z" glyph-name="ae" horiz-adv-x="2236" unicode="æ"/><glyph d="M618 -29q-39 0 -75 6l-45 -137q227 -33 282 -178q45 -111 -32 -211q-84 -109 -234 -94q-74 8 -149 49l20 55q129 -51 205 25q61 63 31 149q-39 111 -205 132l61 227q-190 61 -313 273t-123 542q0 354 176 564t416 210q264 0 416 -256l-91 -178h-67q-10 166 -83 256 t-175 90q-141 0 -251 -177t-110 -493q0 -369 106.5 -569.5t256.5 -200.5q111 0 205 101.5t147 289.5h62l41 -225q-220 -250 -472 -250z" glyph-name="ccedilla" horiz-adv-x="1155" unicode="ç"/><glyph d="M653 2120l226 -443h-68l-387 404v39h229zM1128 467h76l41 -234q-55 -109 -194.5 -185.5t-327.5 -76.5q-125 0 -241.5 53.5t-212 154t-153 262t-57.5 362.5q0 352 200 565t480 213q254 0 380 -124t126 -306q0 -190 -123 -339.5t-319.5 -227.5t-427.5 -78h-45 q51 -203 166.5 -316.5t248.5 -113.5q123 0 226.5 99t156.5 292zM766 1483q-178 0 -324.5 -186.5t-146.5 -493.5q0 -102 16 -205q193 2 339.5 52t227 131t119.5 169t39 178q0 174 -76.5 264.5t-193.5 90.5z" glyph-name="egrave" horiz-adv-x="1300" unicode="è"/><glyph d="M879 2136v-39l-385 -403h-70l225 442h230zM1128 467h76l41 -234q-55 -109 -194.5 -185.5t-327.5 -76.5q-125 0 -241.5 53.5t-212 154t-153 262t-57.5 362.5q0 352 200 565t480 213q254 0 380 -124t126 -306q0 -190 -123 -339.5t-319.5 -227.5t-427.5 -78h-45 q51 -203 166.5 -316.5t248.5 -113.5q123 0 226.5 99t156.5 292zM766 1483q-178 0 -324.5 -186.5t-146.5 -493.5q0 -102 16 -205q193 2 339.5 52t227 131t119.5 169t39 178q0 174 -76.5 264.5t-193.5 90.5z" glyph-name="eacute" horiz-adv-x="1300" unicode="é"/><glyph d="M899 1610l-246 360l-250 -360h-71l229 514h180l232 -514h-74zM1128 467h76l41 -234q-55 -109 -194.5 -185.5t-327.5 -76.5q-125 0 -241.5 53.5t-212 154t-153 262t-57.5 362.5q0 352 200 565t480 213q254 0 380 -124t126 -306q0 -190 -123 -339.5t-319.5 -227.5 t-427.5 -78h-45q51 -203 166.5 -316.5t248.5 -113.5q123 0 226.5 99t156.5 292zM766 1483q-178 0 -324.5 -186.5t-146.5 -493.5q0 -102 16 -205q193 2 339.5 52t227 131t119.5 169t39 178q0 174 -76.5 264.5t-193.5 90.5z" glyph-name="ecircumflex" horiz-adv-x="1300" unicode="ê"/><glyph d="M506 1769q-45 0 -79 34t-34 79q0 47 33 81t80 34t79.5 -34t32.5 -81q0 -45 -33.5 -79t-78.5 -34zM799 1769q-47 0 -81 34t-34 79q0 47 34 81t81 34t79.5 -34t32.5 -81q0 -45 -33.5 -79t-78.5 -34zM1128 467h76l41 -234q-55 -109 -194.5 -185.5t-327.5 -76.5 q-125 0 -241.5 53.5t-212 154t-153 262t-57.5 362.5q0 352 200 565t480 213q254 0 380 -124t126 -306q0 -190 -123 -339.5t-319.5 -227.5t-427.5 -78h-45q51 -203 166.5 -316.5t248.5 -113.5q123 0 226.5 99t156.5 292zM766 1483q-178 0 -324.5 -186.5t-146.5 -493.5 q0 -102 16 -205q193 2 339.5 52t227 131t119.5 169t39 178q0 174 -76.5 264.5t-193.5 90.5z" glyph-name="edieresis" horiz-adv-x="1300" unicode="ë"/><glyph d="M479 1677h-67l-387 404v39h229zM373 0h-236v1550h236v-1550z" glyph-name="igrave" horiz-adv-x="505" unicode="ì"/><glyph d="M479 2097l-385 -403h-69l225 442h229v-39zM373 0h-236v1550h236v-1550z" glyph-name="iacute" horiz-adv-x="505" unicode="í"/><glyph d="M4 1610h-72l230 514h180l231 -514h-73l-246 360zM373 0h-236v1550h236v-1550z" glyph-name="icircumflex" horiz-adv-x="505" unicode="î"/><glyph d="M106.5 1769q-45.5 0 -79 34t-33.5 79q0 47 32.5 81t80 34t80 -34t32.5 -81q0 -45 -33.5 -79t-79 -34zM399 1769q-47 0 -80.5 34t-33.5 79q0 47 33.5 81t80.5 34t80 -34t33 -81q0 -45 -34 -79t-79 -34zM373 0h-236v1550h236v-1550z" glyph-name="idieresis" horiz-adv-x="505" unicode="ï"/><glyph d="M920 2107l-181 -143q219 -221 338 -518t119 -612q0 -227 -63.5 -419t-199.5 -318t-321 -126q-188 0 -319 107.5t-189.5 273.5t-58.5 373q0 344 163 561t415 217q123 0 247 -53q-84 244 -233 434l-145 -117l-50 58l146 117q-92 102 -209 180l63 71q135 -80 238 -174 l190 154zM612 51q92 0 164 72t113 189.5t61.5 249.5t20.5 272q0 272 -72 524q-129 63 -240 63q-195 0 -298 -189.5t-91 -506.5q4 -152 20.5 -264.5t53.5 -209.5t104.5 -148.5t163.5 -51.5z" glyph-name="eth" horiz-adv-x="1259" unicode="ð"/><glyph d="M399 1909q-43 0 -61.5 -49.5t-9.5 -118.5h-72q0 82 19.5 138t51 79.5t56.5 32t49 8.5q84 0 255 -98.5t220 -98.5q63 0 39 162h74q0 -158 -38 -214t-110 -56q-68 0 -243 107.5t-230 107.5zM1180 1188l2 -1188h-236v1231q0 221 -131 221q-104 0 -246.5 -133t-234.5 -313 v-1006h-236v1550h236v-368q94 170 255 280.5t306 110.5q127 0 206 -95t79 -290z" glyph-name="ntilde" horiz-adv-x="1277" unicode="ñ"/><glyph d="M913 1677h-67l-387 404v39h229zM686 -31q-276 0 -432 196.5t-156 596.5q0 403 157 611t431 208q254 0 422 -212t168 -607q0 -393 -167 -593t-423 -200zM686 80q354 0 354 682q0 346 -89 527t-265 181q-190 0 -271 -175t-81 -533q0 -352 79.5 -517t272.5 -165z" glyph-name="ograve" horiz-adv-x="1372" unicode="ò"/><glyph d="M913 2097l-385 -403h-69l225 442h229v-39zM686 -31q-276 0 -432 196.5t-156 596.5q0 403 157 611t431 208q254 0 422 -212t168 -607q0 -393 -167 -593t-423 -200zM686 80q354 0 354 682q0 346 -89 527t-265 181q-190 0 -271 -175t-81 -533q0 -352 79.5 -517t272.5 -165z " glyph-name="oacute" horiz-adv-x="1372" unicode="ó"/><glyph d="M436 1610h-71l229 514h180l232 -514h-74l-246 360zM686 -31q-276 0 -432 196.5t-156 596.5q0 403 157 611t431 208q254 0 422 -212t168 -607q0 -393 -167 -593t-423 -200zM686 80q354 0 354 682q0 346 -89 527t-265 181q-190 0 -271 -175t-81 -533q0 -352 79.5 -517 t272.5 -165z" glyph-name="ocircumflex" horiz-adv-x="1372" unicode="ô"/><glyph d="M920 1694q-68 0 -243 107.5t-231 107.5q-43 0 -61 -49.5t-10 -118.5h-72q0 82 19.5 138t51.5 79.5t56.5 32t48.5 8.5q84 0 255 -98.5t220 -98.5q63 0 39 162h74q0 -158 -37.5 -214t-109.5 -56zM686 -31q-276 0 -432 196.5t-156 596.5q0 403 157 611t431 208 q254 0 422 -212t168 -607q0 -393 -167 -593t-423 -200zM686 80q354 0 354 682q0 346 -89 527t-265 181q-190 0 -271 -175t-81 -533q0 -352 79.5 -517t272.5 -165z" glyph-name="otilde" horiz-adv-x="1372" unicode="õ"/><glyph d="M539 1769q-45 0 -79 34t-34 79q0 47 33 81t80 34t79.5 -34t32.5 -81q0 -45 -33.5 -79t-78.5 -34zM831 1769q-47 0 -80.5 34t-33.5 79q0 47 33.5 81t81 34t80 -34t32.5 -81q0 -45 -34 -79t-79 -34zM686 -31q-276 0 -432 196.5t-156 596.5q0 403 157 611t431 208 q254 0 422 -212t168 -607q0 -393 -167 -593t-423 -200zM686 80q354 0 354 682q0 346 -89 527t-265 181q-190 0 -271 -175t-81 -533q0 -352 79.5 -517t272.5 -165z" glyph-name="odieresis" horiz-adv-x="1372" unicode="ö"/><glyph d="M477 918q-57 0 -97 40.5t-40 96.5q0 57 40 97t97 40q55 0 96 -40t41 -97q0 -55 -41 -96t-96 -41zM852 743h-752v91h752v-91zM477 350q-57 0 -97 41t-40 96q0 57 40 97.5t97 40.5q55 0 96 -40t41 -98q0 -55 -41 -96t-96 -41z" glyph-name="divide" horiz-adv-x="952" unicode="÷"/><glyph d="M995 1987l-98 -449q174 -76 276.5 -272.5t102.5 -503.5q0 -393 -167 -593t-423 -200q-68 0 -129 13l-92 -418h-90l96 440q-373 139 -373 758q0 403 157 611t431 208q70 0 127 -14l92 420h90zM334 762q0 -498 166 -625l288 1315q-47 18 -102 18q-190 0 -271 -175t-81 -533 zM686 80q354 0 354 682q0 487 -172 641l-286 -1309q43 -14 104 -14z" glyph-name="oslash" horiz-adv-x="1372" unicode="ø"/><glyph d="M850 1677h-68l-387 404v39h230zM541 -35q-207 0 -325 133t-118 387v1067h236v-1120q0 -193 61.5 -281t189.5 -92t326 50v1441h236v-1550h-27q-129 20 -198.5 12t-187 -27.5t-193.5 -19.5z" glyph-name="ugrave" horiz-adv-x="1243" unicode="ù"/><glyph d="M850 2097l-385 -403h-70l226 442h229v-39zM541 -35q-207 0 -325 133t-118 387v1067h236v-1120q0 -193 61.5 -281t189.5 -92t326 50v1441h236v-1550h-27q-129 20 -198.5 12t-187 -27.5t-193.5 -19.5z" glyph-name="uacute" horiz-adv-x="1243" unicode="ú"/><glyph d="M373 1610h-72l229 514h181l231 -514h-74l-245 360zM541 -35q-207 0 -325 133t-118 387v1067h236v-1120q0 -193 61.5 -281t189.5 -92t326 50v1441h236v-1550h-27q-129 20 -198.5 12t-187 -27.5t-193.5 -19.5z" glyph-name="ucircumflex" horiz-adv-x="1243" unicode="û"/><glyph d="M475 1769q-45 0 -79 34t-34 79q0 47 33 81t80 34t80 -34t33 -81q0 -45 -34 -79t-79 -34zM768 1769q-47 0 -81 34t-34 79q0 47 34 81t81 34t80 -34t33 -81q0 -45 -34 -79t-79 -34zM541 -35q-207 0 -325 133t-118 387v1067h236v-1120q0 -193 61.5 -281t189.5 -92t326 50 v1441h236v-1550h-27q-129 20 -198.5 12t-187 -27.5t-193.5 -19.5z" glyph-name="udieresis" horiz-adv-x="1243" unicode="ü"/><glyph d="M774 2136v-39l-385 -403h-70l226 442h229zM842 1550h229l-369 -1341q8 -51 9 -115q0 -250 -142.5 -404.5t-361.5 -154.5q-117 0 -238 47l-78 225l78 41q150 -188 303 -188q104 0 171 94t67 250q0 133 -49 279l-445 1267h236l393 -1118l121 436q49 180 62.5 314.5 t13.5 367.5z" glyph-name="yacute" horiz-adv-x="1093" unicode="ý"/><glyph d="M334 -233h-236v2007h236v-590q57 184 172 292.5t254 108.5q209 0 338 -192.5t129 -511.5q0 -430 -166 -665.5t-395 -235.5q-96 0 -184.5 51t-147.5 149v-413zM606 123q166 0 275.5 186.5t109.5 532.5q0 268 -82 415.5t-202 147.5q-115 0 -212.5 -110.5t-160.5 -346.5 v-635q125 -190 272 -190z" glyph-name="thorn" horiz-adv-x="1292" unicode="þ"/><glyph d="M399 1769q-45 0 -78.5 34t-33.5 79q0 47 32.5 81t79.5 34t80 -34t33 -81q0 -45 -34 -79t-79 -34zM692 1769q-47 0 -80.5 34t-33.5 79q0 47 33.5 81t80.5 34t80 -34t33 -81q0 -45 -34 -79t-79 -34zM842 1550h229l-369 -1341q8 -51 9 -115q0 -250 -142.5 -404.5 t-361.5 -154.5q-117 0 -238 47l-78 225l78 41q150 -188 303 -188q104 0 171 94t67 250q0 133 -49 279l-445 1267h236l393 -1118l121 436q49 180 62.5 314.5t13.5 367.5z" glyph-name="ydieresis" horiz-adv-x="1093" unicode="ÿ"/><glyph d="M360 2198h711v-91h-711v91zM821 1868l553 -1868h-215v82q0 152 -59 354l-86 299h-518l-213 -735h-220l553 1868h205zM756 1634l-228 -788h455z" glyph-name="Amacron" horiz-adv-x="1433" unicode="Ā"/><glyph d="M293 1880h711v-90h-711v90zM756 1579q162 0 264 -84t102 -246v-1249h-235v311q-70 -176 -186.5 -258t-247.5 -82q-168 0 -280 120t-112 329q0 154 42 264.5t107.5 166.5t157 98t177.5 63.5t182 60.5t160 88v92q0 109 -58.5 168.5t-146.5 59.5q-111 0 -214 -90.5 t-140 -247.5h-70l-41 229q254 207 539 207zM510 109q109 0 214 112.5t163 284.5v545q-72 -47 -173.5 -90t-166 -72t-127 -79t-93 -138t-30.5 -221q0 -162 58.5 -252t154.5 -90z" glyph-name="amacron" horiz-adv-x="1222" unicode="ā"/><glyph d="M717 1993q-96 0 -169 34.5t-114 92t-60.5 120t-23.5 130.5h70q14 -104 80.5 -161t216.5 -57q145 0 210.5 55.5t88.5 162.5h67q-6 -70 -27.5 -130.5t-61.5 -119t-111.5 -93t-165.5 -34.5zM821 1868l553 -1868h-215v82q0 152 -59 354l-86 299h-518l-213 -735h-220l553 1868 h205zM756 1634l-228 -788h455z" glyph-name="Abreve" horiz-adv-x="1433" unicode="Ă"/><glyph d="M649 1675q-96 0 -168.5 35t-113.5 92.5t-60.5 120t-23.5 129.5h69q14 -104 81 -160.5t216 -56.5q145 0 211 55.5t88 161.5h68q-6 -70 -27.5 -130t-61.5 -118.5t-112 -93.5t-166 -35zM756 1579q162 0 264 -84t102 -246v-1249h-235v311q-70 -176 -186.5 -258t-247.5 -82 q-168 0 -280 120t-112 329q0 154 42 264.5t107.5 166.5t157 98t177.5 63.5t182 60.5t160 88v92q0 109 -58.5 168.5t-146.5 59.5q-111 0 -214 -90.5t-140 -247.5h-70l-41 229q254 207 539 207zM510 109q109 0 214 112.5t163 284.5v545q-72 -47 -173.5 -90t-166 -72t-127 -79 t-93 -138t-30.5 -221q0 -162 58.5 -252t154.5 -90z" glyph-name="abreve" horiz-adv-x="1222" unicode="ă"/><glyph d="M1303 0v-47q-63 0 -101.5 -49t-38.5 -137q0 -47 20.5 -74t49.5 -27t47 17l23 -62q-74 -86 -162 -86q-63 0 -106.5 53.5t-43.5 147.5q0 82 43 157.5t125 106.5v82q0 152 -59 354l-86 299h-518l-213 -735h-220l553 1868h205l553 -1868h-71zM756 1634l-228 -788h455z" glyph-name="Aogonek" horiz-adv-x="1433" unicode="Ą"/><glyph d="M756 1579q162 0 264 -84t102 -246v-1315q-63 0 -101 -49t-38 -137q0 -47 20.5 -73.5t49 -26.5t47.5 16l22 -61q-74 -86 -161 -86q-63 0 -106.5 53t-43.5 147q0 109 70.5 196t201.5 87h-196v311q-70 -176 -186.5 -258t-247.5 -82q-168 0 -280 120t-112 329q0 154 42 264.5 t107.5 166.5t157 98t177.5 63.5t182 60.5t160 88v92q0 109 -58.5 168.5t-146.5 59.5q-111 0 -214 -90.5t-140 -247.5h-70l-41 229q254 207 539 207zM510 109q109 0 214 112.5t163 284.5v545q-72 -47 -173.5 -90t-166 -72t-127 -79t-93 -138t-30.5 -221q0 -162 58.5 -252 t154.5 -90z" glyph-name="aogonek" horiz-adv-x="1222" unicode="ą"/><glyph d="M944 2415l-385 -404h-70l226 443h229v-39zM821 -25q-109 0 -211 38t-195 118t-164 194.5t-112 279.5t-41 362q0 444 208 683.5t544 239.5q188 0 337.5 -105.5t192.5 -295.5l-98 -193h-70q-12 238 -122.5 372t-262.5 134q-197 0 -345 -218t-148 -617q0 -422 153.5 -658.5 t366.5 -236.5q121 0 232.5 132t148.5 367h70l90 -194q-84 -176 -245 -289t-329 -113z" glyph-name="Cacute" horiz-adv-x="1437" unicode="Ć"/><glyph d="M807 2097l-385 -403h-70l226 442h229v-39zM618 -29q-238 0 -407.5 223.5t-169.5 614.5q0 354 176 564t416 210q264 0 416 -256l-91 -178h-67q-10 166 -83 256t-175 90q-141 0 -251 -177t-110 -493q0 -369 106.5 -569.5t256.5 -200.5q111 0 205 101.5t147 289.5h62 l41 -225q-220 -250 -472 -250z" glyph-name="cacute" horiz-adv-x="1155" unicode="ć"/><glyph d="M719 2071q-57 0 -97 40.5t-40 96.5q0 57 40 97t97 40q55 0 96 -40t41 -97q0 -55 -41 -96t-96 -41zM821 -25q-109 0 -211 38t-195 118t-164 194.5t-112 279.5t-41 362q0 444 208 683.5t544 239.5q188 0 337.5 -105.5t192.5 -295.5l-98 -193h-70q-12 238 -122.5 372 t-262.5 134q-197 0 -345 -218t-148 -617q0 -422 153.5 -658.5t366.5 -236.5q121 0 232.5 132t148.5 367h70l90 -194q-84 -176 -245 -289t-329 -113z" glyph-name="Cdotaccent" horiz-adv-x="1437" unicode="Ċ"/><glyph d="M580 1753q-57 0 -97.5 41t-40.5 96q0 57 40 97.5t98 40.5q55 0 96 -40t41 -98q0 -55 -41 -96t-96 -41zM618 -29q-238 0 -407.5 223.5t-169.5 614.5q0 354 176 564t416 210q264 0 416 -256l-91 -178h-67q-10 166 -83 256t-175 90q-141 0 -251 -177t-110 -493 q0 -369 106.5 -569.5t256.5 -200.5q111 0 205 101.5t147 289.5h62l41 -225q-220 -250 -472 -250z" glyph-name="cdotaccent" horiz-adv-x="1155" unicode="ċ"/><glyph d="M627 1942l-230 514h72l250 -361l246 361h73l-231 -514h-180zM821 -25q-109 0 -211 38t-195 118t-164 194.5t-112 279.5t-41 362q0 444 208 683.5t544 239.5q188 0 337.5 -105.5t192.5 -295.5l-98 -193h-70q-12 238 -122.5 372t-262.5 134q-197 0 -345 -218t-148 -617 q0 -422 153.5 -658.5t366.5 -236.5q121 0 232.5 132t148.5 367h70l90 -194q-84 -176 -245 -289t-329 -113z" glyph-name="Ccaron" horiz-adv-x="1437" unicode="Č"/><glyph d="M489 1624l-229 514h72l250 -360l245 360h74l-231 -514h-181zM618 -29q-238 0 -407.5 223.5t-169.5 614.5q0 354 176 564t416 210q264 0 416 -256l-91 -178h-67q-10 166 -83 256t-175 90q-141 0 -251 -177t-110 -493q0 -369 106.5 -569.5t256.5 -200.5q111 0 205 101.5 t147 289.5h62l41 -225q-220 -250 -472 -250z" glyph-name="ccaron" horiz-adv-x="1155" unicode="č"/><glyph d="M1004 2456l-232 -514h-180l-230 514h72l250 -361l246 361h74zM731 1868q281 0 436.5 -225.5t155.5 -673.5q0 -201 -38 -366t-102.5 -275.5t-151.5 -185t-181 -108.5t-195 -34h-557v1868h633zM334 104h65q135 0 234.5 19.5t189.5 76t145.5 150.5t87 249t31.5 370 q0 428 -129 611t-430 183h-194v-1659z" glyph-name="Dcaron" horiz-adv-x="1366" unicode="Ď"/><glyph d="M930 1522v346h235v-1868h-233v221q-80 -121 -187.5 -185.5t-220.5 -64.5q-197 0 -332 200t-135 587q0 399 165 621.5t413 222.5q148 0 295 -80zM1356 1366v502h217l-141 -502h-76zM565 100q96 0 197.5 78t169.5 193l-2 1026q-147 86 -273 86q-180 0 -282.5 -186.5 t-102.5 -538.5q0 -344 82 -501t211 -157z" glyph-name="dcaron" horiz-adv-x="1593" unicode="ď"/><glyph d="M731 1868q281 0 436.5 -225.5t155.5 -673.5q0 -201 -38 -366t-102.5 -275.5t-151.5 -185t-181 -108.5t-195 -34h-557v889h-116v90h116v889h633zM334 104h65q135 0 234.5 19.5t189.5 76t145.5 150.5t87 249t31.5 370q0 428 -129 611t-430 183h-194v-784h123v-90h-123v-785 z" glyph-name="Dcroat" horiz-adv-x="1366" unicode="Đ"/><glyph d="M1165 1759h123v-90h-123v-1669h-233v221q-80 -121 -187.5 -185.5t-220.5 -64.5q-197 0 -332 200t-135 587q0 399 165 621.5t413 222.5q147 0 295 -80v147h-117v90h117v109h235v-109zM565 100q96 0 197.5 78t169.5 193l-2 1026q-147 86 -273 86q-180 0 -282.5 -186.5 t-102.5 -538.5q0 -344 82 -501t211 -157z" glyph-name="dcroat" horiz-adv-x="1261" unicode="đ"/><glyph d="M225 2198h711v-91h-711v91zM1028 279h70l-56 -279h-944v1868h903l56 -279h-70q-74 109 -228.5 139.5t-424.5 28.5v-708h28q346 0 510 69h25l-2 -262h-23q-190 82 -510 82h-28v-827q295 -2 456.5 27.5t237.5 140.5z" glyph-name="Emacron" horiz-adv-x="1159" unicode="Ē"/><glyph d="M295 1880h711v-90h-711v90zM1128 467h76l41 -234q-55 -109 -194.5 -185.5t-327.5 -76.5q-125 0 -241.5 53.5t-212 154t-153 262t-57.5 362.5q0 352 200 565t480 213q254 0 380 -124t126 -306q0 -190 -123 -339.5t-319.5 -227.5t-427.5 -78h-45q51 -203 166.5 -316.5 t248.5 -113.5q123 0 226.5 99t156.5 292zM766 1483q-178 0 -324.5 -186.5t-146.5 -493.5q0 -102 16 -205q193 2 339.5 52t227 131t119.5 169t39 178q0 174 -76.5 264.5t-193.5 90.5z" glyph-name="emacron" horiz-adv-x="1300" unicode="ē"/><glyph d="M580 2071q-57 0 -97.5 40.5t-40.5 96.5q0 57 40 97t98 40q55 0 96 -40t41 -97q0 -55 -41 -96t-96 -41zM1028 279h70l-56 -279h-944v1868h903l56 -279h-70q-74 109 -228.5 139.5t-424.5 28.5v-708h28q346 0 510 69h25l-2 -262h-23q-190 82 -510 82h-28v-827 q295 -2 456.5 27.5t237.5 140.5z" glyph-name="Edotaccent" horiz-adv-x="1159" unicode="Ė"/><glyph d="M651 1753q-57 0 -97 41t-40 96q0 57 40 97.5t97 40.5q55 0 96 -40t41 -98q0 -55 -41 -96t-96 -41zM1128 467h76l41 -234q-55 -109 -194.5 -185.5t-327.5 -76.5q-125 0 -241.5 53.5t-212 154t-153 262t-57.5 362.5q0 352 200 565t480 213q254 0 380 -124t126 -306 q0 -190 -123 -339.5t-319.5 -227.5t-427.5 -78h-45q51 -203 166.5 -316.5t248.5 -113.5q123 0 226.5 99t156.5 292zM766 1483q-178 0 -324.5 -186.5t-146.5 -493.5q0 -102 16 -205q193 2 339.5 52t227 131t119.5 169t39 178q0 174 -76.5 264.5t-193.5 90.5z" glyph-name="edotaccent" horiz-adv-x="1300" unicode="ė"/><glyph d="M1028 279h70l-56 -279v-63q-63 0 -101 -49.5t-38 -137.5q0 -47 20.5 -73.5t49 -26.5t47.5 16l22 -61q-74 -86 -161 -86q-63 0 -106.5 53t-43.5 147q0 98 60.5 183.5t175.5 97.5h-869v1868h903l56 -279h-70q-74 109 -228.5 139.5t-424.5 28.5v-708h28q346 0 510 69h25 l-2 -262h-23q-190 82 -510 82h-28v-827q295 -2 456.5 27.5t237.5 140.5z" glyph-name="Eogonek" horiz-adv-x="1159" unicode="Ę"/><glyph d="M1128 467h76l41 -234q-45 -86 -145.5 -154.5t-237.5 -94.5v-37q-63 0 -101 -49.5t-38 -137.5q0 -47 20.5 -73.5t49 -26.5t47.5 16l22 -61q-74 -86 -162 -86q-63 0 -106 53t-43 148q0 70 32.5 137t94.5 106q-256 20 -437.5 237.5t-181.5 592.5q0 352 200 565t480 213 q254 0 380 -124t126 -306q0 -190 -123 -339.5t-319.5 -227.5t-427.5 -78h-45q51 -203 166.5 -316.5t248.5 -113.5q123 0 226.5 99t156.5 292zM766 1483q-178 0 -324.5 -186.5t-146.5 -493.5q0 -102 16 -205q193 2 339.5 52t227 131t119.5 169t39 178q0 174 -76.5 264.5 t-193.5 90.5z" glyph-name="eogonek" horiz-adv-x="1300" unicode="ę"/><glyph d="M901 2456l-231 -514h-181l-229 514h72l250 -361l245 361h74zM1028 279h70l-56 -279h-944v1868h903l56 -279h-70q-74 109 -228.5 139.5t-424.5 28.5v-708h28q346 0 510 69h25l-2 -262h-23q-190 82 -510 82h-28v-827q295 -2 456.5 27.5t237.5 140.5z" glyph-name="Ecaron" horiz-adv-x="1159" unicode="Ě"/><glyph d="M971 2138l-232 -514h-180l-229 514h71l250 -360l246 360h74zM1128 467h76l41 -234q-55 -109 -194.5 -185.5t-327.5 -76.5q-125 0 -241.5 53.5t-212 154t-153 262t-57.5 362.5q0 352 200 565t480 213q254 0 380 -124t126 -306q0 -190 -123 -339.5t-319.5 -227.5 t-427.5 -78h-45q51 -203 166.5 -316.5t248.5 -113.5q123 0 226.5 99t156.5 292zM766 1483q-178 0 -324.5 -186.5t-146.5 -493.5q0 -102 16 -205q193 2 339.5 52t227 131t119.5 169t39 178q0 174 -76.5 264.5t-193.5 90.5z" glyph-name="ecaron" horiz-adv-x="1300" unicode="ě"/><glyph d="M850 2023q-96 0 -169 35t-114 92.5t-60.5 120t-23.5 129.5h70q14 -104 80.5 -160.5t216.5 -56.5q145 0 210.5 55.5t88.5 161.5h68q-6 -70 -28 -130t-62 -118.5t-111.5 -93.5t-165.5 -35zM766 -23q-125 0 -239.5 52.5t-213 157t-157 287.5t-58.5 421q0 459 220.5 731 t531.5 272q106 0 202.5 -27.5t198 -108.5t164.5 -208l-41 -268h-71q-90 252 -216 376t-264 124q-199 0 -344 -229.5t-145 -589.5q0 -453 137 -666t338 -213t306.5 203t105.5 553l-283 47v72h477l2 -963h-69l-56 328q-155 -351 -526 -351z" glyph-name="Gbreve" horiz-adv-x="1513" unicode="Ğ"/><glyph d="M647 1675q-96 0 -168.5 35t-113.5 92.5t-60.5 120t-23.5 129.5h69q14 -104 81 -160.5t216 -56.5q145 0 211 55.5t88 161.5h68q-6 -70 -27.5 -130t-61.5 -118.5t-112 -93.5t-166 -35zM733 203q193 -35 310.5 -131.5t117.5 -256t-149.5 -271t-448.5 -111.5 q-197 0 -339 76.5t-187 148.5l29 250h59q49 -186 182 -284.5t287 -98.5q141 0 240.5 80t99.5 219q0 143 -114.5 212.5t-313.5 69.5q-100 0 -195 -14v111q39 6 131 14q-403 102 -403 655q0 344 157.5 521.5t432.5 177.5q139 0 262 -60q86 20 141 105.5t55 171.5h43l84 -178 q-59 -141 -249 -142h-2q254 -182 254 -596q0 -299 -134.5 -467.5t-349.5 -201.5zM274 872q0 -301 80 -442t275 -141q352 0 352 583q0 295 -89 450t-263 155q-193 0 -274 -150t-81 -455z" glyph-name="gbreve" horiz-adv-x="1267" unicode="ğ"/><glyph d="M850 2101q-57 0 -97 41t-40 96q0 57 40 97.5t97 40.5q55 0 96 -40t41 -98q0 -55 -41 -96t-96 -41zM766 -23q-125 0 -239.5 52.5t-213 157t-157 287.5t-58.5 421q0 459 220.5 731t531.5 272q106 0 202.5 -27.5t198 -108.5t164.5 -208l-41 -268h-71q-90 252 -216 376 t-264 124q-199 0 -344 -229.5t-145 -589.5q0 -453 137 -666t338 -213t306.5 203t105.5 553l-283 47v72h477l2 -963h-69l-56 328q-155 -351 -526 -351z" glyph-name="Gdotaccent" horiz-adv-x="1513" unicode="Ġ"/><glyph d="M647 1753q-57 0 -97 41t-40 96q0 57 40 97.5t97 40.5q55 0 96 -40t41 -98q0 -55 -41 -96t-96 -41zM733 203q193 -35 310.5 -131.5t117.5 -256t-149.5 -271t-448.5 -111.5q-197 0 -339 76.5t-187 148.5l29 250h59q49 -186 182 -284.5t287 -98.5q141 0 240.5 80t99.5 219 q0 143 -114.5 212.5t-313.5 69.5q-100 0 -195 -14v111q39 6 131 14q-403 102 -403 655q0 344 157.5 521.5t432.5 177.5q139 0 262 -60q86 20 141 105.5t55 171.5h43l84 -178q-59 -141 -249 -142h-2q254 -182 254 -596q0 -299 -134.5 -467.5t-349.5 -201.5zM274 872 q0 -301 80 -442t275 -141q352 0 352 583q0 295 -89 450t-263 155q-193 0 -274 -150t-81 -455z" glyph-name="gdotaccent" horiz-adv-x="1267" unicode="ġ"/><glyph d="M766 -23q-125 0 -239.5 52.5t-213 157t-157 287.5t-58.5 421q0 459 220.5 731t531.5 272q106 0 202.5 -27.5t198 -108.5t164.5 -208l-41 -268h-71q-90 252 -216 376t-264 124q-199 0 -344 -229.5t-145 -589.5q0 -453 137 -666t338 -213t306.5 203t105.5 553l-283 47v72 h477l2 -963h-69l-56 328q-155 -351 -526 -351zM684 -641l-39 33q86 96 107.5 172t-4.5 200v76h221q0 -305 -285 -481z" glyph-name="Gcommaaccent" horiz-adv-x="1513" unicode="Ģ"/><glyph d="M707 1759v-76h-222q0 305 285 482l39 -33q-86 -96 -107.5 -172t5.5 -201zM733 203q193 -35 310.5 -131.5t117.5 -256t-149.5 -271t-448.5 -111.5q-197 0 -339 76.5t-187 148.5l29 250h59q49 -186 182 -284.5t287 -98.5q141 0 240.5 80t99.5 219q0 143 -114.5 212.5 t-313.5 69.5q-100 0 -195 -14v111q39 6 131 14q-403 102 -403 655q0 344 157.5 521.5t432.5 177.5q139 0 262 -60q86 20 141 105.5t55 171.5h43l84 -178q-59 -141 -249 -142h-2q254 -182 254 -596q0 -299 -134.5 -467.5t-349.5 -201.5zM274 872q0 -301 80 -442t275 -141 q352 0 352 583q0 295 -89 450t-263 155q-193 0 -274 -150t-81 -455z" glyph-name="gcommaaccent" horiz-adv-x="1267" unicode="ģ"/><glyph d="M942 1432v436h236v-1868h-236v836h-608v-836h-236v1868h236v-436h608zM334 1341v-395h608v395h-608z" glyph-name="Hbar" horiz-adv-x="1273" unicode="Ħ"/><glyph d="M1180 1188l2 -1188h-236v1114q0 299 -162 297q-131 0 -301 -186q-86 -94 -149 -205v-1020h-236v1604h-114v90h114v174h236v-174h125v-90h-125v-414q98 164 257 273.5t300 109.5q133 0 211 -93t78 -292z" glyph-name="hbar" horiz-adv-x="1277" unicode="ħ"/><glyph d="M610 2107h-710v91h710v-91zM375 0h-236v1868h236v-1868z" glyph-name="Imacron" horiz-adv-x="512" unicode="Ī"/><glyph d="M608 1790h-710v90h710v-90zM373 0h-236v1550h236v-1550z" glyph-name="imacron" horiz-adv-x="505" unicode="ī"/><glyph d="M139 0v1868h236v-1934q-63 0 -101 -49t-38 -137q0 -47 20 -73.5t49 -26.5t47 16l23 -61q-74 -86 -162 -86q-63 0 -106.5 53t-43.5 147q0 109 71 196t202 87h-197z" glyph-name="Iogonek" horiz-adv-x="512" unicode="Į"/><glyph d="M254 1753q-57 0 -97 41t-40 96q0 57 40 97.5t97 40.5q55 0 96 -40t41 -98q0 -55 -41 -96t-96 -41zM334 0h-197v1550h236v-1616q-63 0 -101.5 -49t-38.5 -137q0 -47 20.5 -73.5t49.5 -26.5t47 16l23 -61q-74 -86 -162 -86q-63 0 -106.5 53t-43.5 147q0 109 71 196t202 87z " glyph-name="iogonek" horiz-adv-x="505" unicode="į"/><glyph d="M256 2071q-57 0 -97 40.5t-40 96.5q0 57 40 97t97 40q55 0 96 -40t41 -97q0 -55 -41 -96t-96 -41zM375 0h-236v1868h236v-1868z" glyph-name="Idotaccent" horiz-adv-x="512" unicode="İ"/><glyph d="M373 0h-236v1550h236v-1550z" glyph-name="dotlessi" horiz-adv-x="505" unicode="ı"/><glyph d="M334 0h-236v1868h236v-1110l416 577q92 127 146 240t67.5 161t27.5 132h264l-479 -656q23 -156 143.5 -387t247.5 -461.5t158 -363.5h-235q-31 102 -131.5 292.5t-198.5 388.5t-129 333l-297 -408v-606zM543 -641l-39 33q86 96 107.5 172t-5.5 200v76h221 q1 -305 -284 -481z" glyph-name="Kcommaaccent" horiz-adv-x="1331" unicode="Ķ"/><glyph d="M334 2h-236v1868h236v-1055l274 311q285 319 271 424h221l-424 -477q27 -55 136.5 -250.5t188 -385t142.5 -435.5h-236q-51 219 -125.5 393t-152.5 312.5t-105 205.5l-190 -215v-696zM467 -641l-39 33q86 96 107.5 172t-5.5 200v76h222q0 -305 -285 -481z" glyph-name="kcommaaccent" horiz-adv-x="1177" unicode="ķ"/><glyph d="M543 2454v-39l-385 -404h-70l225 443h230zM995 279h70l-55 -279h-912v1868h236v-1757q276 -2 431.5 28.5t229.5 139.5z" glyph-name="Lacute" horiz-adv-x="1120" unicode="Ĺ"/><glyph d="M440 2415l-385 -404h-69l225 443h229v-39zM334 0h-236v1868h236v-1868z" glyph-name="lacute" horiz-adv-x="430" unicode="ĺ"/><glyph d="M995 279h70l-55 -279h-912v1868h236v-1757q276 -2 431.5 28.5t229.5 139.5zM506 -236v76h221q0 -305 -285 -481l-39 33q86 96 108 171.5t-5 200.5z" glyph-name="Lcommaaccent" horiz-adv-x="1120" unicode="Ļ"/><glyph d="M334 0h-236v1868h236v-1868zM92 -641l-39 33q86 96 107.5 172t-4.5 200v76h221q0 -305 -285 -481z" glyph-name="lcommaaccent" horiz-adv-x="430" unicode="ļ"/><glyph d="M995 279h70l-55 -279h-912v1868h236v-1757q276 -2 431.5 28.5t229.5 139.5zM795 1868h217l-142 -502h-75v502z" glyph-name="Lcaron" horiz-adv-x="1236" unicode="Ľ"/><glyph d="M334 0h-236v1868h236v-1868zM575 1366h-75v502h217z" glyph-name="lcaron" horiz-adv-x="794" unicode="ľ"/><glyph d="M995 279h70l-55 -279h-912v645l-98 -98l-63 63l161 162v1096h236v-862l106 106l62 -63l-168 -168v-770q276 -2 431.5 28.5t229.5 139.5z" glyph-name="Lslash" horiz-adv-x="1120" unicode="Ł"/><glyph d="M436 1409l62 -63l-164 -164v-1182h-236v946l-102 -102l-64 63l166 166v795h236v-561z" glyph-name="lslash" horiz-adv-x="430" unicode="ł"/><glyph d="M948 2415l-385 -404h-69l225 443h229v-39zM367 23v-25l-263 2v23q82 195 82 632v1213h238l754 -1630v972q0 444 -82 633v23l247 2v-25q-27 -68 -40 -180.5t-14 -191t-1 -261.5v-1210h-235l-756 1616v-961q0 -468 70 -632z" glyph-name="Nacute" horiz-adv-x="1439" unicode="Ń"/><glyph d="M866 2136v-39l-385 -403h-69l225 442h229zM1180 1188l2 -1188h-236v1231q0 221 -131 221q-104 0 -246.5 -133t-234.5 -313v-1006h-236v1550h236v-368q94 170 255 280.5t306 110.5q127 0 206 -95t79 -290z" glyph-name="nacute" horiz-adv-x="1277" unicode="ń"/><glyph d="M367 23v-25l-263 2v23q82 195 82 632v1213h238l754 -1630v972q0 444 -82 633v23l247 2v-25q-27 -68 -40 -180.5t-14 -191t-1 -261.5v-1210h-235l-756 1616v-961q0 -468 70 -632zM598 -641l-39 33q86 96 107.5 172t-4.5 200v76h221q0 -305 -285 -481z" glyph-name="Ncommaaccent" horiz-adv-x="1439" unicode="Ņ"/><glyph d="M1180 1188l2 -1188h-236v1231q0 221 -131 221q-104 0 -246.5 -133t-234.5 -313v-1006h-236v1550h236v-368q94 170 255 280.5t306 110.5q127 0 206 -95t79 -290zM580 -236v76h221q0 -305 -285 -481l-39 33q86 96 108 171.5t-5 200.5z" glyph-name="ncommaaccent" horiz-adv-x="1277" unicode="ņ"/><glyph d="M629 1942l-230 514h72l250 -361l246 361h73l-231 -514h-180zM367 23v-25l-263 2v23q82 195 82 632v1213h238l754 -1630v972q0 444 -82 633v23l247 2v-25q-27 -68 -40 -180.5t-14 -191t-1 -261.5v-1210h-235l-756 1616v-961q0 -468 70 -632z" glyph-name="Ncaron" horiz-adv-x="1439" unicode="Ň"/><glyph d="M958 2138l-231 -514h-180l-230 514h72l250 -360l246 360h73zM1180 1188l2 -1188h-236v1231q0 221 -131 221q-104 0 -246.5 -133t-234.5 -313v-1006h-236v1550h236v-368q94 170 255 280.5t306 110.5q127 0 206 -95t79 -290z" glyph-name="ncaron" horiz-adv-x="1277" unicode="ň"/><glyph d="M1096 1866l247 2v-25q-27 -68 -40 -180.5t-14 -191t-1 -261.5v-1210q0 -305 -287 -481l-38 32q190 211 90 449l-756 1616v-961q0 -469 70 -632v-25l-263 2v23q82 195 82 632v1213h238l754 -1630v972q0 444 -82 633v23z" glyph-name="Eng" horiz-adv-x="1439" unicode="Ŋ"/><glyph d="M1180 1188l2 -1188q0 -180 -101.5 -257t-326.5 -77v92q109 0 150.5 31t41.5 135v1307q0 221 -131 221q-104 0 -246.5 -133t-234.5 -313v-1006h-236v1550h236v-368q94 170 255 280.5t306 110.5q127 0 206 -95t79 -290z" glyph-name="eng" horiz-adv-x="1277" unicode="ŋ"/><glyph d="M1137 2107h-711v91h711v-91zM782 -31q-213 0 -371.5 134.5t-235.5 351.5t-77 481q0 172 46 341t129 309t216.5 227.5t293 87.5t293.5 -87.5t217 -227.5t129 -309t46 -341q0 -264 -76.5 -481t-235.5 -351.5t-374 -134.5zM782 80q131 0 224.5 76.5t140.5 209t66.5 270.5 t19.5 300q0 156 -19.5 293t-66.5 270t-140.5 212t-224.5 79q-449 0 -448 -854q0 -158 22.5 -299t70.5 -271t139 -208t216 -78z" glyph-name="Omacron" horiz-adv-x="1564" unicode="Ō"/><glyph d="M1040 1790h-710v90h710v-90zM686 -31q-276 0 -432 196.5t-156 596.5q0 403 157 611t431 208q254 0 422 -212t168 -607q0 -393 -167 -593t-423 -200zM686 80q354 0 354 682q0 346 -89 527t-265 181q-190 0 -271 -175t-81 -533q0 -352 79.5 -517t272.5 -165z" glyph-name="omacron" horiz-adv-x="1372" unicode="ō"/><glyph d="M676 1952l102 276l-170 -227l-119 -49l154 422l215 55l45 -33l-2 -4l133 37l43 -33l-295 -395zM782.5 1901q159.5 0 293.5 -87.5t217 -227.5t129 -309t46 -341q0 -264 -76.5 -481t-235.5 -351.5t-374 -134.5q-213 0 -371.5 134.5t-235.5 351.5t-77 481q0 172 46 341 t129 309t216.5 227.5t293 87.5zM782 80q131 0 224.5 76.5t140.5 209t66.5 270.5t19.5 300q0 156 -19.5 293t-66.5 270t-140.5 212t-224.5 79q-449 0 -448 -854q0 -158 22.5 -299t70.5 -271t139 -208t216 -78z" glyph-name="Ohungarumlaut" horiz-adv-x="1564" unicode="Ő"/><glyph d="M580 1634l102 277l-170 -228l-119 -49l154 422l215 55l45 -32l-2 -4l133 36l43 -32l-295 -396zM686 1581q254 0 422 -212t168 -607q0 -393 -167 -593t-423 -200q-276 0 -432 196.5t-156 596.5q0 403 157 611t431 208zM686 80q354 0 354 682q0 346 -89 527t-265 181 q-190 0 -271 -175t-81 -533q0 -352 79.5 -517t272.5 -165z" glyph-name="ohungarumlaut" horiz-adv-x="1372" unicode="ő"/><glyph d="M1831 279h67l-55 -279h-944v2q-260 12 -442.5 139t-267.5 327t-85 456q0 170 46.5 327.5t138.5 292.5t249.5 222t360.5 100v2h903l56 -279h-68q-74 109 -229.5 139.5t-425.5 28.5v-708h28q348 0 512 69h23l-2 -262h-21q-190 82 -512 82h-28v-827q295 -2 457.5 27.5 t238.5 140.5zM340 924q0 -195 56.5 -368t187.5 -303t315 -149v1680q-125 -12 -223 -71.5t-160.5 -146.5t-102.5 -199t-56.5 -221t-16.5 -222z" glyph-name="OE" horiz-adv-x="1970" unicode="Œ"/><glyph d="M2124 467h76l41 -234q-55 -109 -194.5 -185.5t-328.5 -76.5q-158 0 -300 81t-234 237q-78 -160 -208 -240t-290 -80q-276 0 -432 196.5t-156 596.5q0 403 157 611t431 208q154 0 282 -81t208 -238q92 152 240.5 235.5t318.5 83.5q254 0 380 -124t126 -306 q0 -190 -123 -339.5t-319.5 -227.5t-428.5 -78h-45q51 -203 167 -316.5t249 -113.5q123 0 226.5 99t156.5 292zM1761 1483q-178 0 -324.5 -186.5t-146.5 -493.5q0 -102 17 -205q193 2 339 52t227 131t120 169t39 178q0 174 -77 264.5t-194 90.5zM686 80q354 0 354 682 q0 346 -89 527t-265 181q-190 0 -271 -175t-81 -533q0 -352 79.5 -517t272.5 -165z" glyph-name="oe" horiz-adv-x="2375" unicode="œ"/><glyph d="M864 2454v-39l-385 -404h-69l225 443h229zM879 868q90 -23 140 -94.5t67.5 -170.5t28.5 -202.5t39 -216t81 -184.5h-227q-57 74 -82 188.5t-32 217t-25.5 197.5t-84 151.5t-186.5 56.5h-264v-811h-236v1868h611q213 0 332.5 -153.5t119.5 -371.5q0 -174 -75.5 -295 t-206.5 -180zM334 1757v-835h268q164 0 244 124.5t80 296.5q0 166 -80 290t-244 124h-268z" glyph-name="Racute" horiz-adv-x="1277" unicode="Ŕ"/><glyph d="M748 2097l-386 -403h-69l225 442h230v-39zM334 0h-236v1550h236v-448q59 53 138 147t129 151.5t132 103.5t176 46v-223q-272 0 -575 -356v-971z" glyph-name="racute" horiz-adv-x="970" unicode="ŕ"/><glyph d="M879 868q90 -23 140 -94.5t67.5 -170.5t28.5 -202.5t39 -216t81 -184.5h-227q-57 74 -82 188.5t-32 217t-25.5 197.5t-84 151.5t-186.5 56.5h-264v-811h-236v1868h611q213 0 332.5 -153.5t119.5 -371.5q0 -174 -75.5 -295t-206.5 -180zM334 1757v-835h268 q164 0 244 124.5t80 296.5q0 166 -80 290t-244 124h-268zM580 -236v76h221q0 -305 -285 -481l-39 33q86 96 108 171.5t-5 200.5z" glyph-name="Rcommaaccent" horiz-adv-x="1277" unicode="Ŗ"/><glyph d="M334 0h-236v1550h236v-448q59 53 138 147t129 151.5t132 103.5t176 46v-223q-272 0 -575 -356v-971zM33 -641l-39 33q86 96 107.5 172t-5.5 200v76h221q1 -305 -284 -481z" glyph-name="rcommaaccent" horiz-adv-x="970" unicode="ŗ"/><glyph d="M958 2456l-231 -514h-180l-230 514h72l250 -361l246 361h73zM879 868q90 -23 140 -94.5t67.5 -170.5t28.5 -202.5t39 -216t81 -184.5h-227q-57 74 -82 188.5t-32 217t-25.5 197.5t-84 151.5t-186.5 56.5h-264v-811h-236v1868h611q213 0 332.5 -153.5t119.5 -371.5 q0 -174 -75.5 -295t-206.5 -180zM334 1757v-835h268q164 0 244 124.5t80 296.5q0 166 -80 290t-244 124h-268z" glyph-name="Rcaron" horiz-adv-x="1277" unicode="Ř"/><glyph d="M428 1624l-229 514h71l250 -360l246 360h74l-232 -514h-180zM334 0h-236v1550h236v-448q59 53 138 147t129 151.5t132 103.5t176 46v-223q-272 0 -575 -356v-971z" glyph-name="rcaron" horiz-adv-x="970" unicode="ř"/><glyph d="M881 2419l-385 -404h-70l225 443h230v-39zM694 -31q-172 0 -340 80t-256 221l41 262h68q53 -205 194.5 -326.5t319.5 -121.5q180 0 270 91t90 198q0 92 -70.5 192.5t-176 183t-229.5 179t-229.5 180.5t-176 187.5t-70.5 199.5q0 193 145.5 299.5t358.5 106.5 q174 0 335.5 -59.5t252.5 -166.5l-41 -239h-70q-45 166 -196.5 264t-315.5 98q-125 0 -207 -59.5t-82 -169.5q0 -61 68.5 -139t171 -152t223.5 -167t225.5 -184t176 -207t75.5 -231q8 -229 -152.5 -374.5t-402.5 -145.5z" glyph-name="Sacute" horiz-adv-x="1314" unicode="Ś"/><glyph d="M791 2097l-385 -403h-70l225 442h230v-39zM608 -31q-143 0 -279 70t-223 201l41 229h89q33 -197 151.5 -306.5t253.5 -109.5q117 0 199 77t69 212q-8 86 -68.5 164t-145.5 133t-185 117.5t-186 119t-148.5 136.5t-73.5 168q-4 33 -4 45q0 174 135.5 266t319.5 92 q154 0 293 -58.5t196 -156.5l-41 -225h-90q-37 176 -148.5 268t-238.5 92q-109 0 -184.5 -59.5t-75.5 -153.5q0 -57 57.5 -118.5t143.5 -111.5t188.5 -118t191.5 -135.5t152.5 -165.5t71.5 -207q2 -18 2 -51q-4 -199 -140.5 -306.5t-322.5 -107.5z" glyph-name="sacute" horiz-adv-x="1132" unicode="ś"/><glyph d="M694 -31q-27 0 -80 4l-45 -137q227 -33 283 -178q45 -111 -33 -211q-84 -109 -233 -94q-74 8 -150 49l21 55q129 -51 205 25q61 63 30 149q-39 111 -205 131l60 222q-139 29 -259 101.5t-190 184.5l41 262h68q53 -205 194.5 -326.5t319.5 -121.5q180 0 270 91t90 198 q0 92 -70.5 192.5t-176 183t-229.5 179t-229.5 180.5t-176 187.5t-70.5 199.5q0 193 145.5 299.5t358.5 106.5q174 0 335.5 -59.5t252.5 -166.5l-41 -239h-70q-45 166 -196.5 264t-315.5 98q-125 0 -207 -59.5t-82 -169.5q0 -61 68.5 -139t171 -152t223.5 -167t225.5 -184 t176 -207t75.5 -231q8 -229 -152.5 -374.5t-402.5 -145.5z" glyph-name="Scedilla" horiz-adv-x="1314" unicode="Ş"/><glyph d="M608 -31q-43 0 -82 6l-45 -135q227 -33 283 -178q45 -111 -33 -211q-84 -109 -233 -94q-74 8 -150 49l21 55q129 -51 204 25q61 63 31 149q-39 111 -205 132l60 221q-227 61 -353 252l41 229h89q33 -197 151.5 -306.5t253.5 -109.5q117 0 199 77t69 212q-8 86 -68.5 164 t-145.5 133t-185 117.5t-186 119t-148.5 136.5t-73.5 168q-4 33 -4 45q0 174 135.5 266t319.5 92q154 0 293 -58.5t196 -156.5l-41 -225h-90q-37 176 -148.5 268t-238.5 92q-109 0 -184.5 -59.5t-75.5 -153.5q0 -57 57.5 -118.5t143.5 -111.5t188.5 -118t191.5 -135.5 t152.5 -165.5t71.5 -207q2 -18 2 -51q-4 -199 -140.5 -306.5t-322.5 -107.5z" glyph-name="scedilla" horiz-adv-x="1132" unicode="ş"/><glyph d="M563 1946l-229 514h72l249 -361l246 361h74l-232 -514h-180zM694 -31q-172 0 -340 80t-256 221l41 262h68q53 -205 194.5 -326.5t319.5 -121.5q180 0 270 91t90 198q0 92 -70.5 192.5t-176 183t-229.5 179t-229.5 180.5t-176 187.5t-70.5 199.5q0 193 145.5 299.5 t358.5 106.5q174 0 335.5 -59.5t252.5 -166.5l-41 -239h-70q-45 166 -196.5 264t-315.5 98q-125 0 -207 -59.5t-82 -169.5q0 -61 68.5 -139t171 -152t223.5 -167t225.5 -184t176 -207t75.5 -231q8 -229 -152.5 -374.5t-402.5 -145.5z" glyph-name="Scaron" horiz-adv-x="1314" unicode="Š"/><glyph d="M471 1624l-229 514h71l250 -360l246 360h74l-232 -514h-180zM608 -31q-143 0 -279 70t-223 201l41 229h89q33 -197 151.5 -306.5t253.5 -109.5q117 0 199 77t69 212q-8 86 -68.5 164t-145.5 133t-185 117.5t-186 119t-148.5 136.5t-73.5 168q-4 33 -4 45q0 174 135.5 266 t319.5 92q154 0 293 -58.5t196 -156.5l-41 -225h-90q-37 176 -148.5 268t-238.5 92q-109 0 -184.5 -59.5t-75.5 -153.5q0 -57 57.5 -118.5t143.5 -111.5t188.5 -118t191.5 -135.5t152.5 -165.5t71.5 -207q2 -18 2 -51q-4 -199 -140.5 -306.5t-322.5 -107.5z" glyph-name="scaron" horiz-adv-x="1132" unicode="š"/><glyph d="M76 1868h1397l55 -279h-70q-66 98 -203 132t-362 36v-1757h-148l-53 -160q227 -33 283 -178q45 -111 -33 -211q-84 -109 -233 -94q-74 8 -150 49l21 55q129 -51 204 25q61 63 31 149q-39 111 -205 132l64 233h-17v1757q-225 -2 -363 -35.5t-204 -132.5h-70z" glyph-name="Tcommaaccent" horiz-adv-x="1548" unicode="Ţ"/><glyph d="M526 -29q-45 0 -77 9l-48 -140q227 -33 283 -178q45 -111 -33 -211q-84 -109 -233 -94q-74 8 -150 49l21 55q129 -51 205 25q61 63 30 149q-39 111 -205 132l64 233h4q-104 45 -165.5 155.5t-61.5 280.5v1004h-123v110h123q55 35 105 196t50 263h78l2 -459h350v-110h-350 v-996q0 -197 48.5 -294t121.5 -97q86 0 169 119t108 297h69l41 -240q-84 -125 -197.5 -191.5t-228.5 -66.5z" glyph-name="tcommaaccent" horiz-adv-x="985" unicode="ţ"/><glyph d="M682 1942l-229 514h71l250 -361l246 361h74l-232 -514h-180zM893 0h-236v1757q-225 -2 -363 -35.5t-204 -132.5h-70l56 279h1397l55 -279h-70q-66 98 -203 132t-362 36v-1757z" glyph-name="Tcaron" horiz-adv-x="1548" unicode="Ť"/><glyph d="M526 -29q-156 0 -261 121t-105 344v1004h-123v110h123q55 35 105 196t50 263h78l2 -459h350v-110h-350v-996q0 -197 48.5 -294t121.5 -97q86 0 169 119t108 297h69l41 -240q-84 -125 -197.5 -191.5t-228.5 -66.5zM985 1366h-76v502h217z" glyph-name="tcaron" horiz-adv-x="1165" unicode="ť"/><glyph d="M76 1868h1397l55 -279h-70q-66 98 -203 132t-362 36v-778h119v-90h-119v-889h-236v889h-120v90h120v778q-225 -2 -363 -35.5t-204 -132.5h-70z" glyph-name="Tbar" horiz-adv-x="1548" unicode="Ŧ"/><glyph d="M842 469h69l41 -240q-84 -125 -197.5 -191.5t-228.5 -66.5q-156 0 -261 121t-105 344v295h-117v90h117v619h-123v110h123q55 35 105 196t50 263h78l2 -459h350v-110h-350v-619h123v-90h-123v-287q0 -197 48.5 -294t121.5 -97q86 0 169 119t108 297z" glyph-name="tbar" horiz-adv-x="985" unicode="ŧ"/><glyph d="M1034 2107h-710v91h710v-91zM684 -31q-117 0 -218 34t-186 103.5t-133.5 193.5t-48.5 292v1276h236l2 -1354q0 -133 36 -226t95 -135t110.5 -57.5t106.5 -15.5q59 0 110.5 15.5t109 57.5t91 134t33.5 227v1354h236v-1276q0 -168 -47.5 -293t-131.5 -194.5t-183 -102.5 t-218 -33z" glyph-name="Umacron" horiz-adv-x="1359" unicode="Ū"/><glyph d="M977 1790h-711v90h711v-90zM541 -35q-207 0 -325 133t-118 387v1067h236v-1120q0 -193 61.5 -281t189.5 -92t326 50v1441h236v-1550h-27q-129 20 -198.5 12t-187 -27.5t-193.5 -19.5z" glyph-name="umacron" horiz-adv-x="1243" unicode="ū"/><glyph d="M682 1929q-82 0 -135 65.5t-53 162t52 161t136 64.5q82 0 133 -64.5t51 -161t-51 -162t-133 -65.5zM682 2001q31 0 46 20.5t17.5 47t2.5 88.5q0 84 -12.5 118.5t-53.5 34.5t-54.5 -36t-13.5 -117q0 -45 1 -68t7.5 -46.5t20.5 -32.5t39 -9zM684 -31q-117 0 -218 34 t-186 103.5t-133.5 193.5t-48.5 292v1276h236l2 -1354q0 -133 36 -226t95 -135t110.5 -57.5t106.5 -15.5q59 0 110.5 15.5t109 57.5t91 134t33.5 227v1354h236v-1276q0 -168 -47.5 -293t-131.5 -194.5t-183 -102.5t-218 -33z" glyph-name="Uring" horiz-adv-x="1359" unicode="Ů"/><glyph d="M625 1612q-82 0 -135.5 65.5t-53.5 161.5t52.5 160.5t136.5 64.5q82 0 133 -64.5t51 -160.5t-51 -161.5t-133 -65.5zM625 1683q31 0 46 20.5t17 47.5t2 88q0 84 -12 119t-53 35t-54.5 -36t-13.5 -118q0 -45 1 -67.5t7 -46t20.5 -33t39.5 -9.5zM541 -35q-207 0 -325 133 t-118 387v1067h236v-1120q0 -193 61.5 -281t189.5 -92t326 50v1441h236v-1550h-27q-129 20 -198.5 12t-187 -27.5t-193.5 -19.5z" glyph-name="uring" horiz-adv-x="1243" unicode="ů"/><glyph d="M573 1952l103 276l-170 -227l-119 -49l154 422l215 55l45 -33l-2 -4l133 37l43 -33l-295 -395zM1028 514v1354h236v-1276q0 -168 -47.5 -293t-131.5 -194.5t-183 -102.5t-218 -33q-117 0 -218 34t-186 103.5t-133.5 193.5t-48.5 292v1276h236l2 -1354q0 -133 36 -226 t95 -135t110.5 -57.5t106.5 -15.5q59 0 110.5 15.5t109 57.5t91 134t33.5 227z" glyph-name="Uhungarumlaut" horiz-adv-x="1359" unicode="Ű"/><glyph d="M516 1634l102 277l-169 -228l-119 -49l153 422l215 55l45 -32l-2 -4l133 36l44 -32l-295 -396zM911 109v1441h236v-1550h-27q-129 20 -198.5 12t-187.5 -27.5t-193 -19.5q-207 0 -325 133t-118 387v1067h236v-1120q0 -193 61.5 -281t189 -91.5t326.5 49.5z" glyph-name="uhungarumlaut" horiz-adv-x="1243" unicode="ű"/><glyph d="M1028 514v1354h236v-1276q0 -260 -108.5 -407.5t-289.5 -192.5v-55q-63 0 -101 -49.5t-38 -137.5q0 -47 20.5 -73.5t49 -26.5t47.5 16l22 -61q-74 -86 -161 -86q-63 0 -106.5 53t-43.5 147q0 74 35 143.5t102 106.5h-8q-117 0 -218 34t-186 103.5t-133.5 193.5t-48.5 292 v1276h236l2 -1354q0 -133 36 -226t95 -135t110.5 -57.5t106.5 -15.5q59 0 110.5 15.5t109 57.5t91 134t33.5 227z" glyph-name="Uogonek" horiz-adv-x="1359" unicode="Ų"/><glyph d="M911 109v1441h236v-1616q-63 0 -101 -49t-38 -137q0 -47 20.5 -73.5t49 -26.5t46.5 16l23 -61q-74 -86 -162 -86q-63 0 -106 53t-43 147q0 109 70.5 196t201.5 87h12q-129 20 -198.5 12t-187.5 -27.5t-193 -19.5q-207 0 -325 133t-118 387v1067h236v-1120 q0 -193 61.5 -281t189 -91.5t326.5 49.5z" glyph-name="uogonek" horiz-adv-x="1243" unicode="ų"/><glyph d="M1192 1927l-246 361l-250 -361h-71l229 514h180l232 -514h-74zM1516 950l143 918h213l-205 -781l-289 -1087h-276l-180 766l-203 -766h-279l-438 1868h236l405 -1733l225 858l-204 875h235l404 -1729z" glyph-name="Wcircumflex" horiz-adv-x="1888" unicode="Ŵ"/><glyph d="M1225 1610l-246 360l-250 -360h-72l230 514h180l231 -514h-73zM1724 1550h218l-459 -1550h-162l-344 1153l-342 -1153h-162l-457 1550h234l364 -1235l232 779q94 324 43 456h209l364 -1231l140 467q43 143 61 210t44 167.5t32 155.5t3.5 118.5t-18.5 112.5z" glyph-name="wcircumflex" horiz-adv-x="1953" unicode="ŵ"/><glyph d="M803 1927l-246 361l-250 -361h-71l229 514h180l232 -514h-74zM948 1868h213l-450 -1043v-825h-236v825l-459 1043h236l401 -916l193 428q61 134 102 488z" glyph-name="Ycircumflex" horiz-adv-x="1114" unicode="Ŷ"/><glyph d="M793 1610l-246 360l-250 -360h-72l230 514h180l231 -514h-73zM842 1550h229l-369 -1341q8 -51 9 -115q0 -250 -142.5 -404.5t-361.5 -154.5q-117 0 -238 47l-78 225l78 41q150 -188 303 -188q104 0 171 94t67 250q0 133 -49 279l-445 1267h236l393 -1118l121 436 q49 180 62.5 314.5t13.5 367.5z" glyph-name="ycircumflex" horiz-adv-x="1093" unicode="ŷ"/><glyph d="M410 2087q-45 0 -79 33.5t-34 79.5q0 47 32.5 80.5t80 33.5t80 -33.5t32.5 -80.5q0 -45 -33.5 -79t-78.5 -34zM702 2087q-47 0 -80.5 33.5t-33.5 79.5q0 47 33.5 80.5t81 33.5t80 -33.5t32.5 -80.5q0 -45 -34 -79t-79 -34zM948 1868h213l-450 -1043v-825h-236v825 l-459 1043h236l401 -916l193 428q61 134 102 488z" glyph-name="Ydieresis" horiz-adv-x="1114" unicode="Ÿ"/><glyph d="M887 2415l-385 -404h-70l225 443h230v-39zM1266 0h-1229l979 1757h-158q-207 2 -315.5 -4t-227 -45t-172.5 -119h-67l55 279h1192l-977 -1757h326q233 2 372.5 34.5t206.5 133.5h70z" glyph-name="Zacute" horiz-adv-x="1316" unicode="Ź"/><glyph d="M791 2097l-385 -403h-70l225 442h230v-39zM1057 0h-1041l785 1440q-150 0 -235 -3t-189.5 -17.5t-170 -51.5t-106.5 -96h-67l55 278h1006l-783 -1439h174q225 2 357.5 35.5t199.5 132.5h70z" glyph-name="zacute" horiz-adv-x="1126" unicode="ź"/><glyph d="M659 2071q-57 0 -97 40.5t-40 96.5q0 57 40 97t97 40q55 0 96.5 -40t41.5 -97q0 -55 -41.5 -96t-96.5 -41zM1266 0h-1229l979 1757h-158q-207 2 -315.5 -4t-227 -45t-172.5 -119h-67l55 279h1192l-977 -1757h326q233 2 372.5 34.5t206.5 133.5h70z" glyph-name="Zdotaccent" horiz-adv-x="1316" unicode="Ż"/><glyph d="M563 1753q-57 0 -97 41t-40 96q0 57 40 97.5t97 40.5q55 0 96 -40t41 -98q0 -55 -41 -96t-96 -41zM1057 0h-1041l785 1440q-150 0 -235 -3t-189.5 -17.5t-170 -51.5t-106.5 -96h-67l55 278h1006l-783 -1439h174q225 2 357.5 35.5t199.5 132.5h70z" glyph-name="zdotaccent" horiz-adv-x="1126" unicode="ż"/><glyph d="M567 1942l-229 514h72l249 -361l246 361h74l-231 -514h-181zM1266 0h-1229l979 1757h-158q-207 2 -315.5 -4t-227 -45t-172.5 -119h-67l55 279h1192l-977 -1757h326q233 2 372.5 34.5t206.5 133.5h70z" glyph-name="Zcaron" horiz-adv-x="1316" unicode="Ž"/><glyph d="M471 1624l-229 514h71l250 -360l246 360h74l-232 -514h-180zM1057 0h-1041l785 1440q-150 0 -235 -3t-189.5 -17.5t-170 -51.5t-106.5 -96h-67l55 278h1006l-783 -1439h174q225 2 357.5 35.5t199.5 132.5h70z" glyph-name="zcaron" horiz-adv-x="1126" unicode="ž"/><glyph d="M694 -31q-172 0 -340 80t-256 221l41 262h68q53 -205 194.5 -326.5t319.5 -121.5q180 0 270 91t90 198q0 92 -70.5 192.5t-176 183t-229.5 179t-229.5 180.5t-176 187.5t-70.5 199.5q0 193 145.5 299.5t358.5 106.5q174 0 335.5 -59.5t252.5 -166.5l-41 -239h-70 q-45 166 -196.5 264t-315.5 98q-125 0 -207 -59.5t-82 -169.5q0 -61 68.5 -139t171 -152t223.5 -167t225.5 -184t176 -207t75.5 -231q8 -229 -152.5 -374.5t-402.5 -145.5zM530 -645l-38 33q86 96 107.5 171.5t-5.5 200.5v76h221q0 -305 -285 -481z" glyph-name="Scommaaccent" horiz-adv-x="1314" unicode="Ș"/><glyph d="M608 -31q-143 0 -279 70t-223 201l41 229h89q33 -197 151.5 -306.5t253.5 -109.5q117 0 199 77t69 212q-8 86 -68.5 164t-145.5 133t-185 117.5t-186 119t-148.5 136.5t-73.5 168q-4 33 -4 45q0 174 135.5 266t319.5 92q154 0 293 -58.5t196 -156.5l-41 -225h-90 q-37 176 -148.5 268t-238.5 92q-109 0 -184.5 -59.5t-75.5 -153.5q0 -57 57.5 -118.5t143.5 -111.5t188.5 -118t191.5 -135.5t152.5 -165.5t71.5 -207q2 -18 2 -51q-4 -199 -140.5 -306.5t-322.5 -107.5zM440 -641l-39 33q86 96 107.5 172t-4.5 200v76h221q0 -305 -285 -481 z" glyph-name="scommaaccent" horiz-adv-x="1132" unicode="ș"/><glyph d="M893 0h-236v1757q-225 -2 -363 -35.5t-204 -132.5h-70l56 279h1397l55 -279h-70q-66 98 -203 132t-362 36v-1757zM651 -641l-39 33q86 96 107.5 172t-4.5 200v76h221q0 -305 -285 -481z" glyph-name="uni021A" horiz-adv-x="1548" unicode="Ț"/><glyph d="M526 -29q-156 0 -261 121t-105 344v1004h-123v110h123q55 35 105 196t50 263h78l2 -459h350v-110h-350v-996q0 -197 48.5 -294t121.5 -97q86 0 169 119t108 297h69l41 -240q-84 -125 -197.5 -191.5t-228.5 -66.5zM360 -641l-38 33q86 96 107.5 172t-5.5 200v76h221 q0 -305 -285 -481z" glyph-name="uni021B" horiz-adv-x="985" unicode="ț"/><glyph d="M-100 1677h-68l-387 404v39h229z" glyph-name="gravecomb" unicode="̀"/><glyph d="M-100 2097l-385 -403h-70l225 442h230v-39z" glyph-name="acutecomb" unicode="́"/><glyph d="M-670 1610h-71l229 514h180l232 -514h-74l-246 360z" glyph-name="uni0302" unicode="̂"/><glyph d="M-248 1694q-68 0 -243 107.5t-230 107.5q-43 0 -61.5 -49.5t-10.5 -118.5h-71q0 82 19.5 138t51 79.5t56 32t49.5 8.5q84 0 255 -98.5t220 -98.5q63 0 39 162h74q0 -158 -38 -214t-110 -56z" glyph-name="tildecomb" unicode="̃"/><glyph d="M-86 1790h-711v90h711v-90z" glyph-name="uni0304" unicode="̄"/><glyph d="M-467 1675q-96 0 -169 35t-114 92.5t-60 120t-24 129.5h70q14 -104 81 -160.5t216 -56.5q145 0 211 55.5t88 161.5h68q-6 -70 -28 -130t-61.5 -118.5t-111.5 -93.5t-166 -35z" glyph-name="uni0306" unicode="̆"/><glyph d="M-238 1753q-57 0 -97 41t-40 96q0 57 40 97.5t97 40.5q55 0 96.5 -40t41.5 -98q0 -55 -41.5 -96t-96.5 -41z" glyph-name="uni0307" unicode="̇"/><glyph d="M-506 1769q-45 0 -78.5 34t-33.5 79q0 47 32.5 81t79.5 34t80 -34t33 -81q0 -45 -34 -79t-79 -34zM-213 1769q-47 0 -81 34t-34 79q0 47 34 81t81 34t80 -34t33 -81q0 -45 -34 -79t-79 -34z" glyph-name="uni0308" unicode="̈"/><glyph d="M-305 1657h-78v117q166 20 166 180q0 100 -64.5 131t-154.5 -6v78q156 45 246 -8.5t90 -188.5q0 -209 -205 -238v-65z" glyph-name="hookabovecomb" unicode="̉"/><glyph d="M-285 1612q-82 0 -135 65.5t-53 161.5t52 160.5t136 64.5q82 0 133.5 -64.5t51.5 -160.5t-51.5 -161.5t-133.5 -65.5zM-285 1683q31 0 46.5 20.5t17.5 47.5t2 88q0 84 -12.5 119t-53.5 35t-54 -36t-13 -118q0 -45 1 -67.5t7 -46t20 -33t39 -9.5z" glyph-name="uni030A" unicode="̊"/><glyph d="M-336 2075l133 36l43 -32l-295 -396l-106 -49l102 277l-170 -228l-119 -49l154 422l215 55l45 -32z" glyph-name="uni030B" unicode="̋"/><glyph d="M-500 1624l-229 514h72l249 -360l246 360h74l-231 -514h-181z" glyph-name="uni030C" unicode="̌"/><glyph d="M-139 2165l39 -33q-86 -96 -107.5 -172t4.5 -201v-76h-221q0 306 285 482z" glyph-name="uni0312" unicode="̒"/><glyph d="M-346 1724h-14v62h16q59 0 90 26.5t31 67.5q0 25 -37 79t-37 97q0 41 26.5 65.5t61.5 24.5q45 0 78 -39t33 -116q0 -115 -76 -191t-172 -76z" glyph-name="uni031B" unicode="̛"/><glyph d="M-238 -319q-57 0 -97 39.5t-40 95.5q0 57 40 98t97 41q55 0 96.5 -41t41.5 -98q0 -55 -41.5 -95t-96.5 -40z" glyph-name="dotbelowcomb" unicode="̣"/><glyph d="M-428 -641l-39 33q86 96 107.5 172t-5.5 200v76h222q0 -305 -285 -481z" glyph-name="uni0326" unicode="̦"/><glyph d="M-344 0l-53 -160q227 -33 282 -178q45 -111 -32 -211q-84 -109 -234 -94q-74 8 -149 49l20 55q129 -51 205 25q61 63 31 149q-39 111 -205 132l63 233h72z" glyph-name="uni0327" unicode="̧"/><glyph d="M-262 -483q-63 0 -106.5 53t-43.5 147q0 109 71 196t202 87h39v-66q-63 0 -101.5 -49t-38.5 -137q0 -47 20.5 -73.5t49.5 -26.5t47 16l23 -61q-74 -86 -162 -86z" glyph-name="uni0328" unicode="̨"/><glyph d="M-90 791h-475v90h475v-90z" glyph-name="uni0335" unicode="̵"/><glyph d="M-86 791h-711v90h711v-90z" glyph-name="uni0336" unicode="̶"/><glyph d="M-152 1065l62 -64l-502 -501l-63 63z" glyph-name="uni0337" unicode="̷"/><glyph d="M-629 -203h-90l531 2423h90z" glyph-name="uni0338" unicode="̸"/><glyph d="M946 2437l225 -442h-67l-387 403v39h229zM1516 950l143 918h213l-205 -781l-289 -1087h-276l-180 766l-203 -766h-279l-438 1868h236l405 -1733l225 858l-204 875h235l404 -1729z" glyph-name="Wgrave" horiz-adv-x="1888" unicode="Ẁ"/><glyph d="M979 2120l225 -443h-67l-387 404v39h229zM1724 1550h218l-459 -1550h-162l-344 1153l-342 -1153h-162l-457 1550h234l364 -1235l232 779q94 324 43 456h209l364 -1231l140 467q43 143 61 210t44 167.5t32 155.5t3.5 118.5t-18.5 112.5z" glyph-name="wgrave" horiz-adv-x="1953" unicode="ẁ"/><glyph d="M1171 2454v-39l-385 -404h-69l225 443h229zM1516 950l143 918h213l-205 -781l-289 -1087h-276l-180 766l-203 -766h-279l-438 1868h236l405 -1733l225 858l-204 875h235l404 -1729z" glyph-name="Wacute" horiz-adv-x="1888" unicode="Ẃ"/><glyph d="M1204 2136v-39l-385 -403h-69l225 442h229zM1724 1550h218l-459 -1550h-162l-344 1153l-342 -1153h-162l-457 1550h234l364 -1235l232 779q94 324 43 456h209l364 -1231l140 467q43 143 61 210t44 167.5t32 155.5t3.5 118.5t-18.5 112.5z" glyph-name="wacute" horiz-adv-x="1953" unicode="ẃ"/><glyph d="M799 2087q-45 0 -79 33.5t-34 79.5q0 47 33 80.5t80 33.5t79.5 -33.5t32.5 -80.5q0 -45 -33.5 -79t-78.5 -34zM1092 2087q-47 0 -81 33.5t-34 79.5q0 47 33.5 80.5t81 33.5t80 -33.5t32.5 -80.5q0 -45 -33.5 -79t-78.5 -34zM1516 950l143 918h213l-205 -781l-289 -1087 h-276l-180 766l-203 -766h-279l-438 1868h236l405 -1733l225 858l-204 875h235l404 -1729z" glyph-name="Wdieresis" horiz-adv-x="1888" unicode="Ẅ"/><glyph d="M831.5 1769q-45.5 0 -79 34t-33.5 79q0 47 32.5 81t80 34t80 -34t32.5 -81q0 -45 -33.5 -79t-79 -34zM1124 1769q-47 0 -80.5 34t-33.5 79q0 47 33.5 81t80.5 34t80 -34t33 -81q0 -45 -34 -79t-79 -34zM1724 1550h218l-459 -1550h-162l-344 1153l-342 -1153h-162 l-457 1550h234l364 -1235l232 779q94 324 43 456h209l364 -1231l140 467q43 143 61 210t44 167.5t32 155.5t3.5 118.5t-18.5 112.5z" glyph-name="wdieresis" horiz-adv-x="1953" unicode="ẅ"/><glyph d="M1122 1898l-311 -694q287 -129 420 -326.5t133 -408.5q0 -233 -127 -372.5t-295 -139.5q-131 0 -237.5 89t-155.5 263h80q39 -104 117.5 -160.5t166.5 -56.5q109 0 182.5 83t73.5 239q0 184 -161.5 363t-393.5 261l347 766h-248q-35 0 -54.5 -1t-55.5 -4t-57.5 -11 t-53 -23.5t-51 -38t-42 -58.5t-36 -80t-21.5 -106.5t-8 -135.5v-1346h-236v1243q0 188 41 318.5t122 203t183.5 103t243.5 30.5h434z" glyph-name="uni1E9E" horiz-adv-x="1460" unicode="ẞ"/><glyph d="M559 2437l225 -442h-67l-387 403v39h229zM948 1868h213l-450 -1043v-825h-236v825l-459 1043h236l401 -916l193 428q61 134 102 488z" glyph-name="Ygrave" horiz-adv-x="1114" unicode="Ỳ"/><glyph d="M549 2120l225 -443h-67l-388 404v39h230zM842 1550h229l-369 -1341q8 -51 9 -115q0 -250 -142.5 -404.5t-361.5 -154.5q-117 0 -238 47l-78 225l78 41q150 -188 303 -188q104 0 171 94t67 250q0 133 -49 279l-445 1267h236l393 -1118l121 436q49 180 62.5 314.5 t13.5 367.5z" glyph-name="ygrave" horiz-adv-x="1093" unicode="ỳ"/><glyph d="M971 530h-838v91h838v-91z" glyph-name="endash" horiz-adv-x="1042" unicode="–"/><glyph d="M1133 514h-996v90h996v-90z" glyph-name="emdash" horiz-adv-x="1196" unicode="—"/><glyph d="M362 2114l33 -15q-80 -154 -102.5 -272.5t-3.5 -267.5v-21h-189q27 137 98.5 295t163.5 281z" glyph-name="quoteleft" horiz-adv-x="495" unicode="‘"/><glyph d="M133 1423l-33 15q80 154 102.5 272.5t4.5 267.5v21h188q-27 -137 -98.5 -295t-163.5 -281z" glyph-name="quoteright" horiz-adv-x="495" unicode="’"/><glyph d="M133 -477l-33 14q80 154 102.5 272.5t4.5 268.5v20h188q-27 -137 -98.5 -294.5t-163.5 -280.5z" glyph-name="quotesinglbase" horiz-adv-x="495" unicode="‚"/><glyph d="M362 2015l33 -14q-80 -154 -102.5 -272.5t-3.5 -268.5v-20h-189q27 137 98.5 294.5t163.5 280.5zM645 2015l35 -14q-80 -154 -102.5 -272.5t-4.5 -268.5v-20h-190q27 137 98.5 294.5t163.5 280.5z" glyph-name="quotedblleft" horiz-adv-x="780" unicode="“"/><glyph d="M100 2001l33 14q92 -123 164 -280.5t98 -294.5h-188v20q18 150 -4.5 268.5t-102.5 272.5zM383 2001l35 14q92 -123 163.5 -280.5t98.5 -294.5h-191v20q18 150 -4 268.5t-102 272.5z" glyph-name="quotedblright" horiz-adv-x="780" unicode="”"/><glyph d="M133 -477l-33 14q80 154 102.5 272.5t4.5 268.5v20h188q-27 -137 -98.5 -294.5t-163.5 -280.5zM418 -477l-35 14q80 154 102.5 272.5t3.5 268.5v20h191q-27 -137 -98.5 -294.5t-163.5 -280.5z" glyph-name="quotedblbase" horiz-adv-x="780" unicode="„"/><glyph d="M567 326h-88l-65 757l59 240q-53 -2 -122.5 -47t-127 -45t-90.5 40t-33 97q0 55 33 96t90 41q55 0 126 -56t124 -58q-2 109 -51 195.5t-49 152.5q0 72 45 109.5t106.5 37.5t105.5 -38t44 -109q0 -66 -48 -153t-51 -195q55 0 125 57t127.5 57t90 -41t32.5 -96 q0 -57 -32.5 -97t-90 -40t-127 46t-125.5 46l58 -240z" glyph-name="dagger" horiz-adv-x="1050" unicode="†"/><glyph d="M567 344h-88l-49 668q-25 -6 -89.5 -45t-117.5 -39q-57 0 -90 40t-33 97q0 55 33 96t90 41q51 0 115.5 -49t85.5 -57v6l49 239q-53 -2 -122.5 -47t-127 -45t-90.5 40t-33 97q0 55 33 96.5t90 41.5q55 0 126 -57.5t124 -57.5q-2 109 -51 196t-49 152q0 72 45 111t106 39 q59 0 104.5 -39t45.5 -111q0 -66 -48 -152.5t-51 -195.5q57 -2 127 56.5t125 58.5q57 0 90 -41t33 -97q0 -57 -32.5 -97t-90 -40t-127 46t-127.5 46l50 -239v-8q27 10 89 59t115 49q57 0 90 -41t33 -96q0 -57 -32.5 -97t-90.5 -40q-53 0 -116.5 40t-92.5 46z" glyph-name="daggerdbl" horiz-adv-x="1050" unicode="‡"/><glyph d="M279 694q-82 0 -140.5 57.5t-58.5 137.5q0 84 58.5 142.5t140.5 58.5q80 0 138 -59.5t58 -141.5q0 -78 -58 -136.5t-138 -58.5z" glyph-name="bullet" horiz-adv-x="552" unicode="•"/><glyph d="M223 -31q-57 0 -97 41t-40 96q0 57 40 97.5t97 40.5q55 0 96 -40t41 -98q0 -55 -41 -96t-96 -41zM575 -31q-57 0 -98 41t-41 96q0 57 41 97.5t98 40.5q55 0 95.5 -40t40.5 -98q0 -55 -40.5 -96t-95.5 -41zM936 -31q-57 0 -97 41t-40 96q0 57 40 97.5t97 40.5q55 0 96 -40 t41 -98q0 -55 -41 -96t-96 -41z" glyph-name="ellipsis" horiz-adv-x="1159" unicode="…"/><glyph d="M328 938q-115 0 -170.5 93t-55.5 226.5t55.5 224.5t170.5 91q113 0 168 -91t55 -224.5t-55 -226.5t-168 -93zM252 0h-47l702 1550h47zM327.5 967q71.5 0 109.5 75.5t38 214.5q0 287 -147.5 287t-147.5 -287q0 -139 38 -214.5t109.5 -75.5zM825 -31q-115 0 -170 93.5 t-55 226.5t55.5 224t169.5 91q113 0 168.5 -91t55.5 -224t-55.5 -226.5t-168.5 -93.5zM1333.5 -31q-114.5 0 -170 93.5t-55.5 226.5t55.5 224t170 91t170 -91t55.5 -224t-55.5 -226.5t-170 -93.5zM825.5 -2q71.5 0 109.5 76t38 215q0 287 -147.5 286.5t-147.5 -286.5 q0 -139 38 -215t109.5 -76zM1333.5 -2q71.5 0 109.5 76t38 215q0 287 -147.5 286.5t-147.5 -286.5q0 -139 38 -215t109.5 -76z" glyph-name="perthousand" horiz-adv-x="1660" unicode="‰"/><glyph d="M616 246l-65 -41l-451 514l451 518l65 -41l-419 -477z" glyph-name="guilsinglleft" horiz-adv-x="716" unicode="‹"/><glyph d="M616 719l-450 -514l-66 41l420 473l-420 477l66 41z" glyph-name="guilsinglright" horiz-adv-x="716" unicode="›"/><glyph d="M182 0h-47l703 1550h47z" glyph-name="fraction" horiz-adv-x="985" unicode="⁄"/><glyph d="M1337 571h70l90 -194q-84 -178 -243.5 -290t-329.5 -112q-250 0 -453 198t-256 566h-117v88h109q-6 68 -6 140v39h-103v88h107q31 385 234.5 590.5t512.5 205.5q188 0 338 -105.5t193 -295.5l-99 -193h-69q-12 238 -123 372t-262 134q-178 0 -321.5 -184t-168.5 -524h410 v-88h-414v-39q0 -49 4 -140h410v-88h-399q39 -319 182 -493t323 -174q121 0 233.5 131.5t147.5 367.5z" glyph-name="Euro" horiz-adv-x="1593" unicode="€"/><glyph d="M115 1870h508l20 -101h-27q-41 59 -204 60v-637h-86v637q-164 0 -205 -60h-25zM940 1266l172 604h94v-678h-82v588l-166 -588h-75l-178 547v-309q0 -152 24 -216v-22h-94v22q31 72 31 216v428l-4 12h81z" glyph-name="trademark" horiz-adv-x="1306" unicode="™"/><glyph d="M852 743h-752v91h752v-91z" glyph-name="minus" horiz-adv-x="952" unicode="−"/><glyph d="M856 686q-47 0 -107.5 27.5t-112.5 64.5t-114 84q-49 39 -72.5 56.5t-65.5 43t-63.5 31.5t-49 5t-43 -21.5t-27 -60t-15.5 -101.5h-67q0 311 188 311q92 0 287 -147q174 -133 221 -158q135 -70 164 72q8 45 8 113h70q0 -320 -201 -320zM856 246q-47 0 -107.5 27.5 t-112.5 64.5t-114 84q-49 39 -72.5 56.5t-65.5 43t-63.5 31.5t-49 5t-43 -21.5t-27 -60.5t-15.5 -101h-67q0 311 188 311q92 0 287 -147q174 -133 221 -158q135 -70 164 72q8 45 8 112h70q0 -319 -201 -319z" glyph-name="approxequal" horiz-adv-x="1155" unicode="≈"/><glyph d="M852 967v-90h-320l-86 -175h406v-90h-449l-94 -190h-90l94 190h-213v90h256l86 175h-342v90h387l119 243h90l-118 -243h274z" glyph-name="notequal" horiz-adv-x="952" unicode="≠"/><glyph d="M219 768l557 -483v-107l-676 586v10l676 576v-107zM109 72v90h673v-90h-673z" glyph-name="lessequal" horiz-adv-x="880" unicode="≤"/><glyph d="M106 1243v107l676 -576v-10l-676 -586v107l558 483zM774 72h-674v90h674v-90z" glyph-name="greaterequal" horiz-adv-x="880" unicode="≥"/><glyph d="M631 -215h-21l-510 936l510 932h21l506 -932zM190 721l428 -782l429 782l-426 784z" glyph-name="lozenge" horiz-adv-x="1236" unicode="◊"/><glyph d="M821 1868l553 -1868h-215v82q0 152 -59 354l-86 299h-518l-213 -735h-220l222 745q-135 8 -231.5 78t-137.5 161t-41 192q0 117 55.5 197.5t149.5 80.5q63 0 106 -45t47 -125l-14 -22q-23 6 -43 6q-70 0 -116 -55.5t-46 -131.5q0 -92 74 -160.5t225 -76.5l303 1024h205z M756 1634l-228 -788h455z" glyph-name="A.salt" horiz-adv-x="1433"/><glyph d="M899 969v-15q162 -20 245 -140t83 -306q0 -195 -125 -351.5t-354 -156.5h-650v1798q-139 -4 -231 -63.5t-119 -149.5q-23 -74 -77 -101.5t-99 0t-45 89.5q0 119 160.5 206t410.5 89h602q147 0 248 -67.5t141.5 -167t40.5 -220.5q0 -152 -65.5 -281.5t-165.5 -162.5z M565 1757h-231v-749h311q135 0 208 104.5t73 267.5q0 176 -89.5 276.5t-271.5 100.5zM334 111h239q205 0 311.5 108.5t106.5 288.5t-94 284.5t-252 104.5h-311v-786z" glyph-name="B.salt" horiz-adv-x="1261"/><glyph d="M2345 -143l59 -41l-67 -230q-344 -104 -676 -104q-449 0 -804 185.5t-556 524t-201 775.5h-2q0 444 208 683.5t544 239.5q188 0 337.5 -105.5t192.5 -295.5l-98 -193h-70q-12 238 -122.5 372t-262.5 134q-197 0 -345 -218t-148 -617q0 -307 89 -559t247.5 -420t376 -259 t471.5 -91q403 0 827 219z" glyph-name="C.aalt" horiz-adv-x="1361"/><glyph d="M731 1868q274 0 433 -237.5t159 -661.5q0 -244 -81 -440.5t-217 -317.5t-306 -185.5t-361 -64.5q-270 0 -521 126t-415 364l15 260l59 41q145 -332 392 -514.5t507 -182.5q295 0 493.5 236.5t198.5 677.5q0 406 -131 600t-428 194h-194v-1495h-236v1530 q-147 0 -243.5 -59.5t-126.5 -153.5q-20 -74 -74.5 -101.5t-101 0t-46.5 89.5q0 121 167 208t425 87h633z" glyph-name="D.salt" horiz-adv-x="1357"/><glyph d="M1028 279h70l-56 -279h-944v1798q-139 -4 -231 -63.5t-119 -149.5q-23 -74 -77 -101.5t-99 0t-45 89.5q0 119 160.5 206t410.5 89h903l56 -279h-70q-74 109 -228.5 139.5t-424.5 28.5v-708h28q346 0 510 69h25l-2 -262h-23q-190 82 -510 82h-28v-827q295 -2 456.5 27.5 t237.5 140.5z" glyph-name="E.salt" horiz-adv-x="1107"/><glyph d="M1001 1868l56 -279h-70q-74 109 -228.5 139.5t-424.5 28.5v-708h28q346 0 510 69h25l-2 -262h-23q-190 82 -510 82h-28v-938h-236v1798q-139 -4 -231 -63.5t-119 -149.5q-23 -74 -77 -101.5t-99 0t-45 89.5q0 119 160.5 206t410.5 89h903z" glyph-name="F.aalt" horiz-adv-x="1107"/><glyph d="M647 498q0 121 166 208t424 87h188v-793h-61l-100 252q-57 -125 -190.5 -200t-291.5 -75q-100 0 -195 31t-185.5 101.5t-157 175t-106.5 261t-40 349.5q0 463 219.5 732t536.5 269q150 0 301.5 -68.5t276.5 -201.5l-50 -260h-77q-47 213 -160 322.5t-256 109.5 q-215 0 -385 -229.5t-170 -605.5q0 -233 40 -408.5t110.5 -274t152.5 -145.5t176 -47q166 0 287 175t135 460q-145 0 -241.5 -59.5t-125.5 -153.5q-20 -74 -74.5 -101.5t-100.5 0.5t-46 89z" glyph-name="G.aalt" horiz-adv-x="1527"/><glyph d="M1898 -326q45 0 79 -36.5t34 -102.5q0 -127 -143.5 -218t-327.5 -91q-115 0 -216 41t-189 128t-140.5 242.5t-52.5 362.5v836h-608v-836h-236v1868h236v-922h608v922h236v-1866q0 -367 108.5 -541t255.5 -174q98 0 171 72t75 176q2 66 34.5 102.5t75.5 36.5z" glyph-name="H.salt" horiz-adv-x="1273"/><glyph d="M139 1868h236v-1868h-236v1798q-145 -2 -240.5 -60.5t-125.5 -152.5q-20 -74 -74.5 -101.5t-101 0t-46.5 89.5q0 121 165 207t423 88z" glyph-name="I.aalt" horiz-adv-x="512"/><glyph d="M-543 209l41 256h62q180 -295 393 -442.5t412 -147.5q215 0 354 165t139 447v1381h236v-1297q0 -381 -202 -592.5t-515 -211.5q-223 0 -463 111.5t-457 330.5z" glyph-name="J.aalt" horiz-adv-x="1230"/><glyph d="M1255 1868l-479 -656q23 -156 143.5 -387t247.5 -461.5t158 -363.5h-235q-31 102 -131.5 292.5t-198.5 388.5t-129 333l-297 -408v-606h-236v1798q-139 -4 -231 -63.5t-119 -149.5q-23 -74 -77 -101.5t-99 0t-45 89.5q0 119 160.5 206t410.5 89h236v-1110l416 577 q92 127 146 240t67.5 161t27.5 132h264z" glyph-name="K.salt" horiz-adv-x="1421"/><glyph d="M995 279h70l-55 -279h-912v1798q-147 0 -243.5 -59.5t-126.5 -153.5q-20 -74 -74.5 -101.5t-101 0t-46.5 89.5q0 121 167 208t425 87h236v-1757q276 -2 431.5 28.5t229.5 139.5z" glyph-name="L.salt" horiz-adv-x="1134"/><glyph d="M2404 -137q45 0 78 -37t33 -102q0 -127 -143.5 -218.5t-325.5 -91.5q-115 0 -216 41t-190.5 128t-141.5 243t-52 364v1389l-451 -1579h-209l-489 1507v-852q0 -471 70 -635v-22l-263 2v20q82 195 82 635v1192l-6 19h6v2h217l541 -1661l473 1661h264v-1678 q0 -367 108.5 -540.5t256.5 -173.5q98 0 172 71.5t74 176.5q2 66 35.5 102.5t76.5 36.5z" glyph-name="M.salt" horiz-adv-x="1818"/><glyph d="M1096 1866l247 2v-25q-27 -68 -40 -180.5t-14 -191t-1 -261.5v-1210h-235l-756 1616v-961q0 -469 70 -632v-25l-263 2v23q82 195 82 632v1143q-147 0 -243.5 -59.5t-124.5 -153.5q-20 -74 -74.5 -101.5t-100.5 0t-46 89.5q0 121 165.5 208t423.5 87h238l754 -1630v972 q0 444 -82 633v23z" glyph-name="N.salt" horiz-adv-x="1439"/><glyph d="M582 1901q211 0 382 -79t279.5 -212t166.5 -306.5t58 -367.5q0 -264 -76.5 -481t-235.5 -351.5t-374 -134.5q-213 0 -371.5 133.5t-235.5 341t-77 453.5q0 360 204 590.5t495 230.5v-59q-141 0 -249 -105.5t-161 -277.5t-53 -379q0 -143 22.5 -278.5t70.5 -263.5 t140 -205.5t215 -77.5q131 0 224.5 77.5t140.5 212t66.5 273.5t19.5 301q0 137 -19.5 260t-66.5 241.5t-119 203.5t-186.5 137.5t-259.5 52.5q-147 0 -243.5 -59.5t-125.5 -153.5q-20 -74 -74.5 -101.5t-100.5 0t-46 89.5q0 121 166 208t424 87z" glyph-name="O.salt" horiz-adv-x="1562"/><glyph d="M764 1868q213 0 336 -153.5t123 -371.5q0 -250 -155 -391t-372 -141h-301v-811h-235v1798q-145 0 -241.5 -59.5t-127.5 -153.5q-20 -74 -74.5 -101.5t-100.5 0t-46 89.5q0 121 166 208t424 87h604zM395 922h269q164 0 243.5 124.5t79.5 296.5q0 166 -80 290t-243 124 h-269v-835z" glyph-name="P.aalt" horiz-adv-x="1257"/><glyph d="M1862 -375q401 0 809 180v-219q-328 -139 -676 -139q-387 0 -715 155.5t-481 366.5h-17q-213 0 -371.5 133.5t-235.5 341t-77 453.5q0 360 204 590.5t495 230.5v-59q-141 0 -249 -105.5t-161 -277.5t-53 -379q0 -143 22.5 -278.5t70.5 -263.5t140 -205.5t215 -77.5 q131 0 224.5 77.5t140.5 212t66.5 273.5t19.5 301q0 137 -19.5 260t-66.5 241.5t-119 203.5t-186.5 137.5t-259.5 52.5q-147 0 -243.5 -59.5t-125.5 -153.5q-20 -74 -74.5 -101.5t-100.5 0t-46 89.5q0 121 166 208t424 87q211 0 382 -79t279.5 -212t166.5 -306.5t58 -367.5 q0 -362 -145 -627.5t-405 -324.5q164 -168 408.5 -263.5t535.5 -95.5z" glyph-name="Q.aalt" horiz-adv-x="1564"/><glyph d="M879 868q90 -23 140 -94.5t67.5 -170.5t28.5 -202.5t39 -216t81 -184.5h-227q-57 74 -82 188.5t-32 217t-25.5 197.5t-84 151.5t-186.5 56.5h-264v-811h-236v1798q-145 0 -241.5 -59.5t-124.5 -153.5q-20 -74 -74.5 -101.5t-100.5 0t-46 89.5q0 121 165.5 208t421.5 87 h611q213 0 332.5 -153.5t119.5 -371.5q0 -174 -75.5 -295t-206.5 -180zM334 1757v-835h268q164 0 244 124.5t80 296.5q0 166 -80 290t-244 124h-268z" glyph-name="R.salt" horiz-adv-x="1331"/><glyph d="M672 -135q-205 0 -381 93t-275.5 261t-74.5 367l139 219h61q-8 -66 -8 -146q0 -291 149.5 -487.5t428.5 -196.5q168 0 292.5 93.5t124.5 244.5q0 94 -55 190.5t-143 179.5t-194.5 166t-213 163t-194.5 158.5t-143.5 165.5t-55.5 171q0 184 145.5 289t358.5 105 q176 0 338 -59.5t250 -166.5l-41 -239h-62q-47 168 -203.5 267t-324.5 99q-125 0 -206 -58t-81 -167q0 -55 54.5 -120.5t141.5 -132.5t193.5 -141.5t212 -158.5t192.5 -172t141 -195.5t54 -214.5q0 -141 -52 -253.5t-141 -182t-197.5 -105.5t-229.5 -36z" glyph-name="S.salt" horiz-adv-x="1347"/><glyph d="M903 0h-235v1757h-140q-106 0 -185 -25.5t-124 -71.5t-67.5 -88t-38.5 -95q-16 -57 -52 -88t-77 -31q-43 0 -72 28.5t-29 77.5q0 61 43 128t128 131.5t237.5 105.5t345.5 41l498 -2q106 0 186 26.5t125 74.5t69.5 91t40.5 97q16 57 52.5 86.5t77.5 29.5q39 0 66.5 -27.5 t27.5 -76.5q0 -61 -43 -129t-128 -133.5t-237.5 -108.5t-345.5 -43l-123 2v-1757z" glyph-name="T.salt" horiz-adv-x="1290"/><glyph d="M1028 514v1354h236v-1276q0 -168 -47.5 -293t-131.5 -194.5t-183 -102.5t-218 -33q-117 0 -218 34t-186 103.5t-133.5 193.5t-48.5 292v1206q-141 -2 -233 -61.5t-121 -151.5q-23 -74 -77 -101.5t-99 0t-45 89.5q0 119 161.5 206t413.5 89h236l2 -1354q0 -133 36 -226 t95 -135t110.5 -57.5t106.5 -15.5q59 0 110.5 15.5t109 57.5t91 134t33.5 227z" glyph-name="U.salt" horiz-adv-x="1359"/><glyph d="M1573 2114q63 0 98 -33t35 -78q0 -90 -111 -121q-82 -18 -149.5 -53t-139 -100.5t-130 -179t-101.5 -271.5l-340 -1278h-280l-439 1868h236l405 -1735l340 1294q162 608 531 682q33 5 45 5z" glyph-name="V.aalt" horiz-adv-x="1251"/><glyph d="M2220 2114q63 0 98 -33t35 -78q0 -90 -110 -121q-82 -18 -150 -53t-139.5 -100.5t-130 -179t-101.5 -271.5l-340 -1278h-280l-176 750l-199 -750h-289l-438 1868h236l409 -1751l227 860l-208 891h235l406 -1735l340 1294q162 608 530 682q33 5 45 5z" glyph-name="W.aalt" horiz-adv-x="1898"/><glyph d="M1907 2171q68 -14 101.5 -50t33.5 -77q0 -43 -32 -74t-87 -31q-18 0 -29 3q-70 8 -104 8q-344 0 -561 -334l-434 -672l503 -944h-235l-397 745l-109 -165q-74 -115 -156 -293t-82 -287h-288l571 864l-536 1004h235l430 -805l385 584q98 154 204.5 263t203 163.5t173.5 78 t146 23.5q46 0 64 -4z" glyph-name="X.aalt" horiz-adv-x="1425"/><glyph d="M711 0h-236v825l-459 1043h236l401 -916l193 428q55 125 86 189.5t78 162t77.5 148.5t73.5 115.5t78 97.5t78 59.5t88 34.5q14 2 43 2q59 0 92 -28.5t33 -67.5q0 -37 -28.5 -68.5t-80.5 -44.5q-129 -27 -275.5 -213t-244.5 -411l-233 -531v-825z" glyph-name="Y.aalt" horiz-adv-x="1114"/><glyph d="M346 111h326q231 0 371.5 33.5t207.5 134.5h70l-55 -279h-1229l1003 1798h-501q-147 0 -243.5 -59.5t-125.5 -153.5q-20 -74 -74.5 -101.5t-100.5 0t-46 89.5q0 121 166 208t422 87h786z" glyph-name="Z.aalt" horiz-adv-x="1316"/><glyph d="M33 1544q0 127 146.5 225.5t436.5 98.5l-18 -62q-156 0 -239 -89t-83 -212q0 -74 27 -133q-45 -10 -76 -10q-86 0 -140 53t-54 129zM821 1868l553 -1868h-215v82q0 152 -59 354l-86 299h-518l-213 -735h-220l553 1868h205zM756 1634l-228 -788h455z" glyph-name="A.ss02" horiz-adv-x="1433"/><glyph d="M899 969v-15q160 -20 255 -150t95 -306q0 -127 -54 -246t-160.5 -222.5t-292 -166t-423.5 -62.5q-473 0 -917 222l-18 237l73 31q223 -201 435 -298t384 -102q190 -6 341 43.5t239 136.5t134 190.5t46 213.5q0 176 -106.5 299t-288.5 123h-307v-879h-236v1780 q-145 -2 -240.5 -60.5t-125.5 -152.5q-20 -74 -74.5 -101.5t-100.5 0t-46 89.5q0 121 164.5 207t422.5 88h602q147 0 248 -67.5t141.5 -167t40.5 -220.5q0 -152 -65.5 -281.5t-165.5 -162.5zM334 1008h307q135 0 211 104.5t76 267.5q0 176 -93.5 276.5t-281.5 100.5h-219 v-749z" glyph-name="B.ss02" horiz-adv-x="1261"/><glyph d="M731 1868q281 0 436.5 -225.5t155.5 -673.5q0 -201 -38 -366t-102.5 -275.5t-151.5 -185t-181 -108.5t-195 -34h-557v1798q-143 -2 -238.5 -60.5t-125.5 -152.5q-20 -74 -74.5 -101.5t-99.5 0t-45 89.5q0 121 164.5 207t418.5 88h633zM334 104h65q135 0 234.5 19.5 t189.5 76t145.5 150.5t87 249t31.5 370q0 428 -129 611t-430 183h-194v-1659z" glyph-name="D.ss02" horiz-adv-x="1357"/><glyph d="M2337 -250l59 -41l-67 -225q-449 -135 -861 -135q-614 0 -992 291.5t-378 797.5v1360q-145 -2 -240.5 -60.5t-125.5 -152.5q-20 -74 -74.5 -101.5t-99.5 0t-45 89.5q0 121 164.5 207t420.5 88h903l56 -279h-70q-74 109 -229.5 139.5t-423.5 28.5v-837l37 4q342 0 501 69 h25l-2 -262h-23q-188 82 -503 82l-35 4v-379q0 -459 270 -710.5t719 -251.5q471 0 1014 274z" glyph-name="E.ss02" horiz-adv-x="1107"/><glyph d="M942 946v922h236v-1868h-236v836h-608v-836h-236v1798q-145 0 -241.5 -59.5t-124.5 -153.5q-20 -74 -74.5 -101.5t-100.5 0t-46 89.5q0 121 165.5 208t421.5 87h236v-922h608z" glyph-name="H.ss02" horiz-adv-x="1273"/><glyph d="M3240 -295l59 -41l-84 -233q-322 -66 -620 -66q-1452 0 -1956 1657l-305 -416v-606h-236v1798q-145 0 -241.5 -59.5t-124.5 -153.5q-20 -74 -74.5 -101.5t-100.5 0t-46 89.5q0 121 165.5 208t421.5 87h236v-1110l416 577q92 127 146 240t67.5 161t27.5 132h264l-497 -682 q223 -827 637.5 -1225.5t1023.5 -398.5q368 0 821 143z" glyph-name="K.ss02" horiz-adv-x="1421"/><glyph d="M2337 -246l59 -41l-67 -229q-444 -133 -846 -133q-614 0 -989 293t-377 794h-4v1360q-145 -2 -240.5 -60.5t-124.5 -152.5q-23 -74 -77 -101.5t-99 0t-45 89.5q0 121 165 207t421 88h235v-1430q-2 -459 265.5 -711.5t711.5 -252.5q469 -1 1012 280z" glyph-name="L.ss02" horiz-adv-x="653"/><glyph d="M944 207l473 1661h264v-1868h-225v1616l-461 -1616h-209l-489 1507v-852q0 -225 13.5 -359t56.5 -235v-63l-263 2v61q82 195 82 594v1143q-143 -2 -238 -60.5t-126 -152.5q-20 -74 -74.5 -101.5t-99.5 0t-45 89.5q0 119 161.5 206t415.5 89h223z" glyph-name="M.ss02" horiz-adv-x="1818"/><glyph d="M367 23v-25l-263 2v23q82 195 82 632v1213h238l754 -1630v1097q0 457 232 710t661 253q268 0 595 -103l68 -190l-59 -41q-393 170 -686 170q-147 0 -266 -44t-199 -121t-134.5 -184.5t-78 -229t-23.5 -261.5v-1294h-235l-756 1616v-961q0 -468 70 -632z" glyph-name="N.ss02" horiz-adv-x="1439"/><glyph d="M1905 -500q197 0 440 66v-168q-229 -49 -432 -49q-160 0 -294 33.5t-229.5 86t-176 136.5t-130 161.5t-94.5 188.5t-68.5 189.5t-50.5 189.5q-4 20 -14 61q-16 74 -26.5 111t-28 95t-34.5 88t-42 62.5t-56.5 46t-70.5 13.5h-264v-811h-236v1798q-139 -4 -231 -62.5 t-121 -150.5q-20 -74 -74.5 -101.5t-99.5 0t-45 89.5q0 119 160.5 206t410.5 89h611q213 0 332.5 -153.5t119.5 -371.5q0 -184 -87 -309t-230 -180q43 -16 76.5 -55t54 -77t42 -112.5t30 -117.5t26.5 -138q23 -98 41.5 -167.5t53 -166t74.5 -163t103.5 -139t139.5 -116.5 t183.5 -73t236.5 -29zM334 922h268q164 0 244 124.5t80 296.5q0 166 -80 290t-244 124h-268v-835z" glyph-name="R.ss02" horiz-adv-x="1331"/><glyph d="M496 -254q-193 0 -356 64.5t-270.5 203t-107.5 326.5q0 238 169 379t382 141q184 0 295 -104q33 -33 33 -70q0 -39 -31.5 -69.5t-79.5 -30.5q-39 0 -86 24q-123 74 -219 74q-117 0 -180 -97.5t-63 -246.5q0 -233 167.5 -361.5t401.5 -128.5q229 0 400 126t171 346 q0 106 -54 206.5t-142 182.5t-194.5 160.5t-212 154.5t-193.5 149.5t-142.5 159.5t-54.5 172q0 184 145.5 289t358.5 105q176 0 336.5 -59.5t251.5 -166.5l-41 -239h-70q-45 168 -195.5 264t-314.5 96q-127 0 -209 -59.5t-82 -169.5q0 -53 54.5 -112.5t140.5 -121 t189.5 -130t208 -152.5t190.5 -176.5t140 -213t54 -251.5q0 -160 -68.5 -289t-181 -210t-251.5 -123t-289 -42z" glyph-name="S.ss02" horiz-adv-x="1347"/><glyph d="M401 -61q-201 0 -348 122.5t-147 337.5q0 188 108.5 297t245.5 109q78 0 141 -35q80 -49 80 -123q0 -45 -32.5 -77.5t-77.5 -32.5q-47 0 -88 32q-39 33 -99 33q-66 0 -110.5 -51t-44.5 -164q0 -150 95 -240t224 -90q131 0 225.5 98.5t94.5 284.5v1317h-140 q-106 0 -185 -25.5t-124 -71.5t-67.5 -88t-38.5 -95q-16 -57 -52 -88t-77 -31q-43 0 -72 28.5t-29 77.5q0 61 43 128t128 131.5t237.5 105.5t345.5 41l498 -2q106 0 186 26.5t125 74.5t69.5 91t40.5 97q16 57 52.5 86.5t77.5 29.5q39 0 66.5 -27.5t27.5 -76.5 q0 -61 -43 -129t-128 -133.5t-237.5 -108.5t-345.5 -43l-123 2v-1317q0 -240 -148.5 -370.5t-353.5 -130.5z" glyph-name="T.ss02" horiz-adv-x="1282"/><glyph d="M2560 1950l68 -193l-60 -41q-684 373 -1030 373q-141 0 -207.5 -61.5t-66.5 -159.5v-1276q0 -168 -47.5 -293t-131.5 -194.5t-183 -102.5t-218 -33q-117 0 -218 34t-186 103.5t-133.5 193.5t-48.5 292v1206q-141 -2 -233 -61.5t-121 -151.5q-23 -74 -77 -101.5t-99 0 t-45 89.5q0 119 161.5 206t413.5 89h236l2 -1354q0 -133 36 -226t95 -135t110.5 -57.5t106.5 -15.5q59 0 110.5 15.5t109 57.5t91 134t33.5 227v1354q0 139 146.5 228t408.5 89q420 1 977 -235z" glyph-name="U.ss02" horiz-adv-x="1359"/><glyph d="M2793 -166l60 -41l-68 -231q-487 -160 -792 -160q-156 0 -271.5 42t-200.5 132t-143.5 200.5t-120.5 278.5l-217 680h-569l-215 -735h-219l534 1798q-154 -2 -233.5 -90t-79.5 -211q0 -74 27 -135q-47 -10 -80 -10q-94 0 -152.5 54t-58.5 134q0 127 151.5 226.5 t448.5 101.5h205l590 -1813q25 -74 47 -127t69 -128.5t104.5 -124t150.5 -83t206 -34.5q327 0 827 276zM1006 846l-263 825l-241 -825h504z" glyph-name="A.ss03" horiz-adv-x="1433"/><glyph d="M1898 -326q45 0 79 -36.5t34 -102.5q0 -127 -143.5 -218t-327.5 -91q-115 0 -216 41t-189 128t-140.5 242.5t-52.5 362.5v836h-608v-836h-236v1798q-139 -4 -231 -63.5t-119 -149.5q-23 -74 -77 -101.5t-99 0t-45 89.5q0 119 160.5 206t410.5 89h236v-922h608v922h236 v-1866q0 -367 108.5 -541t255.5 -174q98 0 171 72t75 176q2 66 34.5 102.5t75.5 36.5z" glyph-name="H.ss03" horiz-adv-x="1273"/><glyph d="M1481 -649q-406 0 -716 130t-486.5 377.5t-176.5 579.5h-4v1430h236v-1430q-2 -459 268 -711.5t719 -252.5q473 0 1016 280l59 -41l-67 -229q-445 -133 -848 -133z" glyph-name="L.ss03" horiz-adv-x="595"/><glyph d="M2404 -137q45 0 78 -37t33 -102q0 -127 -143.5 -218.5t-325.5 -91.5q-115 0 -216 41t-190.5 128t-141.5 243t-52 364v1389l-451 -1579h-209l-489 1507v-852q0 -471 70 -635v-22l-263 2v20q82 195 82 635v1192l-2 6v-55q-147 0 -243.5 -59.5t-124.5 -153.5 q-23 -74 -77 -101.5t-99.5 0t-45.5 89.5q0 121 166 208t424 87v-2h2v2h217l541 -1661l473 1661h264v-1678q0 -367 108.5 -540.5t256.5 -173.5q98 0 172 71.5t74 176.5q2 66 35.5 102.5t76.5 36.5z" glyph-name="M.ss03" horiz-adv-x="1818"/><glyph d="M942 946v922h236v-1868h-236v836h-608v-836h-236v852q-207 20 -335 103t-128 186q0 61 45.5 88.5t99.5 0t77 -101.5q23 -72 85 -125t156 -73v938h236v-922h608z" glyph-name="H.ss04" horiz-adv-x="1273"/><glyph d="M254 1753q-57 0 -97 41t-40 96q0 57 40 97.5t97 40.5q55 0 96 -40t41 -98q0 -55 -41 -96t-96 -41zM373 0h-236v1550h236v-1550z" glyph-name="i.aalt" horiz-adv-x="505"/><glyph d="M733 203q193 -35 310.5 -131.5t117.5 -256t-149.5 -271t-448.5 -111.5q-197 0 -339 76.5t-187 148.5l29 250h59q49 -186 182 -284.5t287 -98.5q141 0 240.5 80t99.5 219q0 143 -114.5 212.5t-313.5 69.5q-100 0 -195 -14v111q39 6 131 14q-403 102 -403 655 q0 344 157.5 521.5t432.5 177.5q139 0 262 -60q86 20 141 105.5t55 171.5h43l84 -178q-59 -141 -249 -142h-2q254 -182 254 -596q0 -299 -134.5 -467.5t-349.5 -201.5zM274 872q0 -301 80 -442t275 -141q352 0 352 583q0 295 -89 450t-263 155q-193 0 -274 -150t-81 -455z " glyph-name="glyph389" horiz-adv-x="1267"/><glyph d="M1907 -584q-483 0 -789.5 335t-593.5 1162l-190 -215v-696h-236v1868h236v-1055l274 311q285 319 271 424h221l-432 -483q178 -553 359 -876.5t372.5 -455.5t439.5 -132q268 0 760 204l59 -40l-67 -240q-422 -111 -684 -111z" glyph-name="glyph390" horiz-adv-x="1177"/><glyph d="M446 -29q-166 0 -277.5 120t-111.5 329q0 156 42 265.5t107.5 165.5t157 99t177.5 64.5t182 60.5t160 88q-8 162 -67.5 245t-156.5 83q-129 0 -294.5 -136t-325.5 -386h-62l-40 241q449 373 772 373q193 0 300 -132t107 -353v-1098h-233v313l-6 -4q-70 -174 -186 -256 t-245 -82zM504 109q113 0 221.5 121.5t157.5 297.5v523q-72 -47 -173.5 -90t-166 -72t-127 -80t-93 -138t-30.5 -220q0 -162 57.5 -252t153.5 -90z" glyph-name="a.salt" horiz-adv-x="1212"/><glyph d="M772 1583q190 0 317.5 -210t127.5 -554q0 -401 -159 -628.5t-411 -227.5q-59 0 -245.5 27.5t-303.5 9.5v1862q-698 -164 -972 59q-113 92 -78 172q25 57 100 57q66 -2 117 -57q121 -131 307 -178t378.5 -21.5t383.5 105.5v-858h6q170 442 432 442zM582 76 q186 0 295.5 186.5t109.5 548.5q0 293 -73.5 461t-188.5 168q-106 0 -210.5 -145.5t-180.5 -395.5v-780q14 -4 73.5 -17.5t98.5 -19.5t76 -6z" glyph-name="b.aalt" horiz-adv-x="1292"/><glyph d="M2191 -156l-67 -229q-328 -100 -645 -100q-319 0 -592 104.5t-457 281.5t-288.5 412.5t-104.5 495.5q0 354 175 564t415 210q266 0 417 -256l-90 -178h-69q-8 166 -81 256t-177 90q-141 0 -250 -182.5t-109 -505.5q0 -504 288 -815t767 -311q381 0 809 204z" glyph-name="c.aalt" horiz-adv-x="1148"/><glyph d="M1544 -596q-90 0 -174 23.5t-165 81t-140 144.5t-96 224t-37 309l10 52q-82 -127 -192.5 -197t-225.5 -70q-197 0 -332 200t-135 587q0 399 165 621.5t413 222.5q145 0 295 -82v473h235v-1803q0 -360 108.5 -545.5t252.5 -185.5q100 0 171.5 91.5t74.5 238.5l24 31 q84 -2 131 -47t47 -111q0 -100 -128 -179t-302 -79zM565 100q100 0 201.5 80t165.5 197l-2 1016q-147 90 -273 90q-180 0 -282.5 -186.5t-102.5 -538.5q0 -344 82 -501t211 -157z" glyph-name="d.salt" horiz-adv-x="1261"/><glyph d="M1440 1866l223 -76q178 -377 178 -721q0 -248 -93 -459t-243.5 -346t-334 -209.5t-369.5 -74.5q-150 0 -282 50t-236.5 147t-165 259t-60.5 367q0 352 200 565t480 213q258 0 382 -123t124 -307q0 -195 -131 -337t-332.5 -213t-451.5 -83q61 -219 210.5 -333.5 t338.5 -114.5q137 0 269 61.5t239.5 172t174 287.5t66.5 388q0 401 -233 854zM745 1473q-215 0 -333.5 -185.5t-118.5 -484.5q0 -100 16 -199q373 35 550 187.5t177 343.5q0 137 -85 237.5t-206 100.5z" glyph-name="e.aalt" horiz-adv-x="1298"/><glyph d="M381 1866q0 -129 133 -316h229v-110h-225v-1440q0 -121 -61.5 -196.5t-171 -111.5t-224 -56.5t-255 -52.5t-230.5 -77l-70 205l60 41q100 20 277 -9.5t229 -29.5q102 0 156.5 62.5t54.5 224.5v1440h-185v110h185q-84 133 -84 252q0 139 105.5 225.5t250.5 86.5 q139 0 246 -80l-62 -158h-69q-84 115 -183 115q-47 0 -76.5 -33t-29.5 -92z" glyph-name="f.aalt" horiz-adv-x="774"/><glyph d="M598 -567q-197 0 -339 76.5t-187 148.5l28 250h62q49 -186 182 -284.5t287 -98.5q141 0 240.5 80t99.5 219q0 143 -115 212.5t-313 69.5q-98 0 -197 -14v111q92 12 131 14q-401 104 -401 655q0 344 156.5 521.5t431.5 177.5q246 0 405 -170q2 170 53.5 305t131 211 t165.5 115t172 39q94 0 155.5 -45.5t61.5 -122.5q0 -51 -45 -91q-78 66 -186 66q-168 0 -303 -147.5t-139 -409.5q119 -178 118 -449q0 -295 -131 -463.5t-344 -205.5q201 -37 310.5 -143.5t109.5 -243.5q0 -160 -150.5 -271.5t-449.5 -111.5zM664 289q354 0 354 583 q0 295 -89 450t-265 155q-190 0 -271.5 -149.5t-81.5 -455.5q0 -301 80 -442t273 -141z" glyph-name="g.salt" horiz-adv-x="1382"/><glyph d="M1180 1188l2 -1188h-236v1114q0 299 -162 297q-131 0 -301 -186q-86 -94 -149 -205v-1020h-236v1860q-698 -164 -972 59q-113 92 -78 172q25 57 100 57q66 -2 117 -57q121 -131 307 -178t378.5 -21.5t383.5 105.5v-807q98 164 257 273.5t300 109.5q133 0 211 -93t78 -292 z" glyph-name="h.salt" horiz-adv-x="1277"/><glyph d="M1100 1550l-424 -477q27 -55 136.5 -250.5t188 -385t142.5 -435.5h-236q-51 219 -125.5 393t-152.5 312.5t-105 205.5l-190 -215v-696h-236v1862q-698 -164 -972 59q-113 92 -78 172q25 57 100 57q66 -2 117 -57q121 -131 307 -178t378.5 -21.5t383.5 105.5v-1186 l274 311q285 319 271 424h221z" glyph-name="k.aalt" horiz-adv-x="1177"/><glyph d="M1055 -137q45 0 78.5 -37t33.5 -102q0 -127 -143 -218.5t-328 -91.5q-115 0 -216 41t-189 128t-140.5 243t-52.5 364v1678h236v-1678q0 -367 108.5 -540.5t255.5 -173.5q98 0 171 71.5t75 176.5q2 66 35 102.5t76 36.5z" glyph-name="l.salt" horiz-adv-x="430"/><glyph d="M2771 -137q45 0 79 -37t34 -102q0 -127 -143.5 -218.5t-327.5 -91.5q-115 0 -216.5 41t-189.5 128t-140 243t-52 364v908q0 174 -46.5 259t-123.5 85q-104 0 -232.5 -140.5t-212.5 -347.5l2 -954h-235v1098q0 174 -47.5 257t-126.5 83q-111 0 -246 -150.5t-213 -374.5 v-913h-236v1538h236v-453q111 242 258 368t291 126q150 0 230.5 -115.5t84.5 -339.5q111 225 253 340t280 115q141 0 230 -114.5t89 -317.5v-957q0 -367 108.5 -540.5t256.5 -173.5q98 0 170.5 71.5t74.5 176.5q2 66 35 102.5t76 36.5z" glyph-name="m.aalt" horiz-adv-x="2146"/><glyph d="M1733 -145q45 0 81.5 -41t36.5 -107q0 -123 -111.5 -197.5t-264.5 -74.5q-96 0 -187.5 32.5t-169.5 98t-125 178.5t-47 256v1231q0 221 -131 221q-104 0 -246.5 -133t-234.5 -313v-1006h-236v1550h236v-368q94 170 255 280.5t306 110.5q127 0 206 -95.5t79 -289.5 l2 -1188q0 -242 90 -377t201 -135q72 0 119.5 62.5t47.5 175.5q0 61 27 95t66 34z" glyph-name="n.aalt" horiz-adv-x="1277"/><glyph d="M334 0h-236v1550h236v-467q78 240 201.5 435.5t260 312.5t269.5 178.5t244 61.5q57 0 90 -33t33 -78q0 -47 -35 -82t-99 -35q-186 0 -369.5 -110.5t-345 -346t-249.5 -559.5v-827z" glyph-name="r.aalt" horiz-adv-x="774"/><glyph d="M557 -385q-231 0 -396 133t-165 375q0 188 116.5 291.5t268.5 103.5q115 0 193.5 -60.5t78.5 -166.5l-55 -31q-78 72 -178 72q-96 0 -168 -65.5t-72 -176.5q0 -180 115 -276.5t276 -96.5q180 0 316.5 114t136.5 306q0 33 -2 49q-8 86 -63.5 169t-137.5 150.5t-179 133.5 t-193.5 132.5t-175 134t-128 149.5t-49.5 170q0 170 133 264t326 94q154 0 297 -59.5t197 -161.5l-41 -232h-90q-35 184 -144.5 279.5t-238.5 95.5q-109 0 -187 -61.5t-78 -157.5q0 -70 87 -148.5t214 -163.5t257 -183.5t231.5 -238.5t122.5 -298q6 -43 6 -84 q0 -174 -94.5 -304t-235.5 -190.5t-301 -60.5z" glyph-name="s.aalt" horiz-adv-x="1167"/><glyph d="M911 438l41 -241q-74 -111 -175 -167.5t-208 -56.5q-168 0 -288.5 126t-120.5 337v1004h-123v110h82q51 2 92 59.5t61.5 137.5t31.5 149.5t11 112.5h78l2 -459h219q160 0 240 -59t80 -141t-63.5 -144.5t-157.5 -62.5l-33 37q70 55 70 127q0 57 -47.5 95t-133.5 38h-174 v-996q0 -186 56.5 -286.5t138.5 -100.5t155.5 102.5t96.5 278.5h69z" glyph-name="t.salt" horiz-adv-x="931"/><glyph d="M645 0h-153l-455 1538h235l361 -1219l285 895q123 387 282.5 566.5t296.5 179.5q63 0 100 -34t37 -79q0 -41 -30.5 -74.5t-85.5 -46.5q-190 -41 -312.5 -180t-210.5 -420z" glyph-name="v.salt" horiz-adv-x="1112"/><glyph d="M848 1550h227l-379 -1380v-12q0 -150 -59 -283t-171 -237.5t-287 -166t-392 -61.5q-322 0 -694 131l-68 230l60 41q483 -236 831 -236q283 0 432.5 141.5t149.5 352.5q0 104 -33 200l-449 1280h236l397 -1126l123 444q49 180 62.5 314.5t13.5 367.5z" glyph-name="y.aalt" horiz-adv-x="1093"/><glyph d="M1839 -137q45 0 79 -37t34 -102q0 -127 -144.5 -218.5t-326.5 -91.5q-115 0 -216.5 41t-190.5 128t-141 243t-52 364v123q-72 -164 -191 -253t-244 -89q-166 0 -277.5 120t-111.5 329q0 154 42 264.5t107.5 166.5t157 98t176.5 63.5t181 60.5t160 88v92 q0 109 -58.5 168.5t-146.5 59.5q-111 0 -214.5 -90.5t-139.5 -247.5h-70l-41 229q123 98 265 152.5t274 54.5q162 0 264 -84t102 -246v-1059q0 -367 109.5 -540.5t257.5 -173.5q96 0 169.5 71.5t76.5 176.5q2 66 34.5 102.5t75.5 36.5zM504 109q109 0 214 112.5t163 284.5 v545q-63 -41 -146.5 -78t-140.5 -59.5t-117.5 -60.5t-98.5 -83t-61.5 -126t-23.5 -193q0 -162 57.5 -252t153.5 -90z" glyph-name="a.ss02" horiz-adv-x="1214"/><glyph d="M96 2093q121 -131 308.5 -178t380 -21.5t380.5 105.5v-1999h-233v221q-80 -121 -187.5 -185.5t-220.5 -64.5q-197 0 -332 200t-135 587q0 399 165 621.5t413 222.5q147 0 295 -80v340q-696 -164 -971 59q-113 92 -80 172q25 57 98 57q68 0 119 -57zM565 100 q96 0 197.5 78t169.5 193l-2 1026q-147 86 -273 86q-180 0 -282.5 -186.5t-102.5 -538.5q0 -344 82 -501t211 -157z" glyph-name="d.ss02" horiz-adv-x="1261"/><glyph d="M1591 2071q94 0 155.5 -45.5t61.5 -122.5q0 -51 -45 -91q-78 66 -186 66q-166 0 -301 -146.5t-143 -402.5q121 -180 120 -457q0 -295 -131 -462.5t-344 -204.5q186 -35 281.5 -127t95.5 -213q0 -166 -125 -283t-323.5 -170t-446.5 -53q-307 0 -610 82t-500 227v209h53 q229 -164 550 -256t618 -92q281 0 454.5 84t173.5 240q0 106 -118.5 179.5t-343.5 73.5q-96 0 -191 -14v111q92 12 129 14q-190 51 -294.5 214t-104.5 441q0 344 156.5 521.5t431.5 177.5q244 0 403 -162q4 168 56.5 301t131 209t164.5 114t172 38zM664 289q354 0 354 583 q0 295 -89 450t-265 155q-190 0 -271.5 -149.5t-81.5 -455.5q0 -301 80 -442t273 -141z" glyph-name="g.ss02" horiz-adv-x="1382"/><glyph d="M1903 -137q45 0 78.5 -37t33.5 -102q0 -127 -143 -218.5t-328 -91.5q-115 0 -216 41t-189 128t-140.5 243t-52.5 364v924q0 299 -160 299q-100 0 -231 -116.5t-221 -278.5v-1018h-236v1868h236v-678q98 164 257 273.5t300 109.5q133 0 211 -93.5t78 -291.5l2 -998 q0 -367 108.5 -540.5t255.5 -173.5q98 0 171 71.5t75 176.5q2 66 35 102.5t76 36.5z" glyph-name="h.ss02" horiz-adv-x="1277"/><glyph d="M-735 2093q121 -131 307 -178t378.5 -21.5t383.5 105.5v-1999h-236v1862q-698 -164 -972 59q-113 92 -78 172q25 57 100 57q66 -2 117 -57z" glyph-name="l.ss02" horiz-adv-x="430"/><glyph d="M569 -27q-168 0 -288.5 126t-120.5 337v885q-113 -6 -166 0v94q18 -2 51 -2q78 0 135 10q66 100 102.5 293t36.5 293h74v-536q150 51 312.5 153.5t297 205.5t274.5 201.5t299 161t318 62.5q61 0 96 -33t35 -78q0 -49 -36.5 -85t-102.5 -36q-176 0 -342 -53t-304 -137 t-267 -172t-282.5 -173t-297.5 -126l2 -920q0 -186 56.5 -286.5t138.5 -100.5t155.5 102.5t96.5 278.5h69l41 -241q-74 -111 -175.5 -167.5t-207.5 -56.5z" glyph-name="t.ss02" horiz-adv-x="966"/><glyph d="M1524 2111q66 4 105.5 -27.5t39.5 -80.5q0 -39 -28.5 -73t-81.5 -48q-172 -39 -302.5 -172t-218.5 -432l-376 -1278h-170l-455 1550h235l365 -1243l324 1120q55 188 131.5 327.5t156.5 212.5t149 106.5t126 37.5z" glyph-name="v.ss02" horiz-adv-x="1112"/><glyph d="M635 0h-162l-457 1550h234l364 -1233l232 777q96 317 43 456h209l364 -1228l320 1105q53 184 130 324.5t156.5 215.5t152.5 111t136.5 36t98 -33t34.5 -78q0 -90 -110 -121q-176 -39 -308.5 -171t-211.5 -433l-377 -1278h-162l-344 1155z" glyph-name="w.aalt" horiz-adv-x="1953"/><glyph d="M786 205q182 -35 280.5 -126t98.5 -206q0 -236 -256 -365t-651 -131q-309 0 -612 80t-496 224v206h53q225 -160 546 -250t620 -90q276 0 449 81t173 233q0 100 -112.5 169.5t-327.5 69.5q-80 0 -205 -14v117q86 12 127 14q-397 109 -397 655q0 344 156.5 521.5 t431.5 177.5q137 0 254 -55q90 16 147 103t57 175h43l84 -178q-59 -141 -250 -141h-10q264 -182 264 -603q0 -293 -129 -460.5t-338 -206.5zM311 872q0 -301 80 -442t273 -141q354 0 354 583q0 295 -89 450t-265 155q-190 0 -271.5 -150t-81.5 -455z" glyph-name="g.ss03" horiz-adv-x="1363"/><glyph d="M1765 -123l60 -41l-68 -237q-367 -129 -665 -129q-197 0 -355.5 55t-264 148.5t-177.5 219t-103.5 263t-31.5 284.5v1000h-123v110h82q51 2 90 59.5t57.5 138.5t27.5 148.5t9 112.5h90l2 -459h350v-110h-350v-1000q0 -147 14.5 -266t51.5 -227.5t96 -181t154.5 -115.5 t220.5 -43q319 0 833 270z" glyph-name="t.ss03" horiz-adv-x="751"/><glyph d="M1573 2114q63 0 98 -33t35 -78q0 -90 -111 -121q-82 -18 -149.5 -53t-139 -100.5t-130 -179t-101.5 -271.5l-340 -1278h-280l-439 1868h236l405 -1735l340 1294q162 608 531 682q33 5 45 5zM1608 0h-236v1540h236v-1540z" glyph-name="V_i.dlig" horiz-adv-x="1806"/><glyph d="M-612 2009h-68l225 442h230v-38zM-469 1679q-96 0 -169 35t-114 92.5t-60 120t-24 129.5h70q14 -106 81 -162.5t216 -56.5q145 0 210.5 55.5t88.5 163.5h68q-6 -68 -27 -129t-61.5 -119.5t-112.5 -93.5t-166 -35z" glyph-name="uni0306_acutecomb.ccmp"/><glyph d="M-463 2396l191 -387l-109 51l-332 357l51 34zM-465 1673q-94 0 -165.5 35t-111.5 92.5t-61.5 118.5t-27.5 129h67q23 -106 88.5 -161.5t210.5 -55.5q150 0 216.5 56.5t80.5 160.5h70q-8 -150 -95.5 -262.5t-271.5 -112.5z" glyph-name="uni0306_gravecomb.ccmp"/><glyph d="M-483 1995h-68v100q141 16 141 154q0 86 -55 112.5t-131 -6.5v68q133 39 211 -8.5t78 -161.5q0 -178 -176 -203v-55zM-467 1679q-96 0 -169 35t-114 92.5t-60 120t-24 129.5h70q14 -106 81 -162.5t216 -56.5q145 0 211 55.5t88 163.5h68q-6 -70 -28 -130t-61.5 -118.5 t-111.5 -93.5t-166 -35z" glyph-name="uni0306_hookabovecomb.ccmp"/><glyph d="M-307 2056q-49 0 -175 77t-165 77q-31 0 -44.5 -36t-8.5 -85h-52q0 59 14.5 100t37 57.5t40 22.5t35.5 6q61 0 185.5 -70.5t158.5 -70.5q43 0 27 117h53q0 -115 -27.5 -155t-78.5 -40zM-469 1679q-96 0 -169 35t-114 92.5t-60 120t-24 129.5h70q14 -106 81 -162.5 t216 -56.5q145 0 210.5 55.5t88.5 163.5h68q-6 -68 -27 -129t-61.5 -119.5t-112.5 -93.5t-166 -35z" glyph-name="uni0306_tildecomb.ccmp"/><glyph d="M-602 2263l-260 -272h-47l151 299h156v-27zM-668 1694h-71l229 514h180l232 -514h-74l-246 360z" glyph-name="uni0302_acutecomb.ccmp"/><glyph d="M0 1989h-45l-262 272v27h155zM-397 2206l229 -514h-72l-249 360l-246 -360h-74l231 514h181z" glyph-name="uni0302_gravecomb.ccmp"/><glyph d="M-201 1913h-63v96q137 18 137 148q0 82 -53 107.5t-127 -3.5v63q129 39 202.5 -6t73.5 -155q0 -174 -170 -195v-55zM-829 1700h-72l229 514h180l232 -514h-74l-246 360z" glyph-name="uni0302_hookabovecomb.ccmp"/><glyph d="M-242 2171q-55 0 -200.5 88t-190.5 88q-35 0 -50 -41t-9 -96h-60q0 68 16.5 114t42 65t46 26.5t41.5 7.5q70 0 211 -82t182 -82q51 0 31 135h61q0 -131 -31 -177t-90 -46zM-680 1630h-72l230 514h180l231 -514h-73l-246 361z" glyph-name="uni0302_tildecomb.ccmp"/></font>
</defs>
</svg>
